<?xml version="1.0" encoding="utf-8" standalone="no"?>
<!DOCTYPE svg PUBLIC "-//W3C//DTD SVG 1.1//EN"
  "http://www.w3.org/Graphics/SVG/1.1/DTD/svg11.dtd">
<!-- Created with matplotlib (https://matplotlib.org/) -->
<svg height="290.382125pt" version="1.1" viewBox="0 0 640.031818 290.382125" width="640.031818pt" xmlns="http://www.w3.org/2000/svg" xmlns:xlink="http://www.w3.org/1999/xlink">
 <metadata>
  <rdf:RDF xmlns:cc="http://creativecommons.org/ns#" xmlns:dc="http://purl.org/dc/elements/1.1/" xmlns:rdf="http://www.w3.org/1999/02/22-rdf-syntax-ns#">
   <cc:Work>
    <dc:type rdf:resource="http://purl.org/dc/dcmitype/StillImage"/>
    <dc:date>2021-02-16T03:15:09.562697</dc:date>
    <dc:format>image/svg+xml</dc:format>
    <dc:creator>
     <cc:Agent>
      <dc:title>Matplotlib v3.3.4, https://matplotlib.org/</dc:title>
     </cc:Agent>
    </dc:creator>
   </cc:Work>
  </rdf:RDF>
 </metadata>
 <defs>
  <style type="text/css">*{stroke-linecap:butt;stroke-linejoin:round;}</style>
 </defs>
 <g id="figure_1">
  <g id="patch_1">
   <path d="M 0 290.382125 
L 640.031818 290.382125 
L 640.031818 0 
L 0 0 
z
" style="fill:#ffffff;"/>
  </g>
  <g id="axes_1">
   <g id="patch_2">
    <path d="M 58.16375 212.578125 
L 311.800114 212.578125 
L 311.800114 22.318125 
L 58.16375 22.318125 
z
" style="fill:#ffffff;"/>
   </g>
   <g id="matplotlib.axis_1">
    <g id="xtick_1">
     <g id="line2d_1">
      <defs>
       <path d="M 0 0 
L 0 6 
" id="m88b73ac6ad" style="stroke:#262626;stroke-width:1.25;"/>
      </defs>
      <g>
       <use style="fill:#262626;stroke:#262626;stroke-width:1.25;" x="69.692676" xlink:href="#m88b73ac6ad" y="212.578125"/>
      </g>
     </g>
     <g id="text_1">
      <!-- $\mathdefault{10^{2}}$ -->
      <g style="fill:#262626;" transform="translate(60.012676 230.436406)scale(0.11 -0.11)">
       <defs>
        <path d="M 12.40625 8.296875 
L 28.515625 8.296875 
L 28.515625 63.921875 
L 10.984375 60.40625 
L 10.984375 69.390625 
L 28.421875 72.90625 
L 38.28125 72.90625 
L 38.28125 8.296875 
L 54.390625 8.296875 
L 54.390625 0 
L 12.40625 0 
z
" id="DejaVuSans-49"/>
        <path d="M 31.78125 66.40625 
Q 24.171875 66.40625 20.328125 58.90625 
Q 16.5 51.421875 16.5 36.375 
Q 16.5 21.390625 20.328125 13.890625 
Q 24.171875 6.390625 31.78125 6.390625 
Q 39.453125 6.390625 43.28125 13.890625 
Q 47.125 21.390625 47.125 36.375 
Q 47.125 51.421875 43.28125 58.90625 
Q 39.453125 66.40625 31.78125 66.40625 
z
M 31.78125 74.21875 
Q 44.046875 74.21875 50.515625 64.515625 
Q 56.984375 54.828125 56.984375 36.375 
Q 56.984375 17.96875 50.515625 8.265625 
Q 44.046875 -1.421875 31.78125 -1.421875 
Q 19.53125 -1.421875 13.0625 8.265625 
Q 6.59375 17.96875 6.59375 36.375 
Q 6.59375 54.828125 13.0625 64.515625 
Q 19.53125 74.21875 31.78125 74.21875 
z
" id="DejaVuSans-48"/>
        <path d="M 19.1875 8.296875 
L 53.609375 8.296875 
L 53.609375 0 
L 7.328125 0 
L 7.328125 8.296875 
Q 12.9375 14.109375 22.625 23.890625 
Q 32.328125 33.6875 34.8125 36.53125 
Q 39.546875 41.84375 41.421875 45.53125 
Q 43.3125 49.21875 43.3125 52.78125 
Q 43.3125 58.59375 39.234375 62.25 
Q 35.15625 65.921875 28.609375 65.921875 
Q 23.96875 65.921875 18.8125 64.3125 
Q 13.671875 62.703125 7.8125 59.421875 
L 7.8125 69.390625 
Q 13.765625 71.78125 18.9375 73 
Q 24.125 74.21875 28.421875 74.21875 
Q 39.75 74.21875 46.484375 68.546875 
Q 53.21875 62.890625 53.21875 53.421875 
Q 53.21875 48.921875 51.53125 44.890625 
Q 49.859375 40.875 45.40625 35.40625 
Q 44.1875 33.984375 37.640625 27.21875 
Q 31.109375 20.453125 19.1875 8.296875 
z
" id="DejaVuSans-50"/>
       </defs>
       <use transform="translate(0 0.765625)" xlink:href="#DejaVuSans-49"/>
       <use transform="translate(63.623047 0.765625)" xlink:href="#DejaVuSans-48"/>
       <use transform="translate(128.203125 39.046875)scale(0.7)" xlink:href="#DejaVuSans-50"/>
      </g>
     </g>
    </g>
    <g id="xtick_2">
     <g id="line2d_2">
      <g>
       <use style="fill:#262626;stroke:#262626;stroke-width:1.25;" x="127.337304" xlink:href="#m88b73ac6ad" y="212.578125"/>
      </g>
     </g>
     <g id="text_2">
      <!-- $\mathdefault{10^{3}}$ -->
      <g style="fill:#262626;" transform="translate(117.657304 230.436406)scale(0.11 -0.11)">
       <defs>
        <path d="M 40.578125 39.3125 
Q 47.65625 37.796875 51.625 33 
Q 55.609375 28.21875 55.609375 21.1875 
Q 55.609375 10.40625 48.1875 4.484375 
Q 40.765625 -1.421875 27.09375 -1.421875 
Q 22.515625 -1.421875 17.65625 -0.515625 
Q 12.796875 0.390625 7.625 2.203125 
L 7.625 11.71875 
Q 11.71875 9.328125 16.59375 8.109375 
Q 21.484375 6.890625 26.8125 6.890625 
Q 36.078125 6.890625 40.9375 10.546875 
Q 45.796875 14.203125 45.796875 21.1875 
Q 45.796875 27.640625 41.28125 31.265625 
Q 36.765625 34.90625 28.71875 34.90625 
L 20.21875 34.90625 
L 20.21875 43.015625 
L 29.109375 43.015625 
Q 36.375 43.015625 40.234375 45.921875 
Q 44.09375 48.828125 44.09375 54.296875 
Q 44.09375 59.90625 40.109375 62.90625 
Q 36.140625 65.921875 28.71875 65.921875 
Q 24.65625 65.921875 20.015625 65.03125 
Q 15.375 64.15625 9.8125 62.3125 
L 9.8125 71.09375 
Q 15.4375 72.65625 20.34375 73.4375 
Q 25.25 74.21875 29.59375 74.21875 
Q 40.828125 74.21875 47.359375 69.109375 
Q 53.90625 64.015625 53.90625 55.328125 
Q 53.90625 49.265625 50.4375 45.09375 
Q 46.96875 40.921875 40.578125 39.3125 
z
" id="DejaVuSans-51"/>
       </defs>
       <use transform="translate(0 0.765625)" xlink:href="#DejaVuSans-49"/>
       <use transform="translate(63.623047 0.765625)" xlink:href="#DejaVuSans-48"/>
       <use transform="translate(128.203125 39.046875)scale(0.7)" xlink:href="#DejaVuSans-51"/>
      </g>
     </g>
    </g>
    <g id="xtick_3">
     <g id="line2d_3">
      <g>
       <use style="fill:#262626;stroke:#262626;stroke-width:1.25;" x="184.981932" xlink:href="#m88b73ac6ad" y="212.578125"/>
      </g>
     </g>
     <g id="text_3">
      <!-- $\mathdefault{10^{4}}$ -->
      <g style="fill:#262626;" transform="translate(175.301932 230.436406)scale(0.11 -0.11)">
       <defs>
        <path d="M 37.796875 64.3125 
L 12.890625 25.390625 
L 37.796875 25.390625 
z
M 35.203125 72.90625 
L 47.609375 72.90625 
L 47.609375 25.390625 
L 58.015625 25.390625 
L 58.015625 17.1875 
L 47.609375 17.1875 
L 47.609375 0 
L 37.796875 0 
L 37.796875 17.1875 
L 4.890625 17.1875 
L 4.890625 26.703125 
z
" id="DejaVuSans-52"/>
       </defs>
       <use transform="translate(0 0.684375)" xlink:href="#DejaVuSans-49"/>
       <use transform="translate(63.623047 0.684375)" xlink:href="#DejaVuSans-48"/>
       <use transform="translate(128.203125 38.965625)scale(0.7)" xlink:href="#DejaVuSans-52"/>
      </g>
     </g>
    </g>
    <g id="xtick_4">
     <g id="line2d_4">
      <g>
       <use style="fill:#262626;stroke:#262626;stroke-width:1.25;" x="242.62656" xlink:href="#m88b73ac6ad" y="212.578125"/>
      </g>
     </g>
     <g id="text_4">
      <!-- $\mathdefault{10^{5}}$ -->
      <g style="fill:#262626;" transform="translate(232.94656 230.436406)scale(0.11 -0.11)">
       <defs>
        <path d="M 10.796875 72.90625 
L 49.515625 72.90625 
L 49.515625 64.59375 
L 19.828125 64.59375 
L 19.828125 46.734375 
Q 21.96875 47.46875 24.109375 47.828125 
Q 26.265625 48.1875 28.421875 48.1875 
Q 40.625 48.1875 47.75 41.5 
Q 54.890625 34.8125 54.890625 23.390625 
Q 54.890625 11.625 47.5625 5.09375 
Q 40.234375 -1.421875 26.90625 -1.421875 
Q 22.3125 -1.421875 17.546875 -0.640625 
Q 12.796875 0.140625 7.71875 1.703125 
L 7.71875 11.625 
Q 12.109375 9.234375 16.796875 8.0625 
Q 21.484375 6.890625 26.703125 6.890625 
Q 35.15625 6.890625 40.078125 11.328125 
Q 45.015625 15.765625 45.015625 23.390625 
Q 45.015625 31 40.078125 35.4375 
Q 35.15625 39.890625 26.703125 39.890625 
Q 22.75 39.890625 18.8125 39.015625 
Q 14.890625 38.140625 10.796875 36.28125 
z
" id="DejaVuSans-53"/>
       </defs>
       <use transform="translate(0 0.684375)" xlink:href="#DejaVuSans-49"/>
       <use transform="translate(63.623047 0.684375)" xlink:href="#DejaVuSans-48"/>
       <use transform="translate(128.203125 38.965625)scale(0.7)" xlink:href="#DejaVuSans-53"/>
      </g>
     </g>
    </g>
    <g id="xtick_5">
     <g id="line2d_5">
      <g>
       <use style="fill:#262626;stroke:#262626;stroke-width:1.25;" x="300.271188" xlink:href="#m88b73ac6ad" y="212.578125"/>
      </g>
     </g>
     <g id="text_5">
      <!-- $\mathdefault{10^{6}}$ -->
      <g style="fill:#262626;" transform="translate(290.591188 230.436406)scale(0.11 -0.11)">
       <defs>
        <path d="M 33.015625 40.375 
Q 26.375 40.375 22.484375 35.828125 
Q 18.609375 31.296875 18.609375 23.390625 
Q 18.609375 15.53125 22.484375 10.953125 
Q 26.375 6.390625 33.015625 6.390625 
Q 39.65625 6.390625 43.53125 10.953125 
Q 47.40625 15.53125 47.40625 23.390625 
Q 47.40625 31.296875 43.53125 35.828125 
Q 39.65625 40.375 33.015625 40.375 
z
M 52.59375 71.296875 
L 52.59375 62.3125 
Q 48.875 64.0625 45.09375 64.984375 
Q 41.3125 65.921875 37.59375 65.921875 
Q 27.828125 65.921875 22.671875 59.328125 
Q 17.53125 52.734375 16.796875 39.40625 
Q 19.671875 43.65625 24.015625 45.921875 
Q 28.375 48.1875 33.59375 48.1875 
Q 44.578125 48.1875 50.953125 41.515625 
Q 57.328125 34.859375 57.328125 23.390625 
Q 57.328125 12.15625 50.6875 5.359375 
Q 44.046875 -1.421875 33.015625 -1.421875 
Q 20.359375 -1.421875 13.671875 8.265625 
Q 6.984375 17.96875 6.984375 36.375 
Q 6.984375 53.65625 15.1875 63.9375 
Q 23.390625 74.21875 37.203125 74.21875 
Q 40.921875 74.21875 44.703125 73.484375 
Q 48.484375 72.75 52.59375 71.296875 
z
" id="DejaVuSans-54"/>
       </defs>
       <use transform="translate(0 0.765625)" xlink:href="#DejaVuSans-49"/>
       <use transform="translate(63.623047 0.765625)" xlink:href="#DejaVuSans-48"/>
       <use transform="translate(128.203125 39.046875)scale(0.7)" xlink:href="#DejaVuSans-54"/>
      </g>
     </g>
    </g>
    <g id="xtick_6">
     <g id="line2d_6">
      <defs>
       <path d="M 0 0 
L 0 4 
" id="m6de4cf97f0" style="stroke:#262626;"/>
      </defs>
      <g>
       <use style="fill:#262626;stroke:#262626;" x="60.76341" xlink:href="#m6de4cf97f0" y="212.578125"/>
      </g>
     </g>
    </g>
    <g id="xtick_7">
     <g id="line2d_7">
      <g>
       <use style="fill:#262626;stroke:#262626;" x="64.106334" xlink:href="#m6de4cf97f0" y="212.578125"/>
      </g>
     </g>
    </g>
    <g id="xtick_8">
     <g id="line2d_8">
      <g>
       <use style="fill:#262626;stroke:#262626;" x="67.055002" xlink:href="#m6de4cf97f0" y="212.578125"/>
      </g>
     </g>
    </g>
    <g id="xtick_9">
     <g id="line2d_9">
      <g>
       <use style="fill:#262626;stroke:#262626;" x="87.045438" xlink:href="#m6de4cf97f0" y="212.578125"/>
      </g>
     </g>
    </g>
    <g id="xtick_10">
     <g id="line2d_10">
      <g>
       <use style="fill:#262626;stroke:#262626;" x="97.196153" xlink:href="#m6de4cf97f0" y="212.578125"/>
      </g>
     </g>
    </g>
    <g id="xtick_11">
     <g id="line2d_11">
      <g>
       <use style="fill:#262626;stroke:#262626;" x="104.3982" xlink:href="#m6de4cf97f0" y="212.578125"/>
      </g>
     </g>
    </g>
    <g id="xtick_12">
     <g id="line2d_12">
      <g>
       <use style="fill:#262626;stroke:#262626;" x="109.984542" xlink:href="#m6de4cf97f0" y="212.578125"/>
      </g>
     </g>
    </g>
    <g id="xtick_13">
     <g id="line2d_13">
      <g>
       <use style="fill:#262626;stroke:#262626;" x="114.548915" xlink:href="#m6de4cf97f0" y="212.578125"/>
      </g>
     </g>
    </g>
    <g id="xtick_14">
     <g id="line2d_14">
      <g>
       <use style="fill:#262626;stroke:#262626;" x="118.408038" xlink:href="#m6de4cf97f0" y="212.578125"/>
      </g>
     </g>
    </g>
    <g id="xtick_15">
     <g id="line2d_15">
      <g>
       <use style="fill:#262626;stroke:#262626;" x="121.750962" xlink:href="#m6de4cf97f0" y="212.578125"/>
      </g>
     </g>
    </g>
    <g id="xtick_16">
     <g id="line2d_16">
      <g>
       <use style="fill:#262626;stroke:#262626;" x="124.69963" xlink:href="#m6de4cf97f0" y="212.578125"/>
      </g>
     </g>
    </g>
    <g id="xtick_17">
     <g id="line2d_17">
      <g>
       <use style="fill:#262626;stroke:#262626;" x="144.690066" xlink:href="#m6de4cf97f0" y="212.578125"/>
      </g>
     </g>
    </g>
    <g id="xtick_18">
     <g id="line2d_18">
      <g>
       <use style="fill:#262626;stroke:#262626;" x="154.840781" xlink:href="#m6de4cf97f0" y="212.578125"/>
      </g>
     </g>
    </g>
    <g id="xtick_19">
     <g id="line2d_19">
      <g>
       <use style="fill:#262626;stroke:#262626;" x="162.042828" xlink:href="#m6de4cf97f0" y="212.578125"/>
      </g>
     </g>
    </g>
    <g id="xtick_20">
     <g id="line2d_20">
      <g>
       <use style="fill:#262626;stroke:#262626;" x="167.62917" xlink:href="#m6de4cf97f0" y="212.578125"/>
      </g>
     </g>
    </g>
    <g id="xtick_21">
     <g id="line2d_21">
      <g>
       <use style="fill:#262626;stroke:#262626;" x="172.193543" xlink:href="#m6de4cf97f0" y="212.578125"/>
      </g>
     </g>
    </g>
    <g id="xtick_22">
     <g id="line2d_22">
      <g>
       <use style="fill:#262626;stroke:#262626;" x="176.052666" xlink:href="#m6de4cf97f0" y="212.578125"/>
      </g>
     </g>
    </g>
    <g id="xtick_23">
     <g id="line2d_23">
      <g>
       <use style="fill:#262626;stroke:#262626;" x="179.39559" xlink:href="#m6de4cf97f0" y="212.578125"/>
      </g>
     </g>
    </g>
    <g id="xtick_24">
     <g id="line2d_24">
      <g>
       <use style="fill:#262626;stroke:#262626;" x="182.344258" xlink:href="#m6de4cf97f0" y="212.578125"/>
      </g>
     </g>
    </g>
    <g id="xtick_25">
     <g id="line2d_25">
      <g>
       <use style="fill:#262626;stroke:#262626;" x="202.334694" xlink:href="#m6de4cf97f0" y="212.578125"/>
      </g>
     </g>
    </g>
    <g id="xtick_26">
     <g id="line2d_26">
      <g>
       <use style="fill:#262626;stroke:#262626;" x="212.485409" xlink:href="#m6de4cf97f0" y="212.578125"/>
      </g>
     </g>
    </g>
    <g id="xtick_27">
     <g id="line2d_27">
      <g>
       <use style="fill:#262626;stroke:#262626;" x="219.687456" xlink:href="#m6de4cf97f0" y="212.578125"/>
      </g>
     </g>
    </g>
    <g id="xtick_28">
     <g id="line2d_28">
      <g>
       <use style="fill:#262626;stroke:#262626;" x="225.273798" xlink:href="#m6de4cf97f0" y="212.578125"/>
      </g>
     </g>
    </g>
    <g id="xtick_29">
     <g id="line2d_29">
      <g>
       <use style="fill:#262626;stroke:#262626;" x="229.838171" xlink:href="#m6de4cf97f0" y="212.578125"/>
      </g>
     </g>
    </g>
    <g id="xtick_30">
     <g id="line2d_30">
      <g>
       <use style="fill:#262626;stroke:#262626;" x="233.697294" xlink:href="#m6de4cf97f0" y="212.578125"/>
      </g>
     </g>
    </g>
    <g id="xtick_31">
     <g id="line2d_31">
      <g>
       <use style="fill:#262626;stroke:#262626;" x="237.040218" xlink:href="#m6de4cf97f0" y="212.578125"/>
      </g>
     </g>
    </g>
    <g id="xtick_32">
     <g id="line2d_32">
      <g>
       <use style="fill:#262626;stroke:#262626;" x="239.988886" xlink:href="#m6de4cf97f0" y="212.578125"/>
      </g>
     </g>
    </g>
    <g id="xtick_33">
     <g id="line2d_33">
      <g>
       <use style="fill:#262626;stroke:#262626;" x="259.979322" xlink:href="#m6de4cf97f0" y="212.578125"/>
      </g>
     </g>
    </g>
    <g id="xtick_34">
     <g id="line2d_34">
      <g>
       <use style="fill:#262626;stroke:#262626;" x="270.130037" xlink:href="#m6de4cf97f0" y="212.578125"/>
      </g>
     </g>
    </g>
    <g id="xtick_35">
     <g id="line2d_35">
      <g>
       <use style="fill:#262626;stroke:#262626;" x="277.332084" xlink:href="#m6de4cf97f0" y="212.578125"/>
      </g>
     </g>
    </g>
    <g id="xtick_36">
     <g id="line2d_36">
      <g>
       <use style="fill:#262626;stroke:#262626;" x="282.918426" xlink:href="#m6de4cf97f0" y="212.578125"/>
      </g>
     </g>
    </g>
    <g id="xtick_37">
     <g id="line2d_37">
      <g>
       <use style="fill:#262626;stroke:#262626;" x="287.482799" xlink:href="#m6de4cf97f0" y="212.578125"/>
      </g>
     </g>
    </g>
    <g id="xtick_38">
     <g id="line2d_38">
      <g>
       <use style="fill:#262626;stroke:#262626;" x="291.341922" xlink:href="#m6de4cf97f0" y="212.578125"/>
      </g>
     </g>
    </g>
    <g id="xtick_39">
     <g id="line2d_39">
      <g>
       <use style="fill:#262626;stroke:#262626;" x="294.684846" xlink:href="#m6de4cf97f0" y="212.578125"/>
      </g>
     </g>
    </g>
    <g id="xtick_40">
     <g id="line2d_40">
      <g>
       <use style="fill:#262626;stroke:#262626;" x="297.633514" xlink:href="#m6de4cf97f0" y="212.578125"/>
      </g>
     </g>
    </g>
    <g id="text_6">
     <!-- Size of Dataset -->
     <g style="fill:#262626;" transform="translate(139.572244 245.842187)scale(0.12 -0.12)">
      <defs>
       <path d="M 53.515625 70.515625 
L 53.515625 60.890625 
Q 47.90625 63.578125 42.921875 64.890625 
Q 37.9375 66.21875 33.296875 66.21875 
Q 25.25 66.21875 20.875 63.09375 
Q 16.5 59.96875 16.5 54.203125 
Q 16.5 49.359375 19.40625 46.890625 
Q 22.3125 44.4375 30.421875 42.921875 
L 36.375 41.703125 
Q 47.40625 39.59375 52.65625 34.296875 
Q 57.90625 29 57.90625 20.125 
Q 57.90625 9.515625 50.796875 4.046875 
Q 43.703125 -1.421875 29.984375 -1.421875 
Q 24.8125 -1.421875 18.96875 -0.25 
Q 13.140625 0.921875 6.890625 3.21875 
L 6.890625 13.375 
Q 12.890625 10.015625 18.65625 8.296875 
Q 24.421875 6.59375 29.984375 6.59375 
Q 38.421875 6.59375 43.015625 9.90625 
Q 47.609375 13.234375 47.609375 19.390625 
Q 47.609375 24.75 44.3125 27.78125 
Q 41.015625 30.8125 33.5 32.328125 
L 27.484375 33.5 
Q 16.453125 35.6875 11.515625 40.375 
Q 6.59375 45.0625 6.59375 53.421875 
Q 6.59375 63.09375 13.40625 68.65625 
Q 20.21875 74.21875 32.171875 74.21875 
Q 37.3125 74.21875 42.625 73.28125 
Q 47.953125 72.359375 53.515625 70.515625 
z
" id="DejaVuSans-83"/>
       <path d="M 9.421875 54.6875 
L 18.40625 54.6875 
L 18.40625 0 
L 9.421875 0 
z
M 9.421875 75.984375 
L 18.40625 75.984375 
L 18.40625 64.59375 
L 9.421875 64.59375 
z
" id="DejaVuSans-105"/>
       <path d="M 5.515625 54.6875 
L 48.1875 54.6875 
L 48.1875 46.484375 
L 14.40625 7.171875 
L 48.1875 7.171875 
L 48.1875 0 
L 4.296875 0 
L 4.296875 8.203125 
L 38.09375 47.515625 
L 5.515625 47.515625 
z
" id="DejaVuSans-122"/>
       <path d="M 56.203125 29.59375 
L 56.203125 25.203125 
L 14.890625 25.203125 
Q 15.484375 15.921875 20.484375 11.0625 
Q 25.484375 6.203125 34.421875 6.203125 
Q 39.59375 6.203125 44.453125 7.46875 
Q 49.3125 8.734375 54.109375 11.28125 
L 54.109375 2.78125 
Q 49.265625 0.734375 44.1875 -0.34375 
Q 39.109375 -1.421875 33.890625 -1.421875 
Q 20.796875 -1.421875 13.15625 6.1875 
Q 5.515625 13.8125 5.515625 26.8125 
Q 5.515625 40.234375 12.765625 48.109375 
Q 20.015625 56 32.328125 56 
Q 43.359375 56 49.78125 48.890625 
Q 56.203125 41.796875 56.203125 29.59375 
z
M 47.21875 32.234375 
Q 47.125 39.59375 43.09375 43.984375 
Q 39.0625 48.390625 32.421875 48.390625 
Q 24.90625 48.390625 20.390625 44.140625 
Q 15.875 39.890625 15.1875 32.171875 
z
" id="DejaVuSans-101"/>
       <path id="DejaVuSans-32"/>
       <path d="M 30.609375 48.390625 
Q 23.390625 48.390625 19.1875 42.75 
Q 14.984375 37.109375 14.984375 27.296875 
Q 14.984375 17.484375 19.15625 11.84375 
Q 23.34375 6.203125 30.609375 6.203125 
Q 37.796875 6.203125 41.984375 11.859375 
Q 46.1875 17.53125 46.1875 27.296875 
Q 46.1875 37.015625 41.984375 42.703125 
Q 37.796875 48.390625 30.609375 48.390625 
z
M 30.609375 56 
Q 42.328125 56 49.015625 48.375 
Q 55.71875 40.765625 55.71875 27.296875 
Q 55.71875 13.875 49.015625 6.21875 
Q 42.328125 -1.421875 30.609375 -1.421875 
Q 18.84375 -1.421875 12.171875 6.21875 
Q 5.515625 13.875 5.515625 27.296875 
Q 5.515625 40.765625 12.171875 48.375 
Q 18.84375 56 30.609375 56 
z
" id="DejaVuSans-111"/>
       <path d="M 37.109375 75.984375 
L 37.109375 68.5 
L 28.515625 68.5 
Q 23.6875 68.5 21.796875 66.546875 
Q 19.921875 64.59375 19.921875 59.515625 
L 19.921875 54.6875 
L 34.71875 54.6875 
L 34.71875 47.703125 
L 19.921875 47.703125 
L 19.921875 0 
L 10.890625 0 
L 10.890625 47.703125 
L 2.296875 47.703125 
L 2.296875 54.6875 
L 10.890625 54.6875 
L 10.890625 58.5 
Q 10.890625 67.625 15.140625 71.796875 
Q 19.390625 75.984375 28.609375 75.984375 
z
" id="DejaVuSans-102"/>
       <path d="M 19.671875 64.796875 
L 19.671875 8.109375 
L 31.59375 8.109375 
Q 46.6875 8.109375 53.6875 14.9375 
Q 60.6875 21.78125 60.6875 36.53125 
Q 60.6875 51.171875 53.6875 57.984375 
Q 46.6875 64.796875 31.59375 64.796875 
z
M 9.8125 72.90625 
L 30.078125 72.90625 
Q 51.265625 72.90625 61.171875 64.09375 
Q 71.09375 55.28125 71.09375 36.53125 
Q 71.09375 17.671875 61.125 8.828125 
Q 51.171875 0 30.078125 0 
L 9.8125 0 
z
" id="DejaVuSans-68"/>
       <path d="M 34.28125 27.484375 
Q 23.390625 27.484375 19.1875 25 
Q 14.984375 22.515625 14.984375 16.5 
Q 14.984375 11.71875 18.140625 8.90625 
Q 21.296875 6.109375 26.703125 6.109375 
Q 34.1875 6.109375 38.703125 11.40625 
Q 43.21875 16.703125 43.21875 25.484375 
L 43.21875 27.484375 
z
M 52.203125 31.203125 
L 52.203125 0 
L 43.21875 0 
L 43.21875 8.296875 
Q 40.140625 3.328125 35.546875 0.953125 
Q 30.953125 -1.421875 24.3125 -1.421875 
Q 15.921875 -1.421875 10.953125 3.296875 
Q 6 8.015625 6 15.921875 
Q 6 25.140625 12.171875 29.828125 
Q 18.359375 34.515625 30.609375 34.515625 
L 43.21875 34.515625 
L 43.21875 35.40625 
Q 43.21875 41.609375 39.140625 45 
Q 35.0625 48.390625 27.6875 48.390625 
Q 23 48.390625 18.546875 47.265625 
Q 14.109375 46.140625 10.015625 43.890625 
L 10.015625 52.203125 
Q 14.9375 54.109375 19.578125 55.046875 
Q 24.21875 56 28.609375 56 
Q 40.484375 56 46.34375 49.84375 
Q 52.203125 43.703125 52.203125 31.203125 
z
" id="DejaVuSans-97"/>
       <path d="M 18.3125 70.21875 
L 18.3125 54.6875 
L 36.8125 54.6875 
L 36.8125 47.703125 
L 18.3125 47.703125 
L 18.3125 18.015625 
Q 18.3125 11.328125 20.140625 9.421875 
Q 21.96875 7.515625 27.59375 7.515625 
L 36.8125 7.515625 
L 36.8125 0 
L 27.59375 0 
Q 17.1875 0 13.234375 3.875 
Q 9.28125 7.765625 9.28125 18.015625 
L 9.28125 47.703125 
L 2.6875 47.703125 
L 2.6875 54.6875 
L 9.28125 54.6875 
L 9.28125 70.21875 
z
" id="DejaVuSans-116"/>
       <path d="M 44.28125 53.078125 
L 44.28125 44.578125 
Q 40.484375 46.53125 36.375 47.5 
Q 32.28125 48.484375 27.875 48.484375 
Q 21.1875 48.484375 17.84375 46.4375 
Q 14.5 44.390625 14.5 40.28125 
Q 14.5 37.15625 16.890625 35.375 
Q 19.28125 33.59375 26.515625 31.984375 
L 29.59375 31.296875 
Q 39.15625 29.25 43.1875 25.515625 
Q 47.21875 21.78125 47.21875 15.09375 
Q 47.21875 7.46875 41.1875 3.015625 
Q 35.15625 -1.421875 24.609375 -1.421875 
Q 20.21875 -1.421875 15.453125 -0.5625 
Q 10.6875 0.296875 5.421875 2 
L 5.421875 11.28125 
Q 10.40625 8.6875 15.234375 7.390625 
Q 20.0625 6.109375 24.8125 6.109375 
Q 31.15625 6.109375 34.5625 8.28125 
Q 37.984375 10.453125 37.984375 14.40625 
Q 37.984375 18.0625 35.515625 20.015625 
Q 33.0625 21.96875 24.703125 23.78125 
L 21.578125 24.515625 
Q 13.234375 26.265625 9.515625 29.90625 
Q 5.8125 33.546875 5.8125 39.890625 
Q 5.8125 47.609375 11.28125 51.796875 
Q 16.75 56 26.8125 56 
Q 31.78125 56 36.171875 55.265625 
Q 40.578125 54.546875 44.28125 53.078125 
z
" id="DejaVuSans-115"/>
      </defs>
      <use xlink:href="#DejaVuSans-83"/>
      <use x="63.476562" xlink:href="#DejaVuSans-105"/>
      <use x="91.259766" xlink:href="#DejaVuSans-122"/>
      <use x="143.75" xlink:href="#DejaVuSans-101"/>
      <use x="205.273438" xlink:href="#DejaVuSans-32"/>
      <use x="237.060547" xlink:href="#DejaVuSans-111"/>
      <use x="298.242188" xlink:href="#DejaVuSans-102"/>
      <use x="333.447266" xlink:href="#DejaVuSans-32"/>
      <use x="365.234375" xlink:href="#DejaVuSans-68"/>
      <use x="442.236328" xlink:href="#DejaVuSans-97"/>
      <use x="503.515625" xlink:href="#DejaVuSans-116"/>
      <use x="542.724609" xlink:href="#DejaVuSans-97"/>
      <use x="604.003906" xlink:href="#DejaVuSans-115"/>
      <use x="656.103516" xlink:href="#DejaVuSans-101"/>
      <use x="717.626953" xlink:href="#DejaVuSans-116"/>
     </g>
    </g>
   </g>
   <g id="matplotlib.axis_2">
    <g id="ytick_1">
     <g id="line2d_41">
      <defs>
       <path d="M 0 0 
L -6 0 
" id="m59593037a4" style="stroke:#262626;stroke-width:1.25;"/>
      </defs>
      <g>
       <use style="fill:#262626;stroke:#262626;stroke-width:1.25;" x="58.16375" xlink:href="#m59593037a4" y="179.513148"/>
      </g>
     </g>
     <g id="text_7">
      <!-- $\mathdefault{10^{-4}}$ -->
      <g style="fill:#262626;" transform="translate(22.81375 183.692289)scale(0.11 -0.11)">
       <defs>
        <path d="M 10.59375 35.5 
L 73.1875 35.5 
L 73.1875 27.203125 
L 10.59375 27.203125 
z
" id="DejaVuSans-8722"/>
       </defs>
       <use transform="translate(0 0.684375)" xlink:href="#DejaVuSans-49"/>
       <use transform="translate(63.623047 0.684375)" xlink:href="#DejaVuSans-48"/>
       <use transform="translate(128.203125 38.965625)scale(0.7)" xlink:href="#DejaVuSans-8722"/>
       <use transform="translate(186.855469 38.965625)scale(0.7)" xlink:href="#DejaVuSans-52"/>
      </g>
     </g>
    </g>
    <g id="ytick_2">
     <g id="line2d_42">
      <g>
       <use style="fill:#262626;stroke:#262626;stroke-width:1.25;" x="58.16375" xlink:href="#m59593037a4" y="140.933604"/>
      </g>
     </g>
     <g id="text_8">
      <!-- $\mathdefault{10^{-3}}$ -->
      <g style="fill:#262626;" transform="translate(22.81375 145.112744)scale(0.11 -0.11)">
       <use transform="translate(0 0.765625)" xlink:href="#DejaVuSans-49"/>
       <use transform="translate(63.623047 0.765625)" xlink:href="#DejaVuSans-48"/>
       <use transform="translate(128.203125 39.046875)scale(0.7)" xlink:href="#DejaVuSans-8722"/>
       <use transform="translate(186.855469 39.046875)scale(0.7)" xlink:href="#DejaVuSans-51"/>
      </g>
     </g>
    </g>
    <g id="ytick_3">
     <g id="line2d_43">
      <g>
       <use style="fill:#262626;stroke:#262626;stroke-width:1.25;" x="58.16375" xlink:href="#m59593037a4" y="102.354059"/>
      </g>
     </g>
     <g id="text_9">
      <!-- $\mathdefault{10^{-2}}$ -->
      <g style="fill:#262626;" transform="translate(22.81375 106.5332)scale(0.11 -0.11)">
       <use transform="translate(0 0.765625)" xlink:href="#DejaVuSans-49"/>
       <use transform="translate(63.623047 0.765625)" xlink:href="#DejaVuSans-48"/>
       <use transform="translate(128.203125 39.046875)scale(0.7)" xlink:href="#DejaVuSans-8722"/>
       <use transform="translate(186.855469 39.046875)scale(0.7)" xlink:href="#DejaVuSans-50"/>
      </g>
     </g>
    </g>
    <g id="ytick_4">
     <g id="line2d_44">
      <g>
       <use style="fill:#262626;stroke:#262626;stroke-width:1.25;" x="58.16375" xlink:href="#m59593037a4" y="63.774515"/>
      </g>
     </g>
     <g id="text_10">
      <!-- $\mathdefault{10^{-1}}$ -->
      <g style="fill:#262626;" transform="translate(22.81375 67.953655)scale(0.11 -0.11)">
       <use transform="translate(0 0.684375)" xlink:href="#DejaVuSans-49"/>
       <use transform="translate(63.623047 0.684375)" xlink:href="#DejaVuSans-48"/>
       <use transform="translate(128.203125 38.965625)scale(0.7)" xlink:href="#DejaVuSans-8722"/>
       <use transform="translate(186.855469 38.965625)scale(0.7)" xlink:href="#DejaVuSans-49"/>
      </g>
     </g>
    </g>
    <g id="ytick_5">
     <g id="line2d_45">
      <g>
       <use style="fill:#262626;stroke:#262626;stroke-width:1.25;" x="58.16375" xlink:href="#m59593037a4" y="25.19497"/>
      </g>
     </g>
     <g id="text_11">
      <!-- $\mathdefault{10^{0}}$ -->
      <g style="fill:#262626;" transform="translate(29.30375 29.374111)scale(0.11 -0.11)">
       <use transform="translate(0 0.765625)" xlink:href="#DejaVuSans-49"/>
       <use transform="translate(63.623047 0.765625)" xlink:href="#DejaVuSans-48"/>
       <use transform="translate(128.203125 39.046875)scale(0.7)" xlink:href="#DejaVuSans-48"/>
      </g>
     </g>
    </g>
    <g id="ytick_6">
     <g id="line2d_46">
      <defs>
       <path d="M 0 0 
L -4 0 
" id="m3e81f71322" style="stroke:#262626;"/>
      </defs>
      <g>
       <use style="fill:#262626;stroke:#262626;" x="58.16375" xlink:href="#m3e81f71322" y="206.479093"/>
      </g>
     </g>
    </g>
    <g id="ytick_7">
     <g id="line2d_47">
      <g>
       <use style="fill:#262626;stroke:#262626;" x="58.16375" xlink:href="#m3e81f71322" y="199.685572"/>
      </g>
     </g>
    </g>
    <g id="ytick_8">
     <g id="line2d_48">
      <g>
       <use style="fill:#262626;stroke:#262626;" x="58.16375" xlink:href="#m3e81f71322" y="194.865492"/>
      </g>
     </g>
    </g>
    <g id="ytick_9">
     <g id="line2d_49">
      <g>
       <use style="fill:#262626;stroke:#262626;" x="58.16375" xlink:href="#m3e81f71322" y="191.126748"/>
      </g>
     </g>
    </g>
    <g id="ytick_10">
     <g id="line2d_50">
      <g>
       <use style="fill:#262626;stroke:#262626;" x="58.16375" xlink:href="#m3e81f71322" y="188.071972"/>
      </g>
     </g>
    </g>
    <g id="ytick_11">
     <g id="line2d_51">
      <g>
       <use style="fill:#262626;stroke:#262626;" x="58.16375" xlink:href="#m3e81f71322" y="185.489195"/>
      </g>
     </g>
    </g>
    <g id="ytick_12">
     <g id="line2d_52">
      <g>
       <use style="fill:#262626;stroke:#262626;" x="58.16375" xlink:href="#m3e81f71322" y="183.251892"/>
      </g>
     </g>
    </g>
    <g id="ytick_13">
     <g id="line2d_53">
      <g>
       <use style="fill:#262626;stroke:#262626;" x="58.16375" xlink:href="#m3e81f71322" y="181.278451"/>
      </g>
     </g>
    </g>
    <g id="ytick_14">
     <g id="line2d_54">
      <g>
       <use style="fill:#262626;stroke:#262626;" x="58.16375" xlink:href="#m3e81f71322" y="167.899548"/>
      </g>
     </g>
    </g>
    <g id="ytick_15">
     <g id="line2d_55">
      <g>
       <use style="fill:#262626;stroke:#262626;" x="58.16375" xlink:href="#m3e81f71322" y="161.106027"/>
      </g>
     </g>
    </g>
    <g id="ytick_16">
     <g id="line2d_56">
      <g>
       <use style="fill:#262626;stroke:#262626;" x="58.16375" xlink:href="#m3e81f71322" y="156.285948"/>
      </g>
     </g>
    </g>
    <g id="ytick_17">
     <g id="line2d_57">
      <g>
       <use style="fill:#262626;stroke:#262626;" x="58.16375" xlink:href="#m3e81f71322" y="152.547204"/>
      </g>
     </g>
    </g>
    <g id="ytick_18">
     <g id="line2d_58">
      <g>
       <use style="fill:#262626;stroke:#262626;" x="58.16375" xlink:href="#m3e81f71322" y="149.492427"/>
      </g>
     </g>
    </g>
    <g id="ytick_19">
     <g id="line2d_59">
      <g>
       <use style="fill:#262626;stroke:#262626;" x="58.16375" xlink:href="#m3e81f71322" y="146.909651"/>
      </g>
     </g>
    </g>
    <g id="ytick_20">
     <g id="line2d_60">
      <g>
       <use style="fill:#262626;stroke:#262626;" x="58.16375" xlink:href="#m3e81f71322" y="144.672348"/>
      </g>
     </g>
    </g>
    <g id="ytick_21">
     <g id="line2d_61">
      <g>
       <use style="fill:#262626;stroke:#262626;" x="58.16375" xlink:href="#m3e81f71322" y="142.698907"/>
      </g>
     </g>
    </g>
    <g id="ytick_22">
     <g id="line2d_62">
      <g>
       <use style="fill:#262626;stroke:#262626;" x="58.16375" xlink:href="#m3e81f71322" y="129.320004"/>
      </g>
     </g>
    </g>
    <g id="ytick_23">
     <g id="line2d_63">
      <g>
       <use style="fill:#262626;stroke:#262626;" x="58.16375" xlink:href="#m3e81f71322" y="122.526483"/>
      </g>
     </g>
    </g>
    <g id="ytick_24">
     <g id="line2d_64">
      <g>
       <use style="fill:#262626;stroke:#262626;" x="58.16375" xlink:href="#m3e81f71322" y="117.706403"/>
      </g>
     </g>
    </g>
    <g id="ytick_25">
     <g id="line2d_65">
      <g>
       <use style="fill:#262626;stroke:#262626;" x="58.16375" xlink:href="#m3e81f71322" y="113.967659"/>
      </g>
     </g>
    </g>
    <g id="ytick_26">
     <g id="line2d_66">
      <g>
       <use style="fill:#262626;stroke:#262626;" x="58.16375" xlink:href="#m3e81f71322" y="110.912883"/>
      </g>
     </g>
    </g>
    <g id="ytick_27">
     <g id="line2d_67">
      <g>
       <use style="fill:#262626;stroke:#262626;" x="58.16375" xlink:href="#m3e81f71322" y="108.330106"/>
      </g>
     </g>
    </g>
    <g id="ytick_28">
     <g id="line2d_68">
      <g>
       <use style="fill:#262626;stroke:#262626;" x="58.16375" xlink:href="#m3e81f71322" y="106.092803"/>
      </g>
     </g>
    </g>
    <g id="ytick_29">
     <g id="line2d_69">
      <g>
       <use style="fill:#262626;stroke:#262626;" x="58.16375" xlink:href="#m3e81f71322" y="104.119362"/>
      </g>
     </g>
    </g>
    <g id="ytick_30">
     <g id="line2d_70">
      <g>
       <use style="fill:#262626;stroke:#262626;" x="58.16375" xlink:href="#m3e81f71322" y="90.740459"/>
      </g>
     </g>
    </g>
    <g id="ytick_31">
     <g id="line2d_71">
      <g>
       <use style="fill:#262626;stroke:#262626;" x="58.16375" xlink:href="#m3e81f71322" y="83.946939"/>
      </g>
     </g>
    </g>
    <g id="ytick_32">
     <g id="line2d_72">
      <g>
       <use style="fill:#262626;stroke:#262626;" x="58.16375" xlink:href="#m3e81f71322" y="79.126859"/>
      </g>
     </g>
    </g>
    <g id="ytick_33">
     <g id="line2d_73">
      <g>
       <use style="fill:#262626;stroke:#262626;" x="58.16375" xlink:href="#m3e81f71322" y="75.388115"/>
      </g>
     </g>
    </g>
    <g id="ytick_34">
     <g id="line2d_74">
      <g>
       <use style="fill:#262626;stroke:#262626;" x="58.16375" xlink:href="#m3e81f71322" y="72.333338"/>
      </g>
     </g>
    </g>
    <g id="ytick_35">
     <g id="line2d_75">
      <g>
       <use style="fill:#262626;stroke:#262626;" x="58.16375" xlink:href="#m3e81f71322" y="69.750562"/>
      </g>
     </g>
    </g>
    <g id="ytick_36">
     <g id="line2d_76">
      <g>
       <use style="fill:#262626;stroke:#262626;" x="58.16375" xlink:href="#m3e81f71322" y="67.513259"/>
      </g>
     </g>
    </g>
    <g id="ytick_37">
     <g id="line2d_77">
      <g>
       <use style="fill:#262626;stroke:#262626;" x="58.16375" xlink:href="#m3e81f71322" y="65.539818"/>
      </g>
     </g>
    </g>
    <g id="ytick_38">
     <g id="line2d_78">
      <g>
       <use style="fill:#262626;stroke:#262626;" x="58.16375" xlink:href="#m3e81f71322" y="52.160915"/>
      </g>
     </g>
    </g>
    <g id="ytick_39">
     <g id="line2d_79">
      <g>
       <use style="fill:#262626;stroke:#262626;" x="58.16375" xlink:href="#m3e81f71322" y="45.367394"/>
      </g>
     </g>
    </g>
    <g id="ytick_40">
     <g id="line2d_80">
      <g>
       <use style="fill:#262626;stroke:#262626;" x="58.16375" xlink:href="#m3e81f71322" y="40.547315"/>
      </g>
     </g>
    </g>
    <g id="ytick_41">
     <g id="line2d_81">
      <g>
       <use style="fill:#262626;stroke:#262626;" x="58.16375" xlink:href="#m3e81f71322" y="36.80857"/>
      </g>
     </g>
    </g>
    <g id="ytick_42">
     <g id="line2d_82">
      <g>
       <use style="fill:#262626;stroke:#262626;" x="58.16375" xlink:href="#m3e81f71322" y="33.753794"/>
      </g>
     </g>
    </g>
    <g id="ytick_43">
     <g id="line2d_83">
      <g>
       <use style="fill:#262626;stroke:#262626;" x="58.16375" xlink:href="#m3e81f71322" y="31.171017"/>
      </g>
     </g>
    </g>
    <g id="ytick_44">
     <g id="line2d_84">
      <g>
       <use style="fill:#262626;stroke:#262626;" x="58.16375" xlink:href="#m3e81f71322" y="28.933714"/>
      </g>
     </g>
    </g>
    <g id="ytick_45">
     <g id="line2d_85">
      <g>
       <use style="fill:#262626;stroke:#262626;" x="58.16375" xlink:href="#m3e81f71322" y="26.960273"/>
      </g>
     </g>
    </g>
    <g id="text_12">
     <!-- Time (sec) -->
     <g style="fill:#262626;" transform="translate(16.318125 148.83375)rotate(-90)scale(0.12 -0.12)">
      <defs>
       <path d="M -0.296875 72.90625 
L 61.375 72.90625 
L 61.375 64.59375 
L 35.5 64.59375 
L 35.5 0 
L 25.59375 0 
L 25.59375 64.59375 
L -0.296875 64.59375 
z
" id="DejaVuSans-84"/>
       <path d="M 52 44.1875 
Q 55.375 50.25 60.0625 53.125 
Q 64.75 56 71.09375 56 
Q 79.640625 56 84.28125 50.015625 
Q 88.921875 44.046875 88.921875 33.015625 
L 88.921875 0 
L 79.890625 0 
L 79.890625 32.71875 
Q 79.890625 40.578125 77.09375 44.375 
Q 74.3125 48.1875 68.609375 48.1875 
Q 61.625 48.1875 57.5625 43.546875 
Q 53.515625 38.921875 53.515625 30.90625 
L 53.515625 0 
L 44.484375 0 
L 44.484375 32.71875 
Q 44.484375 40.625 41.703125 44.40625 
Q 38.921875 48.1875 33.109375 48.1875 
Q 26.21875 48.1875 22.15625 43.53125 
Q 18.109375 38.875 18.109375 30.90625 
L 18.109375 0 
L 9.078125 0 
L 9.078125 54.6875 
L 18.109375 54.6875 
L 18.109375 46.1875 
Q 21.1875 51.21875 25.484375 53.609375 
Q 29.78125 56 35.6875 56 
Q 41.65625 56 45.828125 52.96875 
Q 50 49.953125 52 44.1875 
z
" id="DejaVuSans-109"/>
       <path d="M 31 75.875 
Q 24.46875 64.65625 21.28125 53.65625 
Q 18.109375 42.671875 18.109375 31.390625 
Q 18.109375 20.125 21.3125 9.0625 
Q 24.515625 -2 31 -13.1875 
L 23.1875 -13.1875 
Q 15.875 -1.703125 12.234375 9.375 
Q 8.59375 20.453125 8.59375 31.390625 
Q 8.59375 42.28125 12.203125 53.3125 
Q 15.828125 64.359375 23.1875 75.875 
z
" id="DejaVuSans-40"/>
       <path d="M 48.78125 52.59375 
L 48.78125 44.1875 
Q 44.96875 46.296875 41.140625 47.34375 
Q 37.3125 48.390625 33.40625 48.390625 
Q 24.65625 48.390625 19.8125 42.84375 
Q 14.984375 37.3125 14.984375 27.296875 
Q 14.984375 17.28125 19.8125 11.734375 
Q 24.65625 6.203125 33.40625 6.203125 
Q 37.3125 6.203125 41.140625 7.25 
Q 44.96875 8.296875 48.78125 10.40625 
L 48.78125 2.09375 
Q 45.015625 0.34375 40.984375 -0.53125 
Q 36.96875 -1.421875 32.421875 -1.421875 
Q 20.0625 -1.421875 12.78125 6.34375 
Q 5.515625 14.109375 5.515625 27.296875 
Q 5.515625 40.671875 12.859375 48.328125 
Q 20.21875 56 33.015625 56 
Q 37.15625 56 41.109375 55.140625 
Q 45.0625 54.296875 48.78125 52.59375 
z
" id="DejaVuSans-99"/>
       <path d="M 8.015625 75.875 
L 15.828125 75.875 
Q 23.140625 64.359375 26.78125 53.3125 
Q 30.421875 42.28125 30.421875 31.390625 
Q 30.421875 20.453125 26.78125 9.375 
Q 23.140625 -1.703125 15.828125 -13.1875 
L 8.015625 -13.1875 
Q 14.5 -2 17.703125 9.0625 
Q 20.90625 20.125 20.90625 31.390625 
Q 20.90625 42.671875 17.703125 53.65625 
Q 14.5 64.65625 8.015625 75.875 
z
" id="DejaVuSans-41"/>
      </defs>
      <use xlink:href="#DejaVuSans-84"/>
      <use x="57.958984" xlink:href="#DejaVuSans-105"/>
      <use x="85.742188" xlink:href="#DejaVuSans-109"/>
      <use x="183.154297" xlink:href="#DejaVuSans-101"/>
      <use x="244.677734" xlink:href="#DejaVuSans-32"/>
      <use x="276.464844" xlink:href="#DejaVuSans-40"/>
      <use x="315.478516" xlink:href="#DejaVuSans-115"/>
      <use x="367.578125" xlink:href="#DejaVuSans-101"/>
      <use x="429.101562" xlink:href="#DejaVuSans-99"/>
      <use x="484.082031" xlink:href="#DejaVuSans-41"/>
     </g>
    </g>
   </g>
   <g id="PolyCollection_1">
    <defs>
     <path d="M 69.692676 -149.545701 
L 69.692676 -147.040904 
L 95.289473 -144.596645 
L 120.923818 -149.200311 
L 146.547128 -153.239702 
L 172.168496 -145.388133 
L 197.791841 -143.878676 
L 223.411205 -147.334214 
L 249.031331 -158.541644 
L 274.651328 -172.025663 
L 300.271188 -189.558509 
L 300.271188 -190.561326 
L 300.271188 -190.561326 
L 274.651328 -173.614817 
L 249.031331 -160.349741 
L 223.411205 -149.074387 
L 197.791841 -145.052179 
L 172.168496 -147.521211 
L 146.547128 -157.825357 
L 120.923818 -152.756785 
L 95.289473 -147.345832 
L 69.692676 -149.545701 
z
" id="md897e8ebba" style="stroke:#1f77b4;stroke-opacity:0.2;"/>
    </defs>
    <g clip-path="url(#p40cfbdf5bb)">
     <use style="fill:#1f77b4;fill-opacity:0.2;stroke:#1f77b4;stroke-opacity:0.2;" x="0" xlink:href="#md897e8ebba" y="290.382125"/>
    </g>
   </g>
   <g id="PolyCollection_2">
    <defs>
     <path d="M 69.692676 -87.24887 
L 69.692676 -86.452182 
L 95.289473 -101.747964 
L 120.923818 -117.330991 
L 146.547128 -134.692638 
L 172.168496 -151.758427 
L 197.791841 -169.091448 
L 223.411205 -186.367108 
L 249.031331 -203.767606 
L 274.651328 -222.136818 
L 300.271188 -238.350479 
L 300.271188 -241.253024 
L 300.271188 -241.253024 
L 274.651328 -224.399578 
L 249.031331 -204.129107 
L 223.411205 -186.491846 
L 197.791841 -169.491572 
L 172.168496 -152.434237 
L 146.547128 -135.114863 
L 120.923818 -117.978684 
L 95.289473 -102.138193 
L 69.692676 -87.24887 
z
" id="mb0c5a564c5" style="stroke:#ff7f0e;stroke-opacity:0.2;"/>
    </defs>
    <g clip-path="url(#p40cfbdf5bb)">
     <use style="fill:#ff7f0e;fill-opacity:0.2;stroke:#ff7f0e;stroke-opacity:0.2;" x="0" xlink:href="#mb0c5a564c5" y="290.382125"/>
    </g>
   </g>
   <g id="PolyCollection_3">
    <defs>
     <path d="M 69.692676 -100.747021 
L 69.692676 -99.551999 
L 95.289473 -114.257054 
L 120.923818 -131.177736 
L 146.547128 -147.891243 
L 172.168496 -166.616074 
L 197.791841 -183.436218 
L 223.411205 -203.432895 
L 249.031331 -224.755124 
L 274.651328 -241.684109 
L 300.271188 -259.132595 
L 300.271188 -259.415818 
L 300.271188 -259.415818 
L 274.651328 -241.872201 
L 249.031331 -225.037964 
L 223.411205 -203.68197 
L 197.791841 -183.786899 
L 172.168496 -166.881262 
L 146.547128 -148.696682 
L 120.923818 -134.73424 
L 95.289473 -114.731386 
L 69.692676 -100.747021 
z
" id="m8d72ba6ac7" style="stroke:#2ca02c;stroke-opacity:0.2;"/>
    </defs>
    <g clip-path="url(#p40cfbdf5bb)">
     <use style="fill:#2ca02c;fill-opacity:0.2;stroke:#2ca02c;stroke-opacity:0.2;" x="0" xlink:href="#m8d72ba6ac7" y="290.382125"/>
    </g>
   </g>
   <g id="PolyCollection_4">
    <defs>
     <path d="M 69.692676 -111.456045 
L 69.692676 -110.230404 
L 95.289473 -113.508051 
L 120.923818 -118.335502 
L 146.547128 -126.416417 
L 172.168496 -136.764929 
L 197.791841 -148.249562 
L 223.411205 -162.757947 
L 249.031331 -179.884384 
L 274.651328 -198.035279 
L 300.271188 -215.980702 
L 300.271188 -216.210569 
L 300.271188 -216.210569 
L 274.651328 -198.336828 
L 249.031331 -180.112684 
L 223.411205 -162.98547 
L 197.791841 -149.227152 
L 172.168496 -137.577792 
L 146.547128 -127.258043 
L 120.923818 -118.79092 
L 95.289473 -117.592962 
L 69.692676 -111.456045 
z
" id="m0e9d8b793e" style="stroke:#d62728;stroke-opacity:0.2;"/>
    </defs>
    <g clip-path="url(#p40cfbdf5bb)">
     <use style="fill:#d62728;fill-opacity:0.2;stroke:#d62728;stroke-opacity:0.2;" x="0" xlink:href="#m0e9d8b793e" y="290.382125"/>
    </g>
   </g>
   <g id="PolyCollection_5">
    <defs>
     <path d="M 69.692676 -92.028671 
L 69.692676 -89.098558 
L 95.289473 -92.605751 
L 120.923818 -99.198854 
L 146.547128 -110.16598 
L 172.168496 -124.466486 
L 197.791841 -140.727661 
L 223.411205 -157.967599 
L 249.031331 -175.706164 
L 274.651328 -194.200358 
L 300.271188 -217.842354 
L 300.271188 -218.110839 
L 300.271188 -218.110839 
L 274.651328 -194.851478 
L 249.031331 -175.902548 
L 223.411205 -158.24579 
L 197.791841 -141.028397 
L 172.168496 -124.835948 
L 146.547128 -111.086192 
L 120.923818 -100.128183 
L 95.289473 -94.776427 
L 69.692676 -92.028671 
z
" id="mecd8714ede" style="stroke:#9467bd;stroke-opacity:0.2;"/>
    </defs>
    <g clip-path="url(#p40cfbdf5bb)">
     <use style="fill:#9467bd;fill-opacity:0.2;stroke:#9467bd;stroke-opacity:0.2;" x="0" xlink:href="#mecd8714ede" y="290.382125"/>
    </g>
   </g>
   <g id="PolyCollection_6">
    <defs>
     <path d="M 69.692676 -120.724101 
L 69.692676 -118.868492 
L 95.289473 -120.009274 
L 120.923818 -121.934801 
L 146.547128 -125.929865 
L 172.168496 -134.250006 
L 197.791841 -146.468191 
L 223.411205 -162.276273 
L 249.031331 -179.731174 
L 274.651328 -198.131328 
L 300.271188 -219.379594 
L 300.271188 -219.625132 
L 300.271188 -219.625132 
L 274.651328 -198.849884 
L 249.031331 -180.389911 
L 223.411205 -163.123255 
L 197.791841 -147.234836 
L 172.168496 -134.490314 
L 146.547128 -126.401974 
L 120.923818 -122.453064 
L 95.289473 -120.613764 
L 69.692676 -120.724101 
z
" id="m389cc7910d" style="stroke:#8c564b;stroke-opacity:0.2;"/>
    </defs>
    <g clip-path="url(#p40cfbdf5bb)">
     <use style="fill:#8c564b;fill-opacity:0.2;stroke:#8c564b;stroke-opacity:0.2;" x="0" xlink:href="#m389cc7910d" y="290.382125"/>
    </g>
   </g>
   <g id="line2d_86">
    <path clip-path="url(#p40cfbdf5bb)" d="M 69.692676 142.102355 
L 95.289473 144.502791 
L 120.923818 139.587791 
L 146.547128 134.847785 
L 172.168496 144.033515 
L 197.791841 145.95789 
L 223.411205 142.276499 
L 249.031331 130.956334 
L 274.651328 117.676722 
L 300.271188 100.361722 
" style="fill:none;stroke:#1f77b4;stroke-linecap:round;stroke-width:1.5;"/>
   </g>
   <g id="line2d_87">
    <path clip-path="url(#p40cfbdf5bb)" d="M 69.692676 203.624507 
L 95.289473 188.47822 
L 120.923818 172.798752 
L 146.547128 155.491732 
L 172.168496 138.330226 
L 197.791841 121.113198 
L 223.411205 103.95435 
L 249.031331 86.447 
L 274.651328 67.134794 
L 300.271188 50.807268 
" style="fill:none;stroke:#ff7f0e;stroke-linecap:round;stroke-width:1.5;"/>
   </g>
   <g id="line2d_88">
    <path clip-path="url(#p40cfbdf5bb)" d="M 69.692676 190.376204 
L 95.289473 175.933051 
L 120.923818 157.55119 
L 146.547128 142.206665 
L 172.168496 123.648931 
L 197.791841 106.798989 
L 223.411205 86.820757 
L 249.031331 65.467676 
L 274.651328 48.602598 
L 300.271188 31.138148 
" style="fill:none;stroke:#2ca02c;stroke-linecap:round;stroke-width:1.5;"/>
   </g>
   <g id="line2d_89">
    <path clip-path="url(#p40cfbdf5bb)" d="M 69.692676 179.660136 
L 95.289473 175.007885 
L 120.923818 171.854128 
L 146.547128 163.546742 
L 172.168496 153.225982 
L 197.791841 141.635538 
L 223.411205 127.513212 
L 249.031331 110.386979 
L 274.651328 92.202533 
L 300.271188 74.29212 
" style="fill:none;stroke:#d62728;stroke-linecap:round;stroke-width:1.5;"/>
   </g>
   <g id="line2d_90">
    <path clip-path="url(#p40cfbdf5bb)" d="M 69.692676 200.088675 
L 95.289473 196.766899 
L 120.923818 190.768581 
L 146.547128 179.762718 
L 172.168496 165.734621 
L 197.791841 149.496575 
L 223.411205 132.262919 
L 249.031331 114.57374 
L 274.651328 95.902726 
L 300.271188 72.414983 
" style="fill:none;stroke:#9467bd;stroke-linecap:round;stroke-width:1.5;"/>
   </g>
   <g id="line2d_91">
    <path clip-path="url(#p40cfbdf5bb)" d="M 69.692676 170.775537 
L 95.289473 170.122324 
L 120.923818 168.222149 
L 146.547128 164.227665 
L 172.168496 156.025614 
L 197.791841 143.623762 
L 223.411205 127.720761 
L 249.031331 110.385621 
L 274.651328 91.966581 
L 300.271188 70.886792 
" style="fill:none;stroke:#8c564b;stroke-linecap:round;stroke-width:1.5;"/>
   </g>
   <g id="line2d_92"/>
   <g id="line2d_93"/>
   <g id="line2d_94"/>
   <g id="line2d_95"/>
   <g id="line2d_96"/>
   <g id="line2d_97"/>
   <g id="patch_3">
    <path d="M 58.16375 212.578125 
L 58.16375 22.318125 
" style="fill:none;stroke:#262626;stroke-linecap:square;stroke-linejoin:miter;stroke-width:1.25;"/>
   </g>
   <g id="patch_4">
    <path d="M 58.16375 212.578125 
L 311.800114 212.578125 
" style="fill:none;stroke:#262626;stroke-linecap:square;stroke-linejoin:miter;stroke-width:1.25;"/>
   </g>
   <g id="text_13">
    <!-- Varying dataset size with 10 groups -->
    <g style="fill:#262626;" transform="translate(77.604432 16.318125)scale(0.12 -0.12)">
     <defs>
      <path d="M 28.609375 0 
L 0.78125 72.90625 
L 11.078125 72.90625 
L 34.1875 11.53125 
L 57.328125 72.90625 
L 67.578125 72.90625 
L 39.796875 0 
z
" id="DejaVuSans-86"/>
      <path d="M 41.109375 46.296875 
Q 39.59375 47.171875 37.8125 47.578125 
Q 36.03125 48 33.890625 48 
Q 26.265625 48 22.1875 43.046875 
Q 18.109375 38.09375 18.109375 28.8125 
L 18.109375 0 
L 9.078125 0 
L 9.078125 54.6875 
L 18.109375 54.6875 
L 18.109375 46.1875 
Q 20.953125 51.171875 25.484375 53.578125 
Q 30.03125 56 36.53125 56 
Q 37.453125 56 38.578125 55.875 
Q 39.703125 55.765625 41.0625 55.515625 
z
" id="DejaVuSans-114"/>
      <path d="M 32.171875 -5.078125 
Q 28.375 -14.84375 24.75 -17.8125 
Q 21.140625 -20.796875 15.09375 -20.796875 
L 7.90625 -20.796875 
L 7.90625 -13.28125 
L 13.1875 -13.28125 
Q 16.890625 -13.28125 18.9375 -11.515625 
Q 21 -9.765625 23.484375 -3.21875 
L 25.09375 0.875 
L 2.984375 54.6875 
L 12.5 54.6875 
L 29.59375 11.921875 
L 46.6875 54.6875 
L 56.203125 54.6875 
z
" id="DejaVuSans-121"/>
      <path d="M 54.890625 33.015625 
L 54.890625 0 
L 45.90625 0 
L 45.90625 32.71875 
Q 45.90625 40.484375 42.875 44.328125 
Q 39.84375 48.1875 33.796875 48.1875 
Q 26.515625 48.1875 22.3125 43.546875 
Q 18.109375 38.921875 18.109375 30.90625 
L 18.109375 0 
L 9.078125 0 
L 9.078125 54.6875 
L 18.109375 54.6875 
L 18.109375 46.1875 
Q 21.34375 51.125 25.703125 53.5625 
Q 30.078125 56 35.796875 56 
Q 45.21875 56 50.046875 50.171875 
Q 54.890625 44.34375 54.890625 33.015625 
z
" id="DejaVuSans-110"/>
      <path d="M 45.40625 27.984375 
Q 45.40625 37.75 41.375 43.109375 
Q 37.359375 48.484375 30.078125 48.484375 
Q 22.859375 48.484375 18.828125 43.109375 
Q 14.796875 37.75 14.796875 27.984375 
Q 14.796875 18.265625 18.828125 12.890625 
Q 22.859375 7.515625 30.078125 7.515625 
Q 37.359375 7.515625 41.375 12.890625 
Q 45.40625 18.265625 45.40625 27.984375 
z
M 54.390625 6.78125 
Q 54.390625 -7.171875 48.1875 -13.984375 
Q 42 -20.796875 29.203125 -20.796875 
Q 24.46875 -20.796875 20.265625 -20.09375 
Q 16.0625 -19.390625 12.109375 -17.921875 
L 12.109375 -9.1875 
Q 16.0625 -11.328125 19.921875 -12.34375 
Q 23.78125 -13.375 27.78125 -13.375 
Q 36.625 -13.375 41.015625 -8.765625 
Q 45.40625 -4.15625 45.40625 5.171875 
L 45.40625 9.625 
Q 42.625 4.78125 38.28125 2.390625 
Q 33.9375 0 27.875 0 
Q 17.828125 0 11.671875 7.65625 
Q 5.515625 15.328125 5.515625 27.984375 
Q 5.515625 40.671875 11.671875 48.328125 
Q 17.828125 56 27.875 56 
Q 33.9375 56 38.28125 53.609375 
Q 42.625 51.21875 45.40625 46.390625 
L 45.40625 54.6875 
L 54.390625 54.6875 
z
" id="DejaVuSans-103"/>
      <path d="M 45.40625 46.390625 
L 45.40625 75.984375 
L 54.390625 75.984375 
L 54.390625 0 
L 45.40625 0 
L 45.40625 8.203125 
Q 42.578125 3.328125 38.25 0.953125 
Q 33.9375 -1.421875 27.875 -1.421875 
Q 17.96875 -1.421875 11.734375 6.484375 
Q 5.515625 14.40625 5.515625 27.296875 
Q 5.515625 40.1875 11.734375 48.09375 
Q 17.96875 56 27.875 56 
Q 33.9375 56 38.25 53.625 
Q 42.578125 51.265625 45.40625 46.390625 
z
M 14.796875 27.296875 
Q 14.796875 17.390625 18.875 11.75 
Q 22.953125 6.109375 30.078125 6.109375 
Q 37.203125 6.109375 41.296875 11.75 
Q 45.40625 17.390625 45.40625 27.296875 
Q 45.40625 37.203125 41.296875 42.84375 
Q 37.203125 48.484375 30.078125 48.484375 
Q 22.953125 48.484375 18.875 42.84375 
Q 14.796875 37.203125 14.796875 27.296875 
z
" id="DejaVuSans-100"/>
      <path d="M 4.203125 54.6875 
L 13.1875 54.6875 
L 24.421875 12.015625 
L 35.59375 54.6875 
L 46.1875 54.6875 
L 57.421875 12.015625 
L 68.609375 54.6875 
L 77.59375 54.6875 
L 63.28125 0 
L 52.6875 0 
L 40.921875 44.828125 
L 29.109375 0 
L 18.5 0 
z
" id="DejaVuSans-119"/>
      <path d="M 54.890625 33.015625 
L 54.890625 0 
L 45.90625 0 
L 45.90625 32.71875 
Q 45.90625 40.484375 42.875 44.328125 
Q 39.84375 48.1875 33.796875 48.1875 
Q 26.515625 48.1875 22.3125 43.546875 
Q 18.109375 38.921875 18.109375 30.90625 
L 18.109375 0 
L 9.078125 0 
L 9.078125 75.984375 
L 18.109375 75.984375 
L 18.109375 46.1875 
Q 21.34375 51.125 25.703125 53.5625 
Q 30.078125 56 35.796875 56 
Q 45.21875 56 50.046875 50.171875 
Q 54.890625 44.34375 54.890625 33.015625 
z
" id="DejaVuSans-104"/>
      <path d="M 8.5 21.578125 
L 8.5 54.6875 
L 17.484375 54.6875 
L 17.484375 21.921875 
Q 17.484375 14.15625 20.5 10.265625 
Q 23.53125 6.390625 29.59375 6.390625 
Q 36.859375 6.390625 41.078125 11.03125 
Q 45.3125 15.671875 45.3125 23.6875 
L 45.3125 54.6875 
L 54.296875 54.6875 
L 54.296875 0 
L 45.3125 0 
L 45.3125 8.40625 
Q 42.046875 3.421875 37.71875 1 
Q 33.40625 -1.421875 27.6875 -1.421875 
Q 18.265625 -1.421875 13.375 4.4375 
Q 8.5 10.296875 8.5 21.578125 
z
M 31.109375 56 
z
" id="DejaVuSans-117"/>
      <path d="M 18.109375 8.203125 
L 18.109375 -20.796875 
L 9.078125 -20.796875 
L 9.078125 54.6875 
L 18.109375 54.6875 
L 18.109375 46.390625 
Q 20.953125 51.265625 25.265625 53.625 
Q 29.59375 56 35.59375 56 
Q 45.5625 56 51.78125 48.09375 
Q 58.015625 40.1875 58.015625 27.296875 
Q 58.015625 14.40625 51.78125 6.484375 
Q 45.5625 -1.421875 35.59375 -1.421875 
Q 29.59375 -1.421875 25.265625 0.953125 
Q 20.953125 3.328125 18.109375 8.203125 
z
M 48.6875 27.296875 
Q 48.6875 37.203125 44.609375 42.84375 
Q 40.53125 48.484375 33.40625 48.484375 
Q 26.265625 48.484375 22.1875 42.84375 
Q 18.109375 37.203125 18.109375 27.296875 
Q 18.109375 17.390625 22.1875 11.75 
Q 26.265625 6.109375 33.40625 6.109375 
Q 40.53125 6.109375 44.609375 11.75 
Q 48.6875 17.390625 48.6875 27.296875 
z
" id="DejaVuSans-112"/>
     </defs>
     <use xlink:href="#DejaVuSans-86"/>
     <use x="60.658203" xlink:href="#DejaVuSans-97"/>
     <use x="121.9375" xlink:href="#DejaVuSans-114"/>
     <use x="163.050781" xlink:href="#DejaVuSans-121"/>
     <use x="222.230469" xlink:href="#DejaVuSans-105"/>
     <use x="250.013672" xlink:href="#DejaVuSans-110"/>
     <use x="313.392578" xlink:href="#DejaVuSans-103"/>
     <use x="376.869141" xlink:href="#DejaVuSans-32"/>
     <use x="408.65625" xlink:href="#DejaVuSans-100"/>
     <use x="472.132812" xlink:href="#DejaVuSans-97"/>
     <use x="533.412109" xlink:href="#DejaVuSans-116"/>
     <use x="572.621094" xlink:href="#DejaVuSans-97"/>
     <use x="633.900391" xlink:href="#DejaVuSans-115"/>
     <use x="686" xlink:href="#DejaVuSans-101"/>
     <use x="747.523438" xlink:href="#DejaVuSans-116"/>
     <use x="786.732422" xlink:href="#DejaVuSans-32"/>
     <use x="818.519531" xlink:href="#DejaVuSans-115"/>
     <use x="870.619141" xlink:href="#DejaVuSans-105"/>
     <use x="898.402344" xlink:href="#DejaVuSans-122"/>
     <use x="950.892578" xlink:href="#DejaVuSans-101"/>
     <use x="1012.416016" xlink:href="#DejaVuSans-32"/>
     <use x="1044.203125" xlink:href="#DejaVuSans-119"/>
     <use x="1125.990234" xlink:href="#DejaVuSans-105"/>
     <use x="1153.773438" xlink:href="#DejaVuSans-116"/>
     <use x="1192.982422" xlink:href="#DejaVuSans-104"/>
     <use x="1256.361328" xlink:href="#DejaVuSans-32"/>
     <use x="1288.148438" xlink:href="#DejaVuSans-49"/>
     <use x="1351.771484" xlink:href="#DejaVuSans-48"/>
     <use x="1415.394531" xlink:href="#DejaVuSans-32"/>
     <use x="1447.181641" xlink:href="#DejaVuSans-103"/>
     <use x="1510.658203" xlink:href="#DejaVuSans-114"/>
     <use x="1549.521484" xlink:href="#DejaVuSans-111"/>
     <use x="1610.703125" xlink:href="#DejaVuSans-117"/>
     <use x="1674.082031" xlink:href="#DejaVuSans-112"/>
     <use x="1737.558594" xlink:href="#DejaVuSans-115"/>
    </g>
   </g>
  </g>
  <g id="axes_2">
   <g id="patch_5">
    <path d="M 362.527386 212.578125 
L 616.16375 212.578125 
L 616.16375 22.318125 
L 362.527386 22.318125 
z
" style="fill:#ffffff;"/>
   </g>
   <g id="matplotlib.axis_3">
    <g id="xtick_41">
     <g id="line2d_98">
      <g>
       <use style="fill:#262626;stroke:#262626;stroke-width:1.25;" x="374.056312" xlink:href="#m88b73ac6ad" y="212.578125"/>
      </g>
     </g>
     <g id="text_14">
      <!-- $\mathdefault{10^{0}}$ -->
      <g style="fill:#262626;" transform="translate(364.376312 230.436406)scale(0.11 -0.11)">
       <use transform="translate(0 0.765625)" xlink:href="#DejaVuSans-49"/>
       <use transform="translate(63.623047 0.765625)" xlink:href="#DejaVuSans-48"/>
       <use transform="translate(128.203125 39.046875)scale(0.7)" xlink:href="#DejaVuSans-48"/>
      </g>
     </g>
    </g>
    <g id="xtick_42">
     <g id="line2d_99">
      <g>
       <use style="fill:#262626;stroke:#262626;stroke-width:1.25;" x="431.70094" xlink:href="#m88b73ac6ad" y="212.578125"/>
      </g>
     </g>
     <g id="text_15">
      <!-- $\mathdefault{10^{1}}$ -->
      <g style="fill:#262626;" transform="translate(422.02094 230.436406)scale(0.11 -0.11)">
       <use transform="translate(0 0.684375)" xlink:href="#DejaVuSans-49"/>
       <use transform="translate(63.623047 0.684375)" xlink:href="#DejaVuSans-48"/>
       <use transform="translate(128.203125 38.965625)scale(0.7)" xlink:href="#DejaVuSans-49"/>
      </g>
     </g>
    </g>
    <g id="xtick_43">
     <g id="line2d_100">
      <g>
       <use style="fill:#262626;stroke:#262626;stroke-width:1.25;" x="489.345568" xlink:href="#m88b73ac6ad" y="212.578125"/>
      </g>
     </g>
     <g id="text_16">
      <!-- $\mathdefault{10^{2}}$ -->
      <g style="fill:#262626;" transform="translate(479.665568 230.436406)scale(0.11 -0.11)">
       <use transform="translate(0 0.765625)" xlink:href="#DejaVuSans-49"/>
       <use transform="translate(63.623047 0.765625)" xlink:href="#DejaVuSans-48"/>
       <use transform="translate(128.203125 39.046875)scale(0.7)" xlink:href="#DejaVuSans-50"/>
      </g>
     </g>
    </g>
    <g id="xtick_44">
     <g id="line2d_101">
      <g>
       <use style="fill:#262626;stroke:#262626;stroke-width:1.25;" x="546.990196" xlink:href="#m88b73ac6ad" y="212.578125"/>
      </g>
     </g>
     <g id="text_17">
      <!-- $\mathdefault{10^{3}}$ -->
      <g style="fill:#262626;" transform="translate(537.310196 230.436406)scale(0.11 -0.11)">
       <use transform="translate(0 0.765625)" xlink:href="#DejaVuSans-49"/>
       <use transform="translate(63.623047 0.765625)" xlink:href="#DejaVuSans-48"/>
       <use transform="translate(128.203125 39.046875)scale(0.7)" xlink:href="#DejaVuSans-51"/>
      </g>
     </g>
    </g>
    <g id="xtick_45">
     <g id="line2d_102">
      <g>
       <use style="fill:#262626;stroke:#262626;stroke-width:1.25;" x="604.634824" xlink:href="#m88b73ac6ad" y="212.578125"/>
      </g>
     </g>
     <g id="text_18">
      <!-- $\mathdefault{10^{4}}$ -->
      <g style="fill:#262626;" transform="translate(594.954824 230.436406)scale(0.11 -0.11)">
       <use transform="translate(0 0.684375)" xlink:href="#DejaVuSans-49"/>
       <use transform="translate(63.623047 0.684375)" xlink:href="#DejaVuSans-48"/>
       <use transform="translate(128.203125 38.965625)scale(0.7)" xlink:href="#DejaVuSans-52"/>
      </g>
     </g>
    </g>
    <g id="xtick_46">
     <g id="line2d_103">
      <g>
       <use style="fill:#262626;stroke:#262626;" x="365.127046" xlink:href="#m6de4cf97f0" y="212.578125"/>
      </g>
     </g>
    </g>
    <g id="xtick_47">
     <g id="line2d_104">
      <g>
       <use style="fill:#262626;stroke:#262626;" x="368.46997" xlink:href="#m6de4cf97f0" y="212.578125"/>
      </g>
     </g>
    </g>
    <g id="xtick_48">
     <g id="line2d_105">
      <g>
       <use style="fill:#262626;stroke:#262626;" x="371.418638" xlink:href="#m6de4cf97f0" y="212.578125"/>
      </g>
     </g>
    </g>
    <g id="xtick_49">
     <g id="line2d_106">
      <g>
       <use style="fill:#262626;stroke:#262626;" x="391.409074" xlink:href="#m6de4cf97f0" y="212.578125"/>
      </g>
     </g>
    </g>
    <g id="xtick_50">
     <g id="line2d_107">
      <g>
       <use style="fill:#262626;stroke:#262626;" x="401.559789" xlink:href="#m6de4cf97f0" y="212.578125"/>
      </g>
     </g>
    </g>
    <g id="xtick_51">
     <g id="line2d_108">
      <g>
       <use style="fill:#262626;stroke:#262626;" x="408.761836" xlink:href="#m6de4cf97f0" y="212.578125"/>
      </g>
     </g>
    </g>
    <g id="xtick_52">
     <g id="line2d_109">
      <g>
       <use style="fill:#262626;stroke:#262626;" x="414.348178" xlink:href="#m6de4cf97f0" y="212.578125"/>
      </g>
     </g>
    </g>
    <g id="xtick_53">
     <g id="line2d_110">
      <g>
       <use style="fill:#262626;stroke:#262626;" x="418.912551" xlink:href="#m6de4cf97f0" y="212.578125"/>
      </g>
     </g>
    </g>
    <g id="xtick_54">
     <g id="line2d_111">
      <g>
       <use style="fill:#262626;stroke:#262626;" x="422.771674" xlink:href="#m6de4cf97f0" y="212.578125"/>
      </g>
     </g>
    </g>
    <g id="xtick_55">
     <g id="line2d_112">
      <g>
       <use style="fill:#262626;stroke:#262626;" x="426.114598" xlink:href="#m6de4cf97f0" y="212.578125"/>
      </g>
     </g>
    </g>
    <g id="xtick_56">
     <g id="line2d_113">
      <g>
       <use style="fill:#262626;stroke:#262626;" x="429.063267" xlink:href="#m6de4cf97f0" y="212.578125"/>
      </g>
     </g>
    </g>
    <g id="xtick_57">
     <g id="line2d_114">
      <g>
       <use style="fill:#262626;stroke:#262626;" x="449.053702" xlink:href="#m6de4cf97f0" y="212.578125"/>
      </g>
     </g>
    </g>
    <g id="xtick_58">
     <g id="line2d_115">
      <g>
       <use style="fill:#262626;stroke:#262626;" x="459.204417" xlink:href="#m6de4cf97f0" y="212.578125"/>
      </g>
     </g>
    </g>
    <g id="xtick_59">
     <g id="line2d_116">
      <g>
       <use style="fill:#262626;stroke:#262626;" x="466.406464" xlink:href="#m6de4cf97f0" y="212.578125"/>
      </g>
     </g>
    </g>
    <g id="xtick_60">
     <g id="line2d_117">
      <g>
       <use style="fill:#262626;stroke:#262626;" x="471.992806" xlink:href="#m6de4cf97f0" y="212.578125"/>
      </g>
     </g>
    </g>
    <g id="xtick_61">
     <g id="line2d_118">
      <g>
       <use style="fill:#262626;stroke:#262626;" x="476.55718" xlink:href="#m6de4cf97f0" y="212.578125"/>
      </g>
     </g>
    </g>
    <g id="xtick_62">
     <g id="line2d_119">
      <g>
       <use style="fill:#262626;stroke:#262626;" x="480.416302" xlink:href="#m6de4cf97f0" y="212.578125"/>
      </g>
     </g>
    </g>
    <g id="xtick_63">
     <g id="line2d_120">
      <g>
       <use style="fill:#262626;stroke:#262626;" x="483.759227" xlink:href="#m6de4cf97f0" y="212.578125"/>
      </g>
     </g>
    </g>
    <g id="xtick_64">
     <g id="line2d_121">
      <g>
       <use style="fill:#262626;stroke:#262626;" x="486.707895" xlink:href="#m6de4cf97f0" y="212.578125"/>
      </g>
     </g>
    </g>
    <g id="xtick_65">
     <g id="line2d_122">
      <g>
       <use style="fill:#262626;stroke:#262626;" x="506.69833" xlink:href="#m6de4cf97f0" y="212.578125"/>
      </g>
     </g>
    </g>
    <g id="xtick_66">
     <g id="line2d_123">
      <g>
       <use style="fill:#262626;stroke:#262626;" x="516.849045" xlink:href="#m6de4cf97f0" y="212.578125"/>
      </g>
     </g>
    </g>
    <g id="xtick_67">
     <g id="line2d_124">
      <g>
       <use style="fill:#262626;stroke:#262626;" x="524.051092" xlink:href="#m6de4cf97f0" y="212.578125"/>
      </g>
     </g>
    </g>
    <g id="xtick_68">
     <g id="line2d_125">
      <g>
       <use style="fill:#262626;stroke:#262626;" x="529.637434" xlink:href="#m6de4cf97f0" y="212.578125"/>
      </g>
     </g>
    </g>
    <g id="xtick_69">
     <g id="line2d_126">
      <g>
       <use style="fill:#262626;stroke:#262626;" x="534.201808" xlink:href="#m6de4cf97f0" y="212.578125"/>
      </g>
     </g>
    </g>
    <g id="xtick_70">
     <g id="line2d_127">
      <g>
       <use style="fill:#262626;stroke:#262626;" x="538.06093" xlink:href="#m6de4cf97f0" y="212.578125"/>
      </g>
     </g>
    </g>
    <g id="xtick_71">
     <g id="line2d_128">
      <g>
       <use style="fill:#262626;stroke:#262626;" x="541.403855" xlink:href="#m6de4cf97f0" y="212.578125"/>
      </g>
     </g>
    </g>
    <g id="xtick_72">
     <g id="line2d_129">
      <g>
       <use style="fill:#262626;stroke:#262626;" x="544.352523" xlink:href="#m6de4cf97f0" y="212.578125"/>
      </g>
     </g>
    </g>
    <g id="xtick_73">
     <g id="line2d_130">
      <g>
       <use style="fill:#262626;stroke:#262626;" x="564.342958" xlink:href="#m6de4cf97f0" y="212.578125"/>
      </g>
     </g>
    </g>
    <g id="xtick_74">
     <g id="line2d_131">
      <g>
       <use style="fill:#262626;stroke:#262626;" x="574.493674" xlink:href="#m6de4cf97f0" y="212.578125"/>
      </g>
     </g>
    </g>
    <g id="xtick_75">
     <g id="line2d_132">
      <g>
       <use style="fill:#262626;stroke:#262626;" x="581.695721" xlink:href="#m6de4cf97f0" y="212.578125"/>
      </g>
     </g>
    </g>
    <g id="xtick_76">
     <g id="line2d_133">
      <g>
       <use style="fill:#262626;stroke:#262626;" x="587.282062" xlink:href="#m6de4cf97f0" y="212.578125"/>
      </g>
     </g>
    </g>
    <g id="xtick_77">
     <g id="line2d_134">
      <g>
       <use style="fill:#262626;stroke:#262626;" x="591.846436" xlink:href="#m6de4cf97f0" y="212.578125"/>
      </g>
     </g>
    </g>
    <g id="xtick_78">
     <g id="line2d_135">
      <g>
       <use style="fill:#262626;stroke:#262626;" x="595.705559" xlink:href="#m6de4cf97f0" y="212.578125"/>
      </g>
     </g>
    </g>
    <g id="xtick_79">
     <g id="line2d_136">
      <g>
       <use style="fill:#262626;stroke:#262626;" x="599.048483" xlink:href="#m6de4cf97f0" y="212.578125"/>
      </g>
     </g>
    </g>
    <g id="xtick_80">
     <g id="line2d_137">
      <g>
       <use style="fill:#262626;stroke:#262626;" x="601.997151" xlink:href="#m6de4cf97f0" y="212.578125"/>
      </g>
     </g>
    </g>
    <g id="text_19">
     <!-- Number of Groups -->
     <g style="fill:#262626;" transform="translate(434.256193 245.842187)scale(0.12 -0.12)">
      <defs>
       <path d="M 9.8125 72.90625 
L 23.09375 72.90625 
L 55.421875 11.921875 
L 55.421875 72.90625 
L 64.984375 72.90625 
L 64.984375 0 
L 51.703125 0 
L 19.390625 60.984375 
L 19.390625 0 
L 9.8125 0 
z
" id="DejaVuSans-78"/>
       <path d="M 48.6875 27.296875 
Q 48.6875 37.203125 44.609375 42.84375 
Q 40.53125 48.484375 33.40625 48.484375 
Q 26.265625 48.484375 22.1875 42.84375 
Q 18.109375 37.203125 18.109375 27.296875 
Q 18.109375 17.390625 22.1875 11.75 
Q 26.265625 6.109375 33.40625 6.109375 
Q 40.53125 6.109375 44.609375 11.75 
Q 48.6875 17.390625 48.6875 27.296875 
z
M 18.109375 46.390625 
Q 20.953125 51.265625 25.265625 53.625 
Q 29.59375 56 35.59375 56 
Q 45.5625 56 51.78125 48.09375 
Q 58.015625 40.1875 58.015625 27.296875 
Q 58.015625 14.40625 51.78125 6.484375 
Q 45.5625 -1.421875 35.59375 -1.421875 
Q 29.59375 -1.421875 25.265625 0.953125 
Q 20.953125 3.328125 18.109375 8.203125 
L 18.109375 0 
L 9.078125 0 
L 9.078125 75.984375 
L 18.109375 75.984375 
z
" id="DejaVuSans-98"/>
       <path d="M 59.515625 10.40625 
L 59.515625 29.984375 
L 43.40625 29.984375 
L 43.40625 38.09375 
L 69.28125 38.09375 
L 69.28125 6.78125 
Q 63.578125 2.734375 56.6875 0.65625 
Q 49.8125 -1.421875 42 -1.421875 
Q 24.90625 -1.421875 15.25 8.5625 
Q 5.609375 18.5625 5.609375 36.375 
Q 5.609375 54.25 15.25 64.234375 
Q 24.90625 74.21875 42 74.21875 
Q 49.125 74.21875 55.546875 72.453125 
Q 61.96875 70.703125 67.390625 67.28125 
L 67.390625 56.78125 
Q 61.921875 61.421875 55.765625 63.765625 
Q 49.609375 66.109375 42.828125 66.109375 
Q 29.4375 66.109375 22.71875 58.640625 
Q 16.015625 51.171875 16.015625 36.375 
Q 16.015625 21.625 22.71875 14.15625 
Q 29.4375 6.6875 42.828125 6.6875 
Q 48.046875 6.6875 52.140625 7.59375 
Q 56.25 8.5 59.515625 10.40625 
z
" id="DejaVuSans-71"/>
      </defs>
      <use xlink:href="#DejaVuSans-78"/>
      <use x="74.804688" xlink:href="#DejaVuSans-117"/>
      <use x="138.183594" xlink:href="#DejaVuSans-109"/>
      <use x="235.595703" xlink:href="#DejaVuSans-98"/>
      <use x="299.072266" xlink:href="#DejaVuSans-101"/>
      <use x="360.595703" xlink:href="#DejaVuSans-114"/>
      <use x="401.708984" xlink:href="#DejaVuSans-32"/>
      <use x="433.496094" xlink:href="#DejaVuSans-111"/>
      <use x="494.677734" xlink:href="#DejaVuSans-102"/>
      <use x="529.882812" xlink:href="#DejaVuSans-32"/>
      <use x="561.669922" xlink:href="#DejaVuSans-71"/>
      <use x="639.160156" xlink:href="#DejaVuSans-114"/>
      <use x="678.023438" xlink:href="#DejaVuSans-111"/>
      <use x="739.205078" xlink:href="#DejaVuSans-117"/>
      <use x="802.583984" xlink:href="#DejaVuSans-112"/>
      <use x="866.060547" xlink:href="#DejaVuSans-115"/>
     </g>
    </g>
   </g>
   <g id="matplotlib.axis_4">
    <g id="ytick_46">
     <g id="line2d_138">
      <g>
       <use style="fill:#262626;stroke:#262626;stroke-width:1.25;" x="362.527386" xlink:href="#m59593037a4" y="179.513148"/>
      </g>
     </g>
    </g>
    <g id="ytick_47">
     <g id="line2d_139">
      <g>
       <use style="fill:#262626;stroke:#262626;stroke-width:1.25;" x="362.527386" xlink:href="#m59593037a4" y="140.933604"/>
      </g>
     </g>
    </g>
    <g id="ytick_48">
     <g id="line2d_140">
      <g>
       <use style="fill:#262626;stroke:#262626;stroke-width:1.25;" x="362.527386" xlink:href="#m59593037a4" y="102.354059"/>
      </g>
     </g>
    </g>
    <g id="ytick_49">
     <g id="line2d_141">
      <g>
       <use style="fill:#262626;stroke:#262626;stroke-width:1.25;" x="362.527386" xlink:href="#m59593037a4" y="63.774515"/>
      </g>
     </g>
    </g>
    <g id="ytick_50">
     <g id="line2d_142">
      <g>
       <use style="fill:#262626;stroke:#262626;stroke-width:1.25;" x="362.527386" xlink:href="#m59593037a4" y="25.19497"/>
      </g>
     </g>
    </g>
    <g id="ytick_51">
     <g id="line2d_143">
      <g>
       <use style="fill:#262626;stroke:#262626;" x="362.527386" xlink:href="#m3e81f71322" y="206.479093"/>
      </g>
     </g>
    </g>
    <g id="ytick_52">
     <g id="line2d_144">
      <g>
       <use style="fill:#262626;stroke:#262626;" x="362.527386" xlink:href="#m3e81f71322" y="199.685572"/>
      </g>
     </g>
    </g>
    <g id="ytick_53">
     <g id="line2d_145">
      <g>
       <use style="fill:#262626;stroke:#262626;" x="362.527386" xlink:href="#m3e81f71322" y="194.865492"/>
      </g>
     </g>
    </g>
    <g id="ytick_54">
     <g id="line2d_146">
      <g>
       <use style="fill:#262626;stroke:#262626;" x="362.527386" xlink:href="#m3e81f71322" y="191.126748"/>
      </g>
     </g>
    </g>
    <g id="ytick_55">
     <g id="line2d_147">
      <g>
       <use style="fill:#262626;stroke:#262626;" x="362.527386" xlink:href="#m3e81f71322" y="188.071972"/>
      </g>
     </g>
    </g>
    <g id="ytick_56">
     <g id="line2d_148">
      <g>
       <use style="fill:#262626;stroke:#262626;" x="362.527386" xlink:href="#m3e81f71322" y="185.489195"/>
      </g>
     </g>
    </g>
    <g id="ytick_57">
     <g id="line2d_149">
      <g>
       <use style="fill:#262626;stroke:#262626;" x="362.527386" xlink:href="#m3e81f71322" y="183.251892"/>
      </g>
     </g>
    </g>
    <g id="ytick_58">
     <g id="line2d_150">
      <g>
       <use style="fill:#262626;stroke:#262626;" x="362.527386" xlink:href="#m3e81f71322" y="181.278451"/>
      </g>
     </g>
    </g>
    <g id="ytick_59">
     <g id="line2d_151">
      <g>
       <use style="fill:#262626;stroke:#262626;" x="362.527386" xlink:href="#m3e81f71322" y="167.899548"/>
      </g>
     </g>
    </g>
    <g id="ytick_60">
     <g id="line2d_152">
      <g>
       <use style="fill:#262626;stroke:#262626;" x="362.527386" xlink:href="#m3e81f71322" y="161.106027"/>
      </g>
     </g>
    </g>
    <g id="ytick_61">
     <g id="line2d_153">
      <g>
       <use style="fill:#262626;stroke:#262626;" x="362.527386" xlink:href="#m3e81f71322" y="156.285948"/>
      </g>
     </g>
    </g>
    <g id="ytick_62">
     <g id="line2d_154">
      <g>
       <use style="fill:#262626;stroke:#262626;" x="362.527386" xlink:href="#m3e81f71322" y="152.547204"/>
      </g>
     </g>
    </g>
    <g id="ytick_63">
     <g id="line2d_155">
      <g>
       <use style="fill:#262626;stroke:#262626;" x="362.527386" xlink:href="#m3e81f71322" y="149.492427"/>
      </g>
     </g>
    </g>
    <g id="ytick_64">
     <g id="line2d_156">
      <g>
       <use style="fill:#262626;stroke:#262626;" x="362.527386" xlink:href="#m3e81f71322" y="146.909651"/>
      </g>
     </g>
    </g>
    <g id="ytick_65">
     <g id="line2d_157">
      <g>
       <use style="fill:#262626;stroke:#262626;" x="362.527386" xlink:href="#m3e81f71322" y="144.672348"/>
      </g>
     </g>
    </g>
    <g id="ytick_66">
     <g id="line2d_158">
      <g>
       <use style="fill:#262626;stroke:#262626;" x="362.527386" xlink:href="#m3e81f71322" y="142.698907"/>
      </g>
     </g>
    </g>
    <g id="ytick_67">
     <g id="line2d_159">
      <g>
       <use style="fill:#262626;stroke:#262626;" x="362.527386" xlink:href="#m3e81f71322" y="129.320004"/>
      </g>
     </g>
    </g>
    <g id="ytick_68">
     <g id="line2d_160">
      <g>
       <use style="fill:#262626;stroke:#262626;" x="362.527386" xlink:href="#m3e81f71322" y="122.526483"/>
      </g>
     </g>
    </g>
    <g id="ytick_69">
     <g id="line2d_161">
      <g>
       <use style="fill:#262626;stroke:#262626;" x="362.527386" xlink:href="#m3e81f71322" y="117.706403"/>
      </g>
     </g>
    </g>
    <g id="ytick_70">
     <g id="line2d_162">
      <g>
       <use style="fill:#262626;stroke:#262626;" x="362.527386" xlink:href="#m3e81f71322" y="113.967659"/>
      </g>
     </g>
    </g>
    <g id="ytick_71">
     <g id="line2d_163">
      <g>
       <use style="fill:#262626;stroke:#262626;" x="362.527386" xlink:href="#m3e81f71322" y="110.912883"/>
      </g>
     </g>
    </g>
    <g id="ytick_72">
     <g id="line2d_164">
      <g>
       <use style="fill:#262626;stroke:#262626;" x="362.527386" xlink:href="#m3e81f71322" y="108.330106"/>
      </g>
     </g>
    </g>
    <g id="ytick_73">
     <g id="line2d_165">
      <g>
       <use style="fill:#262626;stroke:#262626;" x="362.527386" xlink:href="#m3e81f71322" y="106.092803"/>
      </g>
     </g>
    </g>
    <g id="ytick_74">
     <g id="line2d_166">
      <g>
       <use style="fill:#262626;stroke:#262626;" x="362.527386" xlink:href="#m3e81f71322" y="104.119362"/>
      </g>
     </g>
    </g>
    <g id="ytick_75">
     <g id="line2d_167">
      <g>
       <use style="fill:#262626;stroke:#262626;" x="362.527386" xlink:href="#m3e81f71322" y="90.740459"/>
      </g>
     </g>
    </g>
    <g id="ytick_76">
     <g id="line2d_168">
      <g>
       <use style="fill:#262626;stroke:#262626;" x="362.527386" xlink:href="#m3e81f71322" y="83.946939"/>
      </g>
     </g>
    </g>
    <g id="ytick_77">
     <g id="line2d_169">
      <g>
       <use style="fill:#262626;stroke:#262626;" x="362.527386" xlink:href="#m3e81f71322" y="79.126859"/>
      </g>
     </g>
    </g>
    <g id="ytick_78">
     <g id="line2d_170">
      <g>
       <use style="fill:#262626;stroke:#262626;" x="362.527386" xlink:href="#m3e81f71322" y="75.388115"/>
      </g>
     </g>
    </g>
    <g id="ytick_79">
     <g id="line2d_171">
      <g>
       <use style="fill:#262626;stroke:#262626;" x="362.527386" xlink:href="#m3e81f71322" y="72.333338"/>
      </g>
     </g>
    </g>
    <g id="ytick_80">
     <g id="line2d_172">
      <g>
       <use style="fill:#262626;stroke:#262626;" x="362.527386" xlink:href="#m3e81f71322" y="69.750562"/>
      </g>
     </g>
    </g>
    <g id="ytick_81">
     <g id="line2d_173">
      <g>
       <use style="fill:#262626;stroke:#262626;" x="362.527386" xlink:href="#m3e81f71322" y="67.513259"/>
      </g>
     </g>
    </g>
    <g id="ytick_82">
     <g id="line2d_174">
      <g>
       <use style="fill:#262626;stroke:#262626;" x="362.527386" xlink:href="#m3e81f71322" y="65.539818"/>
      </g>
     </g>
    </g>
    <g id="ytick_83">
     <g id="line2d_175">
      <g>
       <use style="fill:#262626;stroke:#262626;" x="362.527386" xlink:href="#m3e81f71322" y="52.160915"/>
      </g>
     </g>
    </g>
    <g id="ytick_84">
     <g id="line2d_176">
      <g>
       <use style="fill:#262626;stroke:#262626;" x="362.527386" xlink:href="#m3e81f71322" y="45.367394"/>
      </g>
     </g>
    </g>
    <g id="ytick_85">
     <g id="line2d_177">
      <g>
       <use style="fill:#262626;stroke:#262626;" x="362.527386" xlink:href="#m3e81f71322" y="40.547315"/>
      </g>
     </g>
    </g>
    <g id="ytick_86">
     <g id="line2d_178">
      <g>
       <use style="fill:#262626;stroke:#262626;" x="362.527386" xlink:href="#m3e81f71322" y="36.80857"/>
      </g>
     </g>
    </g>
    <g id="ytick_87">
     <g id="line2d_179">
      <g>
       <use style="fill:#262626;stroke:#262626;" x="362.527386" xlink:href="#m3e81f71322" y="33.753794"/>
      </g>
     </g>
    </g>
    <g id="ytick_88">
     <g id="line2d_180">
      <g>
       <use style="fill:#262626;stroke:#262626;" x="362.527386" xlink:href="#m3e81f71322" y="31.171017"/>
      </g>
     </g>
    </g>
    <g id="ytick_89">
     <g id="line2d_181">
      <g>
       <use style="fill:#262626;stroke:#262626;" x="362.527386" xlink:href="#m3e81f71322" y="28.933714"/>
      </g>
     </g>
    </g>
    <g id="ytick_90">
     <g id="line2d_182">
      <g>
       <use style="fill:#262626;stroke:#262626;" x="362.527386" xlink:href="#m3e81f71322" y="26.960273"/>
      </g>
     </g>
    </g>
   </g>
   <g id="PolyCollection_7">
    <defs>
     <path d="M 374.056312 -142.684521 
L 374.056312 -141.879087 
L 391.409074 -140.641302 
L 422.771674 -140.994973 
L 450.275151 -141.309129 
L 476.136418 -142.076553 
L 502.033617 -142.917687 
L 527.766749 -145.023474 
L 553.384498 -150.126421 
L 579.009321 -158.492751 
L 604.634824 -165.989172 
L 604.634824 -166.111318 
L 604.634824 -166.111318 
L 579.009321 -158.674939 
L 553.384498 -150.369917 
L 527.766749 -145.091965 
L 502.033617 -143.057332 
L 476.136418 -142.182772 
L 450.275151 -141.45622 
L 422.771674 -141.22172 
L 391.409074 -140.813759 
L 374.056312 -142.684521 
z
" id="m019c1262f3" style="stroke:#1f77b4;stroke-opacity:0.2;"/>
    </defs>
    <g clip-path="url(#p4c90121e20)">
     <use style="fill:#1f77b4;fill-opacity:0.2;stroke:#1f77b4;stroke-opacity:0.2;" x="0" xlink:href="#m019c1262f3" y="290.382125"/>
    </g>
   </g>
   <g id="PolyCollection_8">
    <defs>
     <path d="M 374.056312 -162.169663 
L 374.056312 -161.944068 
L 391.409074 -163.277063 
L 422.771674 -163.704378 
L 450.275151 -164.516777 
L 476.136418 -164.795028 
L 502.033617 -164.900627 
L 527.766749 -166.487637 
L 553.384498 -167.673406 
L 579.009321 -170.134001 
L 604.634824 -173.141751 
L 604.634824 -173.405146 
L 604.634824 -173.405146 
L 579.009321 -170.302389 
L 553.384498 -167.722785 
L 527.766749 -167.185812 
L 502.033617 -164.987153 
L 476.136418 -164.992991 
L 450.275151 -164.797327 
L 422.771674 -163.811986 
L 391.409074 -163.566603 
L 374.056312 -162.169663 
z
" id="m9753966d2c" style="stroke:#ff7f0e;stroke-opacity:0.2;"/>
    </defs>
    <g clip-path="url(#p4c90121e20)">
     <use style="fill:#ff7f0e;fill-opacity:0.2;stroke:#ff7f0e;stroke-opacity:0.2;" x="0" xlink:href="#m9753966d2c" y="290.382125"/>
    </g>
   </g>
   <g id="PolyCollection_9">
    <defs>
     <path d="M 374.056312 -169.78687 
L 374.056312 -169.101588 
L 391.409074 -173.857451 
L 422.771674 -176.243274 
L 450.275151 -177.859713 
L 476.136418 -178.856974 
L 502.033617 -179.439277 
L 527.766749 -180.756925 
L 553.384498 -181.612039 
L 579.009321 -183.952673 
L 604.634824 -186.481727 
L 604.634824 -186.769332 
L 604.634824 -186.769332 
L 579.009321 -184.155127 
L 553.384498 -181.856826 
L 527.766749 -180.95581 
L 502.033617 -179.694909 
L 476.136418 -179.094424 
L 450.275151 -178.124588 
L 422.771674 -176.477229 
L 391.409074 -174.119211 
L 374.056312 -169.78687 
z
" id="m9bae651a4c" style="stroke:#2ca02c;stroke-opacity:0.2;"/>
    </defs>
    <g clip-path="url(#p4c90121e20)">
     <use style="fill:#2ca02c;fill-opacity:0.2;stroke:#2ca02c;stroke-opacity:0.2;" x="0" xlink:href="#m9bae651a4c" y="290.382125"/>
    </g>
   </g>
   <g id="PolyCollection_10">
    <defs>
     <path d="M 374.056312 -117.448045 
L 374.056312 -116.881665 
L 391.409074 -131.060466 
L 422.771674 -140.540906 
L 450.275151 -146.019125 
L 476.136418 -152.97719 
L 502.033617 -163.588591 
L 527.766749 -176.843988 
L 553.384498 -192.40684 
L 579.009321 -207.69314 
L 604.634824 -218.109313 
L 604.634824 -218.365331 
L 604.634824 -218.365331 
L 579.009321 -208.034784 
L 553.384498 -192.664652 
L 527.766749 -177.073333 
L 502.033617 -163.764058 
L 476.136418 -153.062763 
L 450.275151 -146.244721 
L 422.771674 -140.682685 
L 391.409074 -131.276007 
L 374.056312 -117.448045 
z
" id="md9254f63d6" style="stroke:#d62728;stroke-opacity:0.2;"/>
    </defs>
    <g clip-path="url(#p4c90121e20)">
     <use style="fill:#d62728;fill-opacity:0.2;stroke:#d62728;stroke-opacity:0.2;" x="0" xlink:href="#md9254f63d6" y="290.382125"/>
    </g>
   </g>
   <g id="PolyCollection_11">
    <defs>
     <path d="M 374.056312 -125.644097 
L 374.056312 -125.200369 
L 391.409074 -128.967636 
L 422.771674 -133.981289 
L 450.275151 -136.85619 
L 476.136418 -139.44047 
L 502.033617 -141.945688 
L 527.766749 -144.486575 
L 553.384498 -147.771156 
L 579.009321 -152.298853 
L 604.634824 -156.902147 
L 604.634824 -158.497443 
L 604.634824 -158.497443 
L 579.009321 -152.529574 
L 553.384498 -147.891357 
L 527.766749 -144.669898 
L 502.033617 -142.14591 
L 476.136418 -139.62337 
L 450.275151 -137.07291 
L 422.771674 -134.291316 
L 391.409074 -129.262045 
L 374.056312 -125.644097 
z
" id="m6bb6ac1b94" style="stroke:#9467bd;stroke-opacity:0.2;"/>
    </defs>
    <g clip-path="url(#p4c90121e20)">
     <use style="fill:#9467bd;fill-opacity:0.2;stroke:#9467bd;stroke-opacity:0.2;" x="0" xlink:href="#m6bb6ac1b94" y="290.382125"/>
    </g>
   </g>
   <g id="PolyCollection_12">
    <defs>
     <path d="M 374.056312 -135.934571 
L 374.056312 -135.454003 
L 391.409074 -137.855976 
L 422.771674 -141.170776 
L 450.275151 -143.101862 
L 476.136418 -144.701279 
L 502.033617 -146.546437 
L 527.766749 -148.517998 
L 553.384498 -150.678213 
L 579.009321 -154.433796 
L 604.634824 -158.608303 
L 604.634824 -158.997519 
L 604.634824 -158.997519 
L 579.009321 -154.717132 
L 553.384498 -150.877487 
L 527.766749 -148.640684 
L 502.033617 -146.701159 
L 476.136418 -144.906561 
L 450.275151 -143.395785 
L 422.771674 -141.326473 
L 391.409074 -138.137839 
L 374.056312 -135.934571 
z
" id="mc67e1a8b10" style="stroke:#8c564b;stroke-opacity:0.2;"/>
    </defs>
    <g clip-path="url(#p4c90121e20)">
     <use style="fill:#8c564b;fill-opacity:0.2;stroke:#8c564b;stroke-opacity:0.2;" x="0" xlink:href="#mc67e1a8b10" y="290.382125"/>
    </g>
   </g>
   <g id="line2d_183">
    <path clip-path="url(#p4c90121e20)" d="M 374.056312 148.158353 
L 391.409074 149.658988 
L 422.771674 149.271047 
L 450.275151 149.005615 
L 476.136418 148.258239 
L 502.033617 147.403033 
L 527.766749 145.32554 
L 553.384498 140.134697 
L 579.009321 131.810886 
L 604.634824 124.332563 
" style="fill:none;stroke:#1f77b4;stroke-linecap:round;stroke-width:1.5;"/>
   </g>
   <g id="line2d_184">
    <path clip-path="url(#p4c90121e20)" d="M 374.056312 128.342656 
L 391.409074 126.949868 
L 422.771674 126.626342 
L 450.275151 125.713879 
L 476.136418 125.484515 
L 502.033617 125.443228 
L 527.766749 123.62879 
L 553.384498 122.685394 
L 579.009321 120.154955 
L 604.634824 117.106133 
" style="fill:none;stroke:#ff7f0e;stroke-linecap:round;stroke-width:1.5;"/>
   </g>
   <g id="line2d_185">
    <path clip-path="url(#p4c90121e20)" d="M 374.056312 120.963325 
L 391.409074 116.39611 
L 422.771674 114.022952 
L 450.275151 112.38953 
L 476.136418 111.416281 
L 502.033617 110.824284 
L 527.766749 109.518531 
L 553.384498 108.658771 
L 579.009321 106.328232 
L 604.634824 103.755525 
" style="fill:none;stroke:#2ca02c;stroke-linecap:round;stroke-width:1.5;"/>
   </g>
   <g id="line2d_186">
    <path clip-path="url(#p4c90121e20)" d="M 374.056312 173.296047 
L 391.409074 159.216915 
L 422.771674 149.770909 
L 450.275151 144.243513 
L 476.136418 137.36168 
L 502.033617 126.708992 
L 527.766749 113.419186 
L 553.384498 97.860425 
L 579.009321 82.533304 
L 604.634824 72.142179 
" style="fill:none;stroke:#d62728;stroke-linecap:round;stroke-width:1.5;"/>
   </g>
   <g id="line2d_187">
    <path clip-path="url(#p4c90121e20)" d="M 374.056312 164.996844 
L 391.409074 161.270443 
L 422.771674 156.237306 
L 450.275151 153.427349 
L 476.136418 150.853233 
L 502.033617 148.338622 
L 527.766749 145.804007 
L 553.384498 142.544763 
L 579.009321 137.97473 
L 604.634824 132.76439 
" style="fill:none;stroke:#9467bd;stroke-linecap:round;stroke-width:1.5;"/>
   </g>
   <g id="line2d_188">
    <path clip-path="url(#p4c90121e20)" d="M 374.056312 154.738863 
L 391.409074 152.389149 
L 422.771674 149.131929 
L 450.275151 147.145023 
L 476.136418 145.577735 
L 502.033617 143.75582 
L 527.766749 141.806618 
L 553.384498 139.612653 
L 579.009321 135.804298 
L 604.634824 131.606438 
" style="fill:none;stroke:#8c564b;stroke-linecap:round;stroke-width:1.5;"/>
   </g>
   <g id="line2d_189"/>
   <g id="line2d_190"/>
   <g id="line2d_191"/>
   <g id="line2d_192"/>
   <g id="line2d_193"/>
   <g id="line2d_194"/>
   <g id="patch_6">
    <path d="M 362.527386 212.578125 
L 362.527386 22.318125 
" style="fill:none;stroke:#262626;stroke-linecap:square;stroke-linejoin:miter;stroke-width:1.25;"/>
   </g>
   <g id="patch_7">
    <path d="M 362.527386 212.578125 
L 616.16375 212.578125 
" style="fill:none;stroke:#262626;stroke-linecap:square;stroke-linejoin:miter;stroke-width:1.25;"/>
   </g>
   <g id="text_20">
    <!-- Varying number of groups with 10000 elements -->
    <g style="fill:#262626;" transform="translate(345.859318 16.318125)scale(0.12 -0.12)">
     <defs>
      <path d="M 9.421875 75.984375 
L 18.40625 75.984375 
L 18.40625 0 
L 9.421875 0 
z
" id="DejaVuSans-108"/>
     </defs>
     <use xlink:href="#DejaVuSans-86"/>
     <use x="60.658203" xlink:href="#DejaVuSans-97"/>
     <use x="121.9375" xlink:href="#DejaVuSans-114"/>
     <use x="163.050781" xlink:href="#DejaVuSans-121"/>
     <use x="222.230469" xlink:href="#DejaVuSans-105"/>
     <use x="250.013672" xlink:href="#DejaVuSans-110"/>
     <use x="313.392578" xlink:href="#DejaVuSans-103"/>
     <use x="376.869141" xlink:href="#DejaVuSans-32"/>
     <use x="408.65625" xlink:href="#DejaVuSans-110"/>
     <use x="472.035156" xlink:href="#DejaVuSans-117"/>
     <use x="535.414062" xlink:href="#DejaVuSans-109"/>
     <use x="632.826172" xlink:href="#DejaVuSans-98"/>
     <use x="696.302734" xlink:href="#DejaVuSans-101"/>
     <use x="757.826172" xlink:href="#DejaVuSans-114"/>
     <use x="798.939453" xlink:href="#DejaVuSans-32"/>
     <use x="830.726562" xlink:href="#DejaVuSans-111"/>
     <use x="891.908203" xlink:href="#DejaVuSans-102"/>
     <use x="927.113281" xlink:href="#DejaVuSans-32"/>
     <use x="958.900391" xlink:href="#DejaVuSans-103"/>
     <use x="1022.376953" xlink:href="#DejaVuSans-114"/>
     <use x="1061.240234" xlink:href="#DejaVuSans-111"/>
     <use x="1122.421875" xlink:href="#DejaVuSans-117"/>
     <use x="1185.800781" xlink:href="#DejaVuSans-112"/>
     <use x="1249.277344" xlink:href="#DejaVuSans-115"/>
     <use x="1301.376953" xlink:href="#DejaVuSans-32"/>
     <use x="1333.164062" xlink:href="#DejaVuSans-119"/>
     <use x="1414.951172" xlink:href="#DejaVuSans-105"/>
     <use x="1442.734375" xlink:href="#DejaVuSans-116"/>
     <use x="1481.943359" xlink:href="#DejaVuSans-104"/>
     <use x="1545.322266" xlink:href="#DejaVuSans-32"/>
     <use x="1577.109375" xlink:href="#DejaVuSans-49"/>
     <use x="1640.732422" xlink:href="#DejaVuSans-48"/>
     <use x="1704.355469" xlink:href="#DejaVuSans-48"/>
     <use x="1767.978516" xlink:href="#DejaVuSans-48"/>
     <use x="1831.601562" xlink:href="#DejaVuSans-48"/>
     <use x="1895.224609" xlink:href="#DejaVuSans-32"/>
     <use x="1927.011719" xlink:href="#DejaVuSans-101"/>
     <use x="1988.535156" xlink:href="#DejaVuSans-108"/>
     <use x="2016.318359" xlink:href="#DejaVuSans-101"/>
     <use x="2077.841797" xlink:href="#DejaVuSans-109"/>
     <use x="2175.253906" xlink:href="#DejaVuSans-101"/>
     <use x="2236.777344" xlink:href="#DejaVuSans-110"/>
     <use x="2300.15625" xlink:href="#DejaVuSans-116"/>
     <use x="2339.365234" xlink:href="#DejaVuSans-115"/>
    </g>
   </g>
   <g id="legend_1">
    <g id="line2d_195">
     <path d="M 60.454659 272.644469 
L 82.454659 272.644469 
" style="fill:none;stroke:#1f77b4;stroke-linecap:round;stroke-width:1.5;"/>
    </g>
    <g id="line2d_196"/>
    <g id="text_21">
     <!-- pandas -->
     <g style="fill:#262626;" transform="translate(91.254659 276.494469)scale(0.11 -0.11)">
      <use xlink:href="#DejaVuSans-112"/>
      <use x="63.476562" xlink:href="#DejaVuSans-97"/>
      <use x="124.755859" xlink:href="#DejaVuSans-110"/>
      <use x="188.134766" xlink:href="#DejaVuSans-100"/>
      <use x="251.611328" xlink:href="#DejaVuSans-97"/>
      <use x="312.890625" xlink:href="#DejaVuSans-115"/>
     </g>
    </g>
    <g id="line2d_197">
     <path d="M 153.404659 272.644469 
L 175.404659 272.644469 
" style="fill:none;stroke:#ff7f0e;stroke-linecap:round;stroke-width:1.5;"/>
    </g>
    <g id="line2d_198"/>
    <g id="text_22">
     <!-- dict -->
     <g style="fill:#262626;" transform="translate(184.204659 276.494469)scale(0.11 -0.11)">
      <use xlink:href="#DejaVuSans-100"/>
      <use x="63.476562" xlink:href="#DejaVuSans-105"/>
      <use x="91.259766" xlink:href="#DejaVuSans-99"/>
      <use x="146.240234" xlink:href="#DejaVuSans-116"/>
     </g>
    </g>
    <g id="line2d_199">
     <path d="M 226.604503 272.644469 
L 248.604503 272.644469 
" style="fill:none;stroke:#2ca02c;stroke-linecap:round;stroke-width:1.5;"/>
    </g>
    <g id="line2d_200"/>
    <g id="text_23">
     <!-- itertools -->
     <g style="fill:#262626;" transform="translate(257.404503 276.494469)scale(0.11 -0.11)">
      <use xlink:href="#DejaVuSans-105"/>
      <use x="27.783203" xlink:href="#DejaVuSans-116"/>
      <use x="66.992188" xlink:href="#DejaVuSans-101"/>
      <use x="128.515625" xlink:href="#DejaVuSans-114"/>
      <use x="169.628906" xlink:href="#DejaVuSans-116"/>
      <use x="208.837891" xlink:href="#DejaVuSans-111"/>
      <use x="270.019531" xlink:href="#DejaVuSans-111"/>
      <use x="331.201172" xlink:href="#DejaVuSans-108"/>
      <use x="358.984375" xlink:href="#DejaVuSans-115"/>
     </g>
    </g>
    <g id="line2d_201">
     <path d="M 324.623097 272.644469 
L 346.623097 272.644469 
" style="fill:none;stroke:#d62728;stroke-linecap:round;stroke-width:1.5;"/>
    </g>
    <g id="line2d_202"/>
    <g id="text_24">
     <!-- masking -->
     <g style="fill:#262626;" transform="translate(355.423097 276.494469)scale(0.11 -0.11)">
      <defs>
       <path d="M 9.078125 75.984375 
L 18.109375 75.984375 
L 18.109375 31.109375 
L 44.921875 54.6875 
L 56.390625 54.6875 
L 27.390625 29.109375 
L 57.625 0 
L 45.90625 0 
L 18.109375 26.703125 
L 18.109375 0 
L 9.078125 0 
z
" id="DejaVuSans-107"/>
      </defs>
      <use xlink:href="#DejaVuSans-109"/>
      <use x="97.412109" xlink:href="#DejaVuSans-97"/>
      <use x="158.691406" xlink:href="#DejaVuSans-115"/>
      <use x="210.791016" xlink:href="#DejaVuSans-107"/>
      <use x="268.701172" xlink:href="#DejaVuSans-105"/>
      <use x="296.484375" xlink:href="#DejaVuSans-110"/>
      <use x="359.863281" xlink:href="#DejaVuSans-103"/>
     </g>
    </g>
    <g id="line2d_203">
     <path d="M 423.98919 272.644469 
L 445.98919 272.644469 
" style="fill:none;stroke:#9467bd;stroke-linecap:round;stroke-width:1.5;"/>
    </g>
    <g id="line2d_204"/>
    <g id="text_25">
     <!-- bincount -->
     <g style="fill:#262626;" transform="translate(454.78919 276.494469)scale(0.11 -0.11)">
      <use xlink:href="#DejaVuSans-98"/>
      <use x="63.476562" xlink:href="#DejaVuSans-105"/>
      <use x="91.259766" xlink:href="#DejaVuSans-110"/>
      <use x="154.638672" xlink:href="#DejaVuSans-99"/>
      <use x="209.619141" xlink:href="#DejaVuSans-111"/>
      <use x="270.800781" xlink:href="#DejaVuSans-117"/>
      <use x="334.179688" xlink:href="#DejaVuSans-110"/>
      <use x="397.558594" xlink:href="#DejaVuSans-116"/>
     </g>
    </g>
    <g id="line2d_205">
     <path d="M 524.833409 272.644469 
L 546.833409 272.644469 
" style="fill:none;stroke:#8c564b;stroke-linecap:round;stroke-width:1.5;"/>
    </g>
    <g id="line2d_206"/>
    <g id="text_26">
     <!-- sparse -->
     <g style="fill:#262626;" transform="translate(555.633409 276.494469)scale(0.11 -0.11)">
      <use xlink:href="#DejaVuSans-115"/>
      <use x="52.099609" xlink:href="#DejaVuSans-112"/>
      <use x="115.576172" xlink:href="#DejaVuSans-97"/>
      <use x="176.855469" xlink:href="#DejaVuSans-114"/>
      <use x="217.96875" xlink:href="#DejaVuSans-115"/>
      <use x="270.068359" xlink:href="#DejaVuSans-101"/>
     </g>
    </g>
   </g>
  </g>
 </g>
 <defs>
  <clipPath id="p40cfbdf5bb">
   <rect height="190.26" width="253.636364" x="58.16375" y="22.318125"/>
  </clipPath>
  <clipPath id="p4c90121e20">
   <rect height="190.26" width="253.636364" x="362.527386" y="22.318125"/>
  </clipPath>
 </defs>
</svg>
