<?xml version="1.0" encoding="utf-8" standalone="no"?>
<!DOCTYPE svg PUBLIC "-//W3C//DTD SVG 1.1//EN"
  "http://www.w3.org/Graphics/SVG/1.1/DTD/svg11.dtd">
<!-- Created with matplotlib (https://matplotlib.org/) -->
<svg height="288pt" version="1.1" viewBox="0 0 432 288" width="432pt" xmlns="http://www.w3.org/2000/svg" xmlns:xlink="http://www.w3.org/1999/xlink">
 <metadata>
  <rdf:RDF xmlns:cc="http://creativecommons.org/ns#" xmlns:dc="http://purl.org/dc/elements/1.1/" xmlns:rdf="http://www.w3.org/1999/02/22-rdf-syntax-ns#">
   <cc:Work>
    <dc:type rdf:resource="http://purl.org/dc/dcmitype/StillImage"/>
    <dc:date>2021-03-09T00:55:19.959770</dc:date>
    <dc:format>image/svg+xml</dc:format>
    <dc:creator>
     <cc:Agent>
      <dc:title>Matplotlib v3.3.4, https://matplotlib.org/</dc:title>
     </cc:Agent>
    </dc:creator>
   </cc:Work>
  </rdf:RDF>
 </metadata>
 <defs>
  <style type="text/css">*{stroke-linecap:butt;stroke-linejoin:round;}</style>
 </defs>
 <g id="figure_1">
  <g id="patch_1">
   <path d="M 0 288 
L 432 288 
L 432 0 
L 0 0 
z
" style="fill:none;"/>
  </g>
  <g id="axes_1">
   <g id="patch_2">
    <path d="M 54 252 
L 388.8 252 
L 388.8 34.56 
L 54 34.56 
z
" style="fill:#ffffff;"/>
   </g>
   <g id="matplotlib.axis_1">
    <g id="xtick_1">
     <g id="line2d_1">
      <defs>
       <path d="M 0 0 
L 0 3.5 
" id="m843b31374e" style="stroke:#000000;stroke-width:0.8;"/>
      </defs>
      <g>
       <use style="stroke:#000000;stroke-width:0.8;" x="69.218182" xlink:href="#m843b31374e" y="252"/>
      </g>
     </g>
     <g id="text_1">
      <!-- −3 -->
      <g transform="translate(61.847088 266.598437)scale(0.1 -0.1)">
       <defs>
        <path d="M 10.59375 35.5 
L 73.1875 35.5 
L 73.1875 27.203125 
L 10.59375 27.203125 
z
" id="DejaVuSans-8722"/>
        <path d="M 40.578125 39.3125 
Q 47.65625 37.796875 51.625 33 
Q 55.609375 28.21875 55.609375 21.1875 
Q 55.609375 10.40625 48.1875 4.484375 
Q 40.765625 -1.421875 27.09375 -1.421875 
Q 22.515625 -1.421875 17.65625 -0.515625 
Q 12.796875 0.390625 7.625 2.203125 
L 7.625 11.71875 
Q 11.71875 9.328125 16.59375 8.109375 
Q 21.484375 6.890625 26.8125 6.890625 
Q 36.078125 6.890625 40.9375 10.546875 
Q 45.796875 14.203125 45.796875 21.1875 
Q 45.796875 27.640625 41.28125 31.265625 
Q 36.765625 34.90625 28.71875 34.90625 
L 20.21875 34.90625 
L 20.21875 43.015625 
L 29.109375 43.015625 
Q 36.375 43.015625 40.234375 45.921875 
Q 44.09375 48.828125 44.09375 54.296875 
Q 44.09375 59.90625 40.109375 62.90625 
Q 36.140625 65.921875 28.71875 65.921875 
Q 24.65625 65.921875 20.015625 65.03125 
Q 15.375 64.15625 9.8125 62.3125 
L 9.8125 71.09375 
Q 15.4375 72.65625 20.34375 73.4375 
Q 25.25 74.21875 29.59375 74.21875 
Q 40.828125 74.21875 47.359375 69.109375 
Q 53.90625 64.015625 53.90625 55.328125 
Q 53.90625 49.265625 50.4375 45.09375 
Q 46.96875 40.921875 40.578125 39.3125 
z
" id="DejaVuSans-51"/>
       </defs>
       <use xlink:href="#DejaVuSans-8722"/>
       <use x="83.789062" xlink:href="#DejaVuSans-51"/>
      </g>
     </g>
    </g>
    <g id="xtick_2">
     <g id="line2d_2">
      <g>
       <use style="stroke:#000000;stroke-width:0.8;" x="119.945455" xlink:href="#m843b31374e" y="252"/>
      </g>
     </g>
     <g id="text_2">
      <!-- −2 -->
      <g transform="translate(112.574361 266.598437)scale(0.1 -0.1)">
       <defs>
        <path d="M 19.1875 8.296875 
L 53.609375 8.296875 
L 53.609375 0 
L 7.328125 0 
L 7.328125 8.296875 
Q 12.9375 14.109375 22.625 23.890625 
Q 32.328125 33.6875 34.8125 36.53125 
Q 39.546875 41.84375 41.421875 45.53125 
Q 43.3125 49.21875 43.3125 52.78125 
Q 43.3125 58.59375 39.234375 62.25 
Q 35.15625 65.921875 28.609375 65.921875 
Q 23.96875 65.921875 18.8125 64.3125 
Q 13.671875 62.703125 7.8125 59.421875 
L 7.8125 69.390625 
Q 13.765625 71.78125 18.9375 73 
Q 24.125 74.21875 28.421875 74.21875 
Q 39.75 74.21875 46.484375 68.546875 
Q 53.21875 62.890625 53.21875 53.421875 
Q 53.21875 48.921875 51.53125 44.890625 
Q 49.859375 40.875 45.40625 35.40625 
Q 44.1875 33.984375 37.640625 27.21875 
Q 31.109375 20.453125 19.1875 8.296875 
z
" id="DejaVuSans-50"/>
       </defs>
       <use xlink:href="#DejaVuSans-8722"/>
       <use x="83.789062" xlink:href="#DejaVuSans-50"/>
      </g>
     </g>
    </g>
    <g id="xtick_3">
     <g id="line2d_3">
      <g>
       <use style="stroke:#000000;stroke-width:0.8;" x="170.672727" xlink:href="#m843b31374e" y="252"/>
      </g>
     </g>
     <g id="text_3">
      <!-- −1 -->
      <g transform="translate(163.301634 266.598437)scale(0.1 -0.1)">
       <defs>
        <path d="M 12.40625 8.296875 
L 28.515625 8.296875 
L 28.515625 63.921875 
L 10.984375 60.40625 
L 10.984375 69.390625 
L 28.421875 72.90625 
L 38.28125 72.90625 
L 38.28125 8.296875 
L 54.390625 8.296875 
L 54.390625 0 
L 12.40625 0 
z
" id="DejaVuSans-49"/>
       </defs>
       <use xlink:href="#DejaVuSans-8722"/>
       <use x="83.789062" xlink:href="#DejaVuSans-49"/>
      </g>
     </g>
    </g>
    <g id="xtick_4">
     <g id="line2d_4">
      <g>
       <use style="stroke:#000000;stroke-width:0.8;" x="221.4" xlink:href="#m843b31374e" y="252"/>
      </g>
     </g>
     <g id="text_4">
      <!-- 0 -->
      <g transform="translate(218.21875 266.598437)scale(0.1 -0.1)">
       <defs>
        <path d="M 31.78125 66.40625 
Q 24.171875 66.40625 20.328125 58.90625 
Q 16.5 51.421875 16.5 36.375 
Q 16.5 21.390625 20.328125 13.890625 
Q 24.171875 6.390625 31.78125 6.390625 
Q 39.453125 6.390625 43.28125 13.890625 
Q 47.125 21.390625 47.125 36.375 
Q 47.125 51.421875 43.28125 58.90625 
Q 39.453125 66.40625 31.78125 66.40625 
z
M 31.78125 74.21875 
Q 44.046875 74.21875 50.515625 64.515625 
Q 56.984375 54.828125 56.984375 36.375 
Q 56.984375 17.96875 50.515625 8.265625 
Q 44.046875 -1.421875 31.78125 -1.421875 
Q 19.53125 -1.421875 13.0625 8.265625 
Q 6.59375 17.96875 6.59375 36.375 
Q 6.59375 54.828125 13.0625 64.515625 
Q 19.53125 74.21875 31.78125 74.21875 
z
" id="DejaVuSans-48"/>
       </defs>
       <use xlink:href="#DejaVuSans-48"/>
      </g>
     </g>
    </g>
    <g id="xtick_5">
     <g id="line2d_5">
      <g>
       <use style="stroke:#000000;stroke-width:0.8;" x="272.127273" xlink:href="#m843b31374e" y="252"/>
      </g>
     </g>
     <g id="text_5">
      <!-- 1 -->
      <g transform="translate(268.946023 266.598437)scale(0.1 -0.1)">
       <use xlink:href="#DejaVuSans-49"/>
      </g>
     </g>
    </g>
    <g id="xtick_6">
     <g id="line2d_6">
      <g>
       <use style="stroke:#000000;stroke-width:0.8;" x="322.854545" xlink:href="#m843b31374e" y="252"/>
      </g>
     </g>
     <g id="text_6">
      <!-- 2 -->
      <g transform="translate(319.673295 266.598437)scale(0.1 -0.1)">
       <use xlink:href="#DejaVuSans-50"/>
      </g>
     </g>
    </g>
    <g id="xtick_7">
     <g id="line2d_7">
      <g>
       <use style="stroke:#000000;stroke-width:0.8;" x="373.581818" xlink:href="#m843b31374e" y="252"/>
      </g>
     </g>
     <g id="text_7">
      <!-- 3 -->
      <g transform="translate(370.400568 266.598437)scale(0.1 -0.1)">
       <use xlink:href="#DejaVuSans-51"/>
      </g>
     </g>
    </g>
    <g id="text_8">
     <!-- $\theta$ -->
     <g transform="translate(218.3 280.276563)scale(0.1 -0.1)">
      <defs>
       <path d="M 45.515625 34.671875 
L 14.453125 34.671875 
Q 12.359375 20.0625 14.5 13.875 
Q 17.1875 6.25 24.46875 6.25 
Q 31.78125 6.25 37.359375 13.921875 
Q 42.234375 20.65625 45.515625 34.671875 
z
M 47.015625 42.96875 
Q 48.34375 56.84375 46.625 61.71875 
Q 43.953125 69.4375 36.765625 69.4375 
Q 29.296875 69.4375 23.828125 61.8125 
Q 19.53125 55.671875 16.15625 42.96875 
z
M 38.1875 76.765625 
Q 49.90625 76.765625 54.59375 66.40625 
Q 59.28125 56.109375 55.71875 37.84375 
Q 52.203125 19.625 43.453125 9.28125 
Q 34.765625 -1.125 23.046875 -1.125 
Q 11.28125 -1.125 6.640625 9.28125 
Q 2 19.625 5.515625 37.84375 
Q 9.078125 56.109375 17.71875 66.40625 
Q 26.421875 76.765625 38.1875 76.765625 
z
" id="DejaVuSans-Oblique-952"/>
      </defs>
      <use transform="translate(0 0.234375)" xlink:href="#DejaVuSans-Oblique-952"/>
     </g>
    </g>
   </g>
   <g id="matplotlib.axis_2">
    <g id="ytick_1">
     <g id="line2d_8">
      <defs>
       <path d="M 0 0 
L -3.5 0 
" id="m47b99af0a1" style="stroke:#000000;stroke-width:0.8;"/>
      </defs>
      <g>
       <use style="stroke:#000000;stroke-width:0.8;" x="54" xlink:href="#m47b99af0a1" y="242.759888"/>
      </g>
     </g>
     <g id="text_9">
      <!-- 0.0 -->
      <g transform="translate(31.096875 246.559106)scale(0.1 -0.1)">
       <defs>
        <path d="M 10.6875 12.40625 
L 21 12.40625 
L 21 0 
L 10.6875 0 
z
" id="DejaVuSans-46"/>
       </defs>
       <use xlink:href="#DejaVuSans-48"/>
       <use x="63.623047" xlink:href="#DejaVuSans-46"/>
       <use x="95.410156" xlink:href="#DejaVuSans-48"/>
      </g>
     </g>
    </g>
    <g id="ytick_2">
     <g id="line2d_9">
      <g>
       <use style="stroke:#000000;stroke-width:0.8;" x="54" xlink:href="#m47b99af0a1" y="206.291677"/>
      </g>
     </g>
     <g id="text_10">
      <!-- 0.2 -->
      <g transform="translate(31.096875 210.090895)scale(0.1 -0.1)">
       <use xlink:href="#DejaVuSans-48"/>
       <use x="63.623047" xlink:href="#DejaVuSans-46"/>
       <use x="95.410156" xlink:href="#DejaVuSans-50"/>
      </g>
     </g>
    </g>
    <g id="ytick_3">
     <g id="line2d_10">
      <g>
       <use style="stroke:#000000;stroke-width:0.8;" x="54" xlink:href="#m47b99af0a1" y="169.823466"/>
      </g>
     </g>
     <g id="text_11">
      <!-- 0.4 -->
      <g transform="translate(31.096875 173.622684)scale(0.1 -0.1)">
       <defs>
        <path d="M 37.796875 64.3125 
L 12.890625 25.390625 
L 37.796875 25.390625 
z
M 35.203125 72.90625 
L 47.609375 72.90625 
L 47.609375 25.390625 
L 58.015625 25.390625 
L 58.015625 17.1875 
L 47.609375 17.1875 
L 47.609375 0 
L 37.796875 0 
L 37.796875 17.1875 
L 4.890625 17.1875 
L 4.890625 26.703125 
z
" id="DejaVuSans-52"/>
       </defs>
       <use xlink:href="#DejaVuSans-48"/>
       <use x="63.623047" xlink:href="#DejaVuSans-46"/>
       <use x="95.410156" xlink:href="#DejaVuSans-52"/>
      </g>
     </g>
    </g>
    <g id="ytick_4">
     <g id="line2d_11">
      <g>
       <use style="stroke:#000000;stroke-width:0.8;" x="54" xlink:href="#m47b99af0a1" y="133.355255"/>
      </g>
     </g>
     <g id="text_12">
      <!-- 0.6 -->
      <g transform="translate(31.096875 137.154473)scale(0.1 -0.1)">
       <defs>
        <path d="M 33.015625 40.375 
Q 26.375 40.375 22.484375 35.828125 
Q 18.609375 31.296875 18.609375 23.390625 
Q 18.609375 15.53125 22.484375 10.953125 
Q 26.375 6.390625 33.015625 6.390625 
Q 39.65625 6.390625 43.53125 10.953125 
Q 47.40625 15.53125 47.40625 23.390625 
Q 47.40625 31.296875 43.53125 35.828125 
Q 39.65625 40.375 33.015625 40.375 
z
M 52.59375 71.296875 
L 52.59375 62.3125 
Q 48.875 64.0625 45.09375 64.984375 
Q 41.3125 65.921875 37.59375 65.921875 
Q 27.828125 65.921875 22.671875 59.328125 
Q 17.53125 52.734375 16.796875 39.40625 
Q 19.671875 43.65625 24.015625 45.921875 
Q 28.375 48.1875 33.59375 48.1875 
Q 44.578125 48.1875 50.953125 41.515625 
Q 57.328125 34.859375 57.328125 23.390625 
Q 57.328125 12.15625 50.6875 5.359375 
Q 44.046875 -1.421875 33.015625 -1.421875 
Q 20.359375 -1.421875 13.671875 8.265625 
Q 6.984375 17.96875 6.984375 36.375 
Q 6.984375 53.65625 15.1875 63.9375 
Q 23.390625 74.21875 37.203125 74.21875 
Q 40.921875 74.21875 44.703125 73.484375 
Q 48.484375 72.75 52.59375 71.296875 
z
" id="DejaVuSans-54"/>
       </defs>
       <use xlink:href="#DejaVuSans-48"/>
       <use x="63.623047" xlink:href="#DejaVuSans-46"/>
       <use x="95.410156" xlink:href="#DejaVuSans-54"/>
      </g>
     </g>
    </g>
    <g id="ytick_5">
     <g id="line2d_12">
      <g>
       <use style="stroke:#000000;stroke-width:0.8;" x="54" xlink:href="#m47b99af0a1" y="96.887044"/>
      </g>
     </g>
     <g id="text_13">
      <!-- 0.8 -->
      <g transform="translate(31.096875 100.686262)scale(0.1 -0.1)">
       <defs>
        <path d="M 31.78125 34.625 
Q 24.75 34.625 20.71875 30.859375 
Q 16.703125 27.09375 16.703125 20.515625 
Q 16.703125 13.921875 20.71875 10.15625 
Q 24.75 6.390625 31.78125 6.390625 
Q 38.8125 6.390625 42.859375 10.171875 
Q 46.921875 13.96875 46.921875 20.515625 
Q 46.921875 27.09375 42.890625 30.859375 
Q 38.875 34.625 31.78125 34.625 
z
M 21.921875 38.8125 
Q 15.578125 40.375 12.03125 44.71875 
Q 8.5 49.078125 8.5 55.328125 
Q 8.5 64.0625 14.71875 69.140625 
Q 20.953125 74.21875 31.78125 74.21875 
Q 42.671875 74.21875 48.875 69.140625 
Q 55.078125 64.0625 55.078125 55.328125 
Q 55.078125 49.078125 51.53125 44.71875 
Q 48 40.375 41.703125 38.8125 
Q 48.828125 37.15625 52.796875 32.3125 
Q 56.78125 27.484375 56.78125 20.515625 
Q 56.78125 9.90625 50.3125 4.234375 
Q 43.84375 -1.421875 31.78125 -1.421875 
Q 19.734375 -1.421875 13.25 4.234375 
Q 6.78125 9.90625 6.78125 20.515625 
Q 6.78125 27.484375 10.78125 32.3125 
Q 14.796875 37.15625 21.921875 38.8125 
z
M 18.3125 54.390625 
Q 18.3125 48.734375 21.84375 45.5625 
Q 25.390625 42.390625 31.78125 42.390625 
Q 38.140625 42.390625 41.71875 45.5625 
Q 45.3125 48.734375 45.3125 54.390625 
Q 45.3125 60.0625 41.71875 63.234375 
Q 38.140625 66.40625 31.78125 66.40625 
Q 25.390625 66.40625 21.84375 63.234375 
Q 18.3125 60.0625 18.3125 54.390625 
z
" id="DejaVuSans-56"/>
       </defs>
       <use xlink:href="#DejaVuSans-48"/>
       <use x="63.623047" xlink:href="#DejaVuSans-46"/>
       <use x="95.410156" xlink:href="#DejaVuSans-56"/>
      </g>
     </g>
    </g>
    <g id="ytick_6">
     <g id="line2d_13">
      <g>
       <use style="stroke:#000000;stroke-width:0.8;" x="54" xlink:href="#m47b99af0a1" y="60.418833"/>
      </g>
     </g>
     <g id="text_14">
      <!-- 1.0 -->
      <g transform="translate(31.096875 64.218051)scale(0.1 -0.1)">
       <use xlink:href="#DejaVuSans-49"/>
       <use x="63.623047" xlink:href="#DejaVuSans-46"/>
       <use x="95.410156" xlink:href="#DejaVuSans-48"/>
      </g>
     </g>
    </g>
    <g id="text_15">
     <!-- Density Value at $\theta$ -->
     <g transform="translate(24.996875 189.28)rotate(-90)scale(0.1 -0.1)">
      <defs>
       <path d="M 19.671875 64.796875 
L 19.671875 8.109375 
L 31.59375 8.109375 
Q 46.6875 8.109375 53.6875 14.9375 
Q 60.6875 21.78125 60.6875 36.53125 
Q 60.6875 51.171875 53.6875 57.984375 
Q 46.6875 64.796875 31.59375 64.796875 
z
M 9.8125 72.90625 
L 30.078125 72.90625 
Q 51.265625 72.90625 61.171875 64.09375 
Q 71.09375 55.28125 71.09375 36.53125 
Q 71.09375 17.671875 61.125 8.828125 
Q 51.171875 0 30.078125 0 
L 9.8125 0 
z
" id="DejaVuSans-68"/>
       <path d="M 56.203125 29.59375 
L 56.203125 25.203125 
L 14.890625 25.203125 
Q 15.484375 15.921875 20.484375 11.0625 
Q 25.484375 6.203125 34.421875 6.203125 
Q 39.59375 6.203125 44.453125 7.46875 
Q 49.3125 8.734375 54.109375 11.28125 
L 54.109375 2.78125 
Q 49.265625 0.734375 44.1875 -0.34375 
Q 39.109375 -1.421875 33.890625 -1.421875 
Q 20.796875 -1.421875 13.15625 6.1875 
Q 5.515625 13.8125 5.515625 26.8125 
Q 5.515625 40.234375 12.765625 48.109375 
Q 20.015625 56 32.328125 56 
Q 43.359375 56 49.78125 48.890625 
Q 56.203125 41.796875 56.203125 29.59375 
z
M 47.21875 32.234375 
Q 47.125 39.59375 43.09375 43.984375 
Q 39.0625 48.390625 32.421875 48.390625 
Q 24.90625 48.390625 20.390625 44.140625 
Q 15.875 39.890625 15.1875 32.171875 
z
" id="DejaVuSans-101"/>
       <path d="M 54.890625 33.015625 
L 54.890625 0 
L 45.90625 0 
L 45.90625 32.71875 
Q 45.90625 40.484375 42.875 44.328125 
Q 39.84375 48.1875 33.796875 48.1875 
Q 26.515625 48.1875 22.3125 43.546875 
Q 18.109375 38.921875 18.109375 30.90625 
L 18.109375 0 
L 9.078125 0 
L 9.078125 54.6875 
L 18.109375 54.6875 
L 18.109375 46.1875 
Q 21.34375 51.125 25.703125 53.5625 
Q 30.078125 56 35.796875 56 
Q 45.21875 56 50.046875 50.171875 
Q 54.890625 44.34375 54.890625 33.015625 
z
" id="DejaVuSans-110"/>
       <path d="M 44.28125 53.078125 
L 44.28125 44.578125 
Q 40.484375 46.53125 36.375 47.5 
Q 32.28125 48.484375 27.875 48.484375 
Q 21.1875 48.484375 17.84375 46.4375 
Q 14.5 44.390625 14.5 40.28125 
Q 14.5 37.15625 16.890625 35.375 
Q 19.28125 33.59375 26.515625 31.984375 
L 29.59375 31.296875 
Q 39.15625 29.25 43.1875 25.515625 
Q 47.21875 21.78125 47.21875 15.09375 
Q 47.21875 7.46875 41.1875 3.015625 
Q 35.15625 -1.421875 24.609375 -1.421875 
Q 20.21875 -1.421875 15.453125 -0.5625 
Q 10.6875 0.296875 5.421875 2 
L 5.421875 11.28125 
Q 10.40625 8.6875 15.234375 7.390625 
Q 20.0625 6.109375 24.8125 6.109375 
Q 31.15625 6.109375 34.5625 8.28125 
Q 37.984375 10.453125 37.984375 14.40625 
Q 37.984375 18.0625 35.515625 20.015625 
Q 33.0625 21.96875 24.703125 23.78125 
L 21.578125 24.515625 
Q 13.234375 26.265625 9.515625 29.90625 
Q 5.8125 33.546875 5.8125 39.890625 
Q 5.8125 47.609375 11.28125 51.796875 
Q 16.75 56 26.8125 56 
Q 31.78125 56 36.171875 55.265625 
Q 40.578125 54.546875 44.28125 53.078125 
z
" id="DejaVuSans-115"/>
       <path d="M 9.421875 54.6875 
L 18.40625 54.6875 
L 18.40625 0 
L 9.421875 0 
z
M 9.421875 75.984375 
L 18.40625 75.984375 
L 18.40625 64.59375 
L 9.421875 64.59375 
z
" id="DejaVuSans-105"/>
       <path d="M 18.3125 70.21875 
L 18.3125 54.6875 
L 36.8125 54.6875 
L 36.8125 47.703125 
L 18.3125 47.703125 
L 18.3125 18.015625 
Q 18.3125 11.328125 20.140625 9.421875 
Q 21.96875 7.515625 27.59375 7.515625 
L 36.8125 7.515625 
L 36.8125 0 
L 27.59375 0 
Q 17.1875 0 13.234375 3.875 
Q 9.28125 7.765625 9.28125 18.015625 
L 9.28125 47.703125 
L 2.6875 47.703125 
L 2.6875 54.6875 
L 9.28125 54.6875 
L 9.28125 70.21875 
z
" id="DejaVuSans-116"/>
       <path d="M 32.171875 -5.078125 
Q 28.375 -14.84375 24.75 -17.8125 
Q 21.140625 -20.796875 15.09375 -20.796875 
L 7.90625 -20.796875 
L 7.90625 -13.28125 
L 13.1875 -13.28125 
Q 16.890625 -13.28125 18.9375 -11.515625 
Q 21 -9.765625 23.484375 -3.21875 
L 25.09375 0.875 
L 2.984375 54.6875 
L 12.5 54.6875 
L 29.59375 11.921875 
L 46.6875 54.6875 
L 56.203125 54.6875 
z
" id="DejaVuSans-121"/>
       <path id="DejaVuSans-32"/>
       <path d="M 28.609375 0 
L 0.78125 72.90625 
L 11.078125 72.90625 
L 34.1875 11.53125 
L 57.328125 72.90625 
L 67.578125 72.90625 
L 39.796875 0 
z
" id="DejaVuSans-86"/>
       <path d="M 34.28125 27.484375 
Q 23.390625 27.484375 19.1875 25 
Q 14.984375 22.515625 14.984375 16.5 
Q 14.984375 11.71875 18.140625 8.90625 
Q 21.296875 6.109375 26.703125 6.109375 
Q 34.1875 6.109375 38.703125 11.40625 
Q 43.21875 16.703125 43.21875 25.484375 
L 43.21875 27.484375 
z
M 52.203125 31.203125 
L 52.203125 0 
L 43.21875 0 
L 43.21875 8.296875 
Q 40.140625 3.328125 35.546875 0.953125 
Q 30.953125 -1.421875 24.3125 -1.421875 
Q 15.921875 -1.421875 10.953125 3.296875 
Q 6 8.015625 6 15.921875 
Q 6 25.140625 12.171875 29.828125 
Q 18.359375 34.515625 30.609375 34.515625 
L 43.21875 34.515625 
L 43.21875 35.40625 
Q 43.21875 41.609375 39.140625 45 
Q 35.0625 48.390625 27.6875 48.390625 
Q 23 48.390625 18.546875 47.265625 
Q 14.109375 46.140625 10.015625 43.890625 
L 10.015625 52.203125 
Q 14.9375 54.109375 19.578125 55.046875 
Q 24.21875 56 28.609375 56 
Q 40.484375 56 46.34375 49.84375 
Q 52.203125 43.703125 52.203125 31.203125 
z
" id="DejaVuSans-97"/>
       <path d="M 9.421875 75.984375 
L 18.40625 75.984375 
L 18.40625 0 
L 9.421875 0 
z
" id="DejaVuSans-108"/>
       <path d="M 8.5 21.578125 
L 8.5 54.6875 
L 17.484375 54.6875 
L 17.484375 21.921875 
Q 17.484375 14.15625 20.5 10.265625 
Q 23.53125 6.390625 29.59375 6.390625 
Q 36.859375 6.390625 41.078125 11.03125 
Q 45.3125 15.671875 45.3125 23.6875 
L 45.3125 54.6875 
L 54.296875 54.6875 
L 54.296875 0 
L 45.3125 0 
L 45.3125 8.40625 
Q 42.046875 3.421875 37.71875 1 
Q 33.40625 -1.421875 27.6875 -1.421875 
Q 18.265625 -1.421875 13.375 4.4375 
Q 8.5 10.296875 8.5 21.578125 
z
M 31.109375 56 
z
" id="DejaVuSans-117"/>
      </defs>
      <use transform="translate(0 0.234375)" xlink:href="#DejaVuSans-68"/>
      <use transform="translate(77.001953 0.234375)" xlink:href="#DejaVuSans-101"/>
      <use transform="translate(138.525391 0.234375)" xlink:href="#DejaVuSans-110"/>
      <use transform="translate(201.904297 0.234375)" xlink:href="#DejaVuSans-115"/>
      <use transform="translate(254.003906 0.234375)" xlink:href="#DejaVuSans-105"/>
      <use transform="translate(281.787109 0.234375)" xlink:href="#DejaVuSans-116"/>
      <use transform="translate(320.996094 0.234375)" xlink:href="#DejaVuSans-121"/>
      <use transform="translate(380.175781 0.234375)" xlink:href="#DejaVuSans-32"/>
      <use transform="translate(411.962891 0.234375)" xlink:href="#DejaVuSans-86"/>
      <use transform="translate(480.371094 0.234375)" xlink:href="#DejaVuSans-97"/>
      <use transform="translate(541.650391 0.234375)" xlink:href="#DejaVuSans-108"/>
      <use transform="translate(569.433594 0.234375)" xlink:href="#DejaVuSans-117"/>
      <use transform="translate(632.8125 0.234375)" xlink:href="#DejaVuSans-101"/>
      <use transform="translate(694.335938 0.234375)" xlink:href="#DejaVuSans-32"/>
      <use transform="translate(726.123047 0.234375)" xlink:href="#DejaVuSans-97"/>
      <use transform="translate(787.402344 0.234375)" xlink:href="#DejaVuSans-116"/>
      <use transform="translate(826.611328 0.234375)" xlink:href="#DejaVuSans-32"/>
      <use transform="translate(858.398438 0.234375)" xlink:href="#DejaVuSans-Oblique-952"/>
     </g>
    </g>
   </g>
   <g id="line2d_14">
    <path clip-path="url(#p22a34d819f)" d="M 69.218182 240.708464 
L 72.292562 240.198109 
L 75.366942 239.601063 
L 78.441322 238.913632 
L 81.515702 238.134871 
L 84.590083 237.267157 
L 87.664463 236.31664 
L 90.738843 235.293511 
L 93.813223 234.212021 
L 96.887603 233.090211 
L 99.961983 231.94933 
L 103.036364 230.812929 
L 106.110744 229.705661 
L 109.185124 228.651851 
L 112.259504 227.673895 
L 115.333884 226.790637 
L 118.408264 226.015801 
L 121.482645 225.356653 
L 124.557025 224.812989 
L 127.631405 224.376571 
L 130.705785 224.031082 
L 133.780165 223.752652 
L 136.854545 223.510928 
L 139.928926 223.270648 
L 143.003306 222.993609 
L 146.077686 222.640877 
L 149.152066 222.175085 
L 152.226446 221.562616 
L 155.300826 220.775509 
L 158.375207 219.79292 
L 161.449587 218.602043 
L 164.523967 217.198432 
L 167.598347 215.585725 
L 170.672727 213.774857 
L 173.747107 211.782875 
L 176.821488 209.631533 
L 179.895868 207.345845 
L 182.970248 204.952775 
L 186.044628 202.480219 
L 189.119008 199.956368 
L 192.193388 197.409478 
L 195.267769 194.868026 
L 198.342149 192.361121 
L 201.416529 189.919031 
L 204.490909 187.573642 
L 207.565289 185.358659 
L 210.639669 183.309399 
L 213.71405 181.462091 
L 216.78843 179.852641 
L 219.86281 178.514941 
L 222.93719 177.478837 
L 226.01157 176.767971 
L 229.08595 176.397725 
L 232.160331 176.373511 
L 235.234711 176.689644 
L 238.309091 177.328949 
L 241.383471 178.263221 
L 244.457851 179.454542 
L 247.532231 180.857374 
L 250.606612 182.421287 
L 253.680992 184.09408 
L 256.755372 185.82506 
L 259.829752 187.568181 
L 262.904132 189.284803 
L 265.978512 190.945841 
L 269.052893 192.533149 
L 272.127273 194.040042 
L 275.201653 195.470932 
L 278.276033 196.840156 
L 281.350413 198.170086 
L 284.424793 199.488722 
L 287.499174 200.826945 
L 290.573554 202.21568 
L 293.647934 203.683165 
L 296.722314 205.252549 
L 299.796694 206.939967 
L 302.871074 208.753234 
L 305.945455 210.691209 
L 309.019835 212.743856 
L 312.094215 214.892953 
L 315.168595 217.113364 
L 318.242975 219.374734 
L 321.317355 221.643467 
L 324.391736 223.8848 
L 327.466116 226.064827 
L 330.540496 228.152319 
L 333.614876 230.120213 
L 336.689256 231.946714 
L 339.763636 233.615945 
L 342.838017 235.118164 
L 345.912397 236.449582 
L 348.986777 237.611841 
L 352.061157 238.611241 
L 355.135537 239.457809 
L 358.209917 240.164299 
L 361.284298 240.745203 
L 364.358678 241.215841 
L 367.433058 241.591574 
L 370.507438 241.887175 
L 373.581818 242.116364 
" style="fill:none;stroke:#1f77b4;stroke-linecap:square;stroke-width:1.5;"/>
   </g>
   <g id="line2d_15">
    <path clip-path="url(#p22a34d819f)" d="M 69.218182 241.155693 
L 72.292562 240.898417 
L 75.366942 240.606426 
L 78.441322 240.276185 
L 81.515702 239.903983 
L 84.590083 239.485956 
L 87.664463 239.018118 
L 90.738843 238.496389 
L 93.813223 237.916638 
L 96.887603 237.274728 
L 99.961983 236.566571 
L 103.036364 235.788183 
L 106.110744 234.935753 
L 109.185124 234.005711 
L 112.259504 232.994805 
L 115.333884 231.900178 
L 118.408264 230.719454 
L 121.482645 229.450817 
L 124.557025 228.093102 
L 127.631405 226.64587 
L 130.705785 225.109495 
L 133.780165 223.485236 
L 136.854545 221.775303 
L 139.928926 219.982923 
L 143.003306 218.112382 
L 146.077686 216.169066 
L 149.152066 214.159483 
L 152.226446 212.091267 
L 155.300826 209.973168 
L 158.375207 207.815025 
L 161.449587 205.627715 
L 164.523967 203.423087 
L 167.598347 201.213875 
L 170.672727 199.013589 
L 173.747107 196.836393 
L 176.821488 194.696963 
L 179.895868 192.61033 
L 182.970248 190.591709 
L 186.044628 188.656322 
L 189.119008 186.819207 
L 192.193388 185.095026 
L 195.267769 183.497873 
L 198.342149 182.041082 
L 201.416529 180.737043 
L 204.490909 179.597028 
L 207.565289 178.631025 
L 210.639669 177.847596 
L 213.71405 177.253749 
L 216.78843 176.854837 
L 219.86281 176.654471 
L 222.93719 176.654471 
L 226.01157 176.854837 
L 229.08595 177.253749 
L 232.160331 177.847596 
L 235.234711 178.631025 
L 238.309091 179.597028 
L 241.383471 180.737043 
L 244.457851 182.041082 
L 247.532231 183.497873 
L 250.606612 185.095026 
L 253.680992 186.819207 
L 256.755372 188.656322 
L 259.829752 190.591709 
L 262.904132 192.61033 
L 265.978512 194.696963 
L 269.052893 196.836393 
L 272.127273 199.013589 
L 275.201653 201.213875 
L 278.276033 203.423087 
L 281.350413 205.627715 
L 284.424793 207.815025 
L 287.499174 209.973168 
L 290.573554 212.091267 
L 293.647934 214.159483 
L 296.722314 216.169066 
L 299.796694 218.112382 
L 302.871074 219.982923 
L 305.945455 221.775303 
L 309.019835 223.485236 
L 312.094215 225.109495 
L 315.168595 226.64587 
L 318.242975 228.093102 
L 321.317355 229.450817 
L 324.391736 230.719454 
L 327.466116 231.900178 
L 330.540496 232.994805 
L 333.614876 234.005711 
L 336.689256 234.935753 
L 339.763636 235.788183 
L 342.838017 236.566571 
L 345.912397 237.274728 
L 348.986777 237.916638 
L 352.061157 238.496389 
L 355.135537 239.018118 
L 358.209917 239.485956 
L 361.284298 239.903983 
L 364.358678 240.276185 
L 367.433058 240.606426 
L 370.507438 240.898417 
L 373.581818 241.155693 
" style="fill:none;stroke:#ff7f0e;stroke-linecap:square;stroke-width:1.5;"/>
   </g>
   <g id="line2d_16">
    <path clip-path="url(#p22a34d819f)" d="M 69.218182 240.353596 
L 72.292562 239.967681 
L 75.366942 239.529695 
L 78.441322 239.034333 
L 81.515702 238.47603 
L 84.590083 237.848991 
L 87.664463 237.147234 
L 90.738843 236.36464 
L 93.813223 235.495013 
L 96.887603 234.532149 
L 99.961983 233.469913 
L 103.036364 232.302331 
L 106.110744 231.023686 
L 109.185124 229.628623 
L 112.259504 228.112264 
L 115.333884 226.470323 
L 118.408264 224.699237 
L 121.482645 222.796282 
L 124.557025 220.759709 
L 127.631405 218.588861 
L 130.705785 216.284299 
L 133.780165 213.84791 
L 136.854545 211.283011 
L 139.928926 208.594441 
L 143.003306 205.788629 
L 146.077686 202.873656 
L 149.152066 199.859281 
L 152.226446 196.756956 
L 155.300826 193.579808 
L 158.375207 190.342593 
L 161.449587 187.061629 
L 164.523967 183.754687 
L 167.598347 180.440869 
L 170.672727 177.14044 
L 173.747107 173.874646 
L 176.821488 170.665501 
L 179.895868 167.535551 
L 182.970248 164.50762 
L 186.044628 161.60454 
L 189.119008 158.848867 
L 192.193388 156.262595 
L 195.267769 153.866865 
L 198.342149 151.681679 
L 201.416529 149.725621 
L 204.490909 148.015598 
L 207.565289 146.566593 
L 210.639669 145.39145 
L 213.71405 144.50068 
L 216.78843 143.902311 
L 219.86281 143.601762 
L 222.93719 143.601762 
L 226.01157 143.902311 
L 229.08595 144.50068 
L 232.160331 145.39145 
L 235.234711 146.566593 
L 238.309091 148.015598 
L 241.383471 149.725621 
L 244.457851 151.681679 
L 247.532231 153.866865 
L 250.606612 156.262595 
L 253.680992 158.848867 
L 256.755372 161.60454 
L 259.829752 164.50762 
L 262.904132 167.535551 
L 265.978512 170.665501 
L 269.052893 173.874646 
L 272.127273 177.14044 
L 275.201653 180.440869 
L 278.276033 183.754687 
L 281.350413 187.061629 
L 284.424793 190.342593 
L 287.499174 193.579808 
L 290.573554 196.756956 
L 293.647934 199.859281 
L 296.722314 202.873656 
L 299.796694 205.788629 
L 302.871074 208.594441 
L 305.945455 211.283011 
L 309.019835 213.84791 
L 312.094215 216.284299 
L 315.168595 218.588861 
L 318.242975 220.759709 
L 321.317355 222.796282 
L 324.391736 224.699237 
L 327.466116 226.470323 
L 330.540496 228.112264 
L 333.614876 229.628623 
L 336.689256 231.023686 
L 339.763636 232.302331 
L 342.838017 233.469913 
L 345.912397 234.532149 
L 348.986777 235.495013 
L 352.061157 236.36464 
L 355.135537 237.147234 
L 358.209917 237.848991 
L 361.284298 238.47603 
L 364.358678 239.034333 
L 367.433058 239.529695 
L 370.507438 239.967681 
L 373.581818 240.353596 
" style="fill:none;stroke:#2ca02c;stroke-linecap:square;stroke-width:1.5;"/>
   </g>
   <g id="line2d_17">
    <path clip-path="url(#p22a34d819f)" d="M 69.218182 239.551498 
L 72.292562 239.036946 
L 75.366942 238.452964 
L 78.441322 237.792482 
L 81.515702 237.048077 
L 84.590083 236.212025 
L 87.664463 235.276349 
L 90.738843 234.232891 
L 93.813223 233.073389 
L 96.887603 231.789569 
L 99.961983 230.373255 
L 103.036364 228.816479 
L 106.110744 227.111619 
L 109.185124 225.251535 
L 112.259504 223.229722 
L 115.333884 221.040469 
L 118.408264 218.67902 
L 121.482645 216.141747 
L 124.557025 213.426316 
L 127.631405 210.531852 
L 130.705785 207.459103 
L 133.780165 204.210584 
L 136.854545 200.790719 
L 139.928926 197.205958 
L 143.003306 193.464876 
L 146.077686 189.578245 
L 149.152066 185.559079 
L 152.226446 181.422646 
L 155.300826 177.186448 
L 158.375207 172.870162 
L 161.449587 168.495542 
L 164.523967 164.086287 
L 167.598347 159.667863 
L 170.672727 155.26729 
L 173.747107 150.912898 
L 176.821488 146.634038 
L 179.895868 142.460772 
L 182.970248 138.423531 
L 186.044628 134.552757 
L 189.119008 130.878527 
L 192.193388 127.430164 
L 195.267769 124.235858 
L 198.342149 121.322276 
L 201.416529 118.714199 
L 204.490909 116.434168 
L 207.565289 114.502162 
L 210.639669 112.935304 
L 213.71405 111.747611 
L 216.78843 110.949786 
L 219.86281 110.549053 
L 222.93719 110.549053 
L 226.01157 110.949786 
L 229.08595 111.747611 
L 232.160331 112.935304 
L 235.234711 114.502162 
L 238.309091 116.434168 
L 241.383471 118.714199 
L 244.457851 121.322276 
L 247.532231 124.235858 
L 250.606612 127.430164 
L 253.680992 130.878527 
L 256.755372 134.552757 
L 259.829752 138.423531 
L 262.904132 142.460772 
L 265.978512 146.634038 
L 269.052893 150.912898 
L 272.127273 155.26729 
L 275.201653 159.667863 
L 278.276033 164.086287 
L 281.350413 168.495542 
L 284.424793 172.870162 
L 287.499174 177.186448 
L 290.573554 181.422646 
L 293.647934 185.559079 
L 296.722314 189.578245 
L 299.796694 193.464876 
L 302.871074 197.205958 
L 305.945455 200.790719 
L 309.019835 204.210584 
L 312.094215 207.459103 
L 315.168595 210.531852 
L 318.242975 213.426316 
L 321.317355 216.141747 
L 324.391736 218.67902 
L 327.466116 221.040469 
L 330.540496 223.229722 
L 333.614876 225.251535 
L 336.689256 227.111619 
L 339.763636 228.816479 
L 342.838017 230.373255 
L 345.912397 231.789569 
L 348.986777 233.073389 
L 352.061157 234.232891 
L 355.135537 235.276349 
L 358.209917 236.212025 
L 361.284298 237.048077 
L 364.358678 237.792482 
L 367.433058 238.452964 
L 370.507438 239.036946 
L 373.581818 239.551498 
" style="fill:none;stroke:#d62728;stroke-linecap:square;stroke-width:1.5;"/>
   </g>
   <g id="line2d_18">
    <path clip-path="url(#p22a34d819f)" d="M 69.218182 238.749401 
L 72.292562 238.10621 
L 75.366942 237.376234 
L 78.441322 236.550631 
L 81.515702 235.620125 
L 84.590083 234.575059 
L 87.664463 233.405464 
L 90.738843 232.101142 
L 93.813223 230.651764 
L 96.887603 229.04699 
L 99.961983 227.276596 
L 103.036364 225.330627 
L 106.110744 223.199552 
L 109.185124 220.874447 
L 112.259504 218.347181 
L 115.333884 215.610614 
L 118.408264 212.658803 
L 121.482645 209.487212 
L 124.557025 206.092923 
L 127.631405 202.474843 
L 130.705785 198.633907 
L 133.780165 194.573258 
L 136.854545 190.298427 
L 139.928926 185.817476 
L 143.003306 181.141123 
L 146.077686 176.282835 
L 149.152066 171.258877 
L 152.226446 166.088335 
L 155.300826 160.793088 
L 158.375207 155.397731 
L 161.449587 149.929456 
L 164.523967 144.417887 
L 167.598347 138.894856 
L 170.672727 133.394141 
L 173.747107 127.951151 
L 176.821488 122.602576 
L 179.895868 117.385993 
L 182.970248 112.339442 
L 186.044628 107.500975 
L 189.119008 102.908186 
L 192.193388 98.597733 
L 195.267769 94.60485 
L 198.342149 90.962873 
L 201.416529 87.702777 
L 204.490909 84.852738 
L 207.565289 82.43773 
L 210.639669 80.479158 
L 213.71405 78.994542 
L 216.78843 77.997261 
L 219.86281 77.496345 
L 222.93719 77.496345 
L 226.01157 77.997261 
L 229.08595 78.994542 
L 232.160331 80.479158 
L 235.234711 82.43773 
L 238.309091 84.852738 
L 241.383471 87.702777 
L 244.457851 90.962873 
L 247.532231 94.60485 
L 250.606612 98.597733 
L 253.680992 102.908186 
L 256.755372 107.500975 
L 259.829752 112.339442 
L 262.904132 117.385993 
L 265.978512 122.602576 
L 269.052893 127.951151 
L 272.127273 133.394141 
L 275.201653 138.894856 
L 278.276033 144.417887 
L 281.350413 149.929456 
L 284.424793 155.397731 
L 287.499174 160.793088 
L 290.573554 166.088335 
L 293.647934 171.258877 
L 296.722314 176.282835 
L 299.796694 181.141123 
L 302.871074 185.817476 
L 305.945455 190.298427 
L 309.019835 194.573258 
L 312.094215 198.633907 
L 315.168595 202.474843 
L 318.242975 206.092923 
L 321.317355 209.487212 
L 324.391736 212.658803 
L 327.466116 215.610614 
L 330.540496 218.347181 
L 333.614876 220.874447 
L 336.689256 223.199552 
L 339.763636 225.330627 
L 342.838017 227.276596 
L 345.912397 229.04699 
L 348.986777 230.651764 
L 352.061157 232.101142 
L 355.135537 233.405464 
L 358.209917 234.575059 
L 361.284298 235.620125 
L 364.358678 236.550631 
L 367.433058 237.376234 
L 370.507438 238.10621 
L 373.581818 238.749401 
" style="fill:none;stroke:#9467bd;stroke-linecap:square;stroke-width:1.5;"/>
   </g>
   <g id="line2d_19">
    <path clip-path="url(#p22a34d819f)" d="M 69.218182 237.947304 
L 72.292562 237.175475 
L 75.366942 236.299503 
L 78.441322 235.308779 
L 81.515702 234.192172 
L 84.590083 232.938094 
L 87.664463 231.53458 
L 90.738843 229.969393 
L 93.813223 228.230139 
L 96.887603 226.30441 
L 99.961983 224.179938 
L 103.036364 221.844775 
L 106.110744 219.287485 
L 109.185124 216.497359 
L 112.259504 213.46464 
L 115.333884 210.180759 
L 118.408264 206.638586 
L 121.482645 202.832676 
L 124.557025 198.75953 
L 127.631405 194.417835 
L 130.705785 189.80871 
L 133.780165 184.935932 
L 136.854545 179.806134 
L 139.928926 174.428993 
L 143.003306 168.817371 
L 146.077686 162.987424 
L 149.152066 156.958674 
L 152.226446 150.754025 
L 155.300826 144.399728 
L 158.375207 137.925299 
L 161.449587 131.36337 
L 164.523967 124.749487 
L 167.598347 118.12185 
L 170.672727 111.520992 
L 173.747107 104.989403 
L 176.821488 98.571113 
L 179.895868 92.311214 
L 182.970248 86.255353 
L 186.044628 80.449192 
L 189.119008 74.937846 
L 192.193388 69.765303 
L 195.267769 64.973843 
L 198.342149 60.60347 
L 201.416529 56.691355 
L 204.490909 53.271308 
L 207.565289 50.373299 
L 210.639669 48.023012 
L 213.71405 46.241473 
L 216.78843 45.044735 
L 219.86281 44.443636 
L 222.93719 44.443636 
L 226.01157 45.044735 
L 229.08595 46.241473 
L 232.160331 48.023012 
L 235.234711 50.373299 
L 238.309091 53.271308 
L 241.383471 56.691355 
L 244.457851 60.60347 
L 247.532231 64.973843 
L 250.606612 69.765303 
L 253.680992 74.937846 
L 256.755372 80.449192 
L 259.829752 86.255353 
L 262.904132 92.311214 
L 265.978512 98.571113 
L 269.052893 104.989403 
L 272.127273 111.520992 
L 275.201653 118.12185 
L 278.276033 124.749487 
L 281.350413 131.36337 
L 284.424793 137.925299 
L 287.499174 144.399728 
L 290.573554 150.754025 
L 293.647934 156.958674 
L 296.722314 162.987424 
L 299.796694 168.817371 
L 302.871074 174.428993 
L 305.945455 179.806134 
L 309.019835 184.935932 
L 312.094215 189.80871 
L 315.168595 194.417835 
L 318.242975 198.75953 
L 321.317355 202.832676 
L 324.391736 206.638586 
L 327.466116 210.180759 
L 330.540496 213.46464 
L 333.614876 216.497359 
L 336.689256 219.287485 
L 339.763636 221.844775 
L 342.838017 224.179938 
L 345.912397 226.30441 
L 348.986777 228.230139 
L 352.061157 229.969393 
L 355.135537 231.53458 
L 358.209917 232.938094 
L 361.284298 234.192172 
L 364.358678 235.308779 
L 367.433058 236.299503 
L 370.507438 237.175475 
L 373.581818 237.947304 
" style="fill:none;stroke:#8c564b;stroke-linecap:square;stroke-width:1.5;"/>
   </g>
   <g id="patch_3">
    <path d="M 54 252 
L 54 34.56 
" style="fill:none;stroke:#000000;stroke-linecap:square;stroke-linejoin:miter;stroke-width:0.8;"/>
   </g>
   <g id="patch_4">
    <path d="M 388.8 252 
L 388.8 34.56 
" style="fill:none;stroke:#000000;stroke-linecap:square;stroke-linejoin:miter;stroke-width:0.8;"/>
   </g>
   <g id="patch_5">
    <path d="M 54 252 
L 388.8 252 
" style="fill:none;stroke:#000000;stroke-linecap:square;stroke-linejoin:miter;stroke-width:0.8;"/>
   </g>
   <g id="patch_6">
    <path d="M 54 34.56 
L 388.8 34.56 
" style="fill:none;stroke:#000000;stroke-linecap:square;stroke-linejoin:miter;stroke-width:0.8;"/>
   </g>
   <g id="legend_1">
    <g id="patch_7">
     <path d="M 313.6 131.36 
L 381.8 131.36 
Q 383.8 131.36 383.8 129.36 
L 383.8 41.56 
Q 383.8 39.56 381.8 39.56 
L 313.6 39.56 
Q 311.6 39.56 311.6 41.56 
L 311.6 129.36 
Q 311.6 131.36 313.6 131.36 
z
" style="fill:#ffffff;opacity:0.8;stroke:#cccccc;stroke-linejoin:miter;"/>
    </g>
    <g id="line2d_20">
     <path d="M 315.6 47.76 
L 335.6 47.76 
" style="fill:none;stroke:#1f77b4;stroke-linecap:square;stroke-width:1.5;"/>
    </g>
    <g id="line2d_21"/>
    <g id="text_16">
     <!-- $q(\theta)$ -->
     <g transform="translate(343.6 51.26)scale(0.1 -0.1)">
      <defs>
       <path d="M 41.703125 8.203125 
Q 38.09375 3.46875 33.171875 1.015625 
Q 28.265625 -1.421875 22.3125 -1.421875 
Q 14.015625 -1.421875 9.296875 4.171875 
Q 4.59375 9.765625 4.59375 19.578125 
Q 4.59375 27.484375 7.5 34.859375 
Q 10.40625 42.234375 15.828125 48.09375 
Q 19.34375 51.90625 23.90625 53.953125 
Q 28.46875 56 33.5 56 
Q 39.546875 56 43.453125 53.609375 
Q 47.359375 51.21875 49.125 46.390625 
L 50.6875 54.59375 
L 59.71875 54.59375 
L 45.125 -20.609375 
L 36.078125 -20.609375 
z
M 13.921875 20.90625 
Q 13.921875 13.671875 16.9375 9.890625 
Q 19.96875 6.109375 25.6875 6.109375 
Q 34.1875 6.109375 40.1875 14.234375 
Q 46.1875 22.359375 46.1875 33.984375 
Q 46.1875 41.015625 43.078125 44.75 
Q 39.984375 48.484375 34.1875 48.484375 
Q 29.9375 48.484375 26.3125 46.5 
Q 22.703125 44.53125 20.015625 40.71875 
Q 17.1875 36.71875 15.546875 31.34375 
Q 13.921875 25.984375 13.921875 20.90625 
z
" id="DejaVuSans-Oblique-113"/>
       <path d="M 31 75.875 
Q 24.46875 64.65625 21.28125 53.65625 
Q 18.109375 42.671875 18.109375 31.390625 
Q 18.109375 20.125 21.3125 9.0625 
Q 24.515625 -2 31 -13.1875 
L 23.1875 -13.1875 
Q 15.875 -1.703125 12.234375 9.375 
Q 8.59375 20.453125 8.59375 31.390625 
Q 8.59375 42.28125 12.203125 53.3125 
Q 15.828125 64.359375 23.1875 75.875 
z
" id="DejaVuSans-40"/>
       <path d="M 8.015625 75.875 
L 15.828125 75.875 
Q 23.140625 64.359375 26.78125 53.3125 
Q 30.421875 42.28125 30.421875 31.390625 
Q 30.421875 20.453125 26.78125 9.375 
Q 23.140625 -1.703125 15.828125 -13.1875 
L 8.015625 -13.1875 
Q 14.5 -2 17.703125 9.0625 
Q 20.90625 20.125 20.90625 31.390625 
Q 20.90625 42.671875 17.703125 53.65625 
Q 14.5 64.65625 8.015625 75.875 
z
" id="DejaVuSans-41"/>
      </defs>
      <use transform="translate(0 0.234375)" xlink:href="#DejaVuSans-Oblique-113"/>
      <use transform="translate(63.476562 0.234375)" xlink:href="#DejaVuSans-40"/>
      <use transform="translate(102.490234 0.234375)" xlink:href="#DejaVuSans-Oblique-952"/>
      <use transform="translate(163.671875 0.234375)" xlink:href="#DejaVuSans-41"/>
     </g>
    </g>
    <g id="line2d_22">
     <path d="M 315.6 62.56 
L 335.6 62.56 
" style="fill:none;stroke:#ff7f0e;stroke-linecap:square;stroke-width:1.5;"/>
    </g>
    <g id="line2d_23"/>
    <g id="text_17">
     <!-- $1.0g(\theta)$ -->
     <g transform="translate(343.6 66.06)scale(0.1 -0.1)">
      <defs>
       <path d="M 59.625 54.6875 
L 50.296875 6.78125 
Q 47.609375 -7.125 40.015625 -13.953125 
Q 32.421875 -20.796875 19.578125 -20.796875 
Q 14.84375 -20.796875 10.78125 -20.09375 
Q 6.734375 -19.390625 3.21875 -17.921875 
L 4.890625 -9.1875 
Q 8.203125 -11.328125 11.90625 -12.34375 
Q 15.625 -13.375 19.828125 -13.375 
Q 28.375 -13.375 33.859375 -8.703125 
Q 39.359375 -4.046875 41.109375 4.6875 
L 41.890625 8.796875 
Q 38.140625 4.5 33.15625 2.25 
Q 28.171875 0 22.40625 0 
Q 14.109375 0 9.34375 5.484375 
Q 4.59375 10.984375 4.59375 20.609375 
Q 4.59375 28.171875 7.46875 35.421875 
Q 10.359375 42.671875 15.578125 48.296875 
Q 19.046875 52 23.65625 54 
Q 28.265625 56 33.296875 56 
Q 38.8125 56 42.90625 53.4375 
Q 47.015625 50.875 49.03125 46.1875 
L 50.59375 54.6875 
z
M 46.09375 34.625 
Q 46.09375 41.265625 42.96875 44.875 
Q 39.84375 48.484375 34.078125 48.484375 
Q 30.515625 48.484375 27.296875 47.0625 
Q 24.078125 45.65625 21.78125 43.109375 
Q 18.0625 38.921875 15.984375 33.234375 
Q 13.921875 27.546875 13.921875 21.484375 
Q 13.921875 14.75 17.0625 11.125 
Q 20.21875 7.515625 26.125 7.515625 
Q 34.671875 7.515625 40.375 15.25 
Q 46.09375 23 46.09375 34.625 
z
" id="DejaVuSans-Oblique-103"/>
      </defs>
      <use transform="translate(0 0.234375)" xlink:href="#DejaVuSans-49"/>
      <use transform="translate(63.623047 0.234375)" xlink:href="#DejaVuSans-46"/>
      <use transform="translate(95.410156 0.234375)" xlink:href="#DejaVuSans-48"/>
      <use transform="translate(159.033203 0.234375)" xlink:href="#DejaVuSans-Oblique-103"/>
      <use transform="translate(222.509766 0.234375)" xlink:href="#DejaVuSans-40"/>
      <use transform="translate(261.523438 0.234375)" xlink:href="#DejaVuSans-Oblique-952"/>
      <use transform="translate(322.705078 0.234375)" xlink:href="#DejaVuSans-41"/>
     </g>
    </g>
    <g id="line2d_24">
     <path d="M 315.6 77.36 
L 335.6 77.36 
" style="fill:none;stroke:#2ca02c;stroke-linecap:square;stroke-width:1.5;"/>
    </g>
    <g id="line2d_25"/>
    <g id="text_18">
     <!-- $1.5g(\theta)$ -->
     <g transform="translate(343.6 80.86)scale(0.1 -0.1)">
      <defs>
       <path d="M 10.796875 72.90625 
L 49.515625 72.90625 
L 49.515625 64.59375 
L 19.828125 64.59375 
L 19.828125 46.734375 
Q 21.96875 47.46875 24.109375 47.828125 
Q 26.265625 48.1875 28.421875 48.1875 
Q 40.625 48.1875 47.75 41.5 
Q 54.890625 34.8125 54.890625 23.390625 
Q 54.890625 11.625 47.5625 5.09375 
Q 40.234375 -1.421875 26.90625 -1.421875 
Q 22.3125 -1.421875 17.546875 -0.640625 
Q 12.796875 0.140625 7.71875 1.703125 
L 7.71875 11.625 
Q 12.109375 9.234375 16.796875 8.0625 
Q 21.484375 6.890625 26.703125 6.890625 
Q 35.15625 6.890625 40.078125 11.328125 
Q 45.015625 15.765625 45.015625 23.390625 
Q 45.015625 31 40.078125 35.4375 
Q 35.15625 39.890625 26.703125 39.890625 
Q 22.75 39.890625 18.8125 39.015625 
Q 14.890625 38.140625 10.796875 36.28125 
z
" id="DejaVuSans-53"/>
      </defs>
      <use transform="translate(0 0.234375)" xlink:href="#DejaVuSans-49"/>
      <use transform="translate(63.623047 0.234375)" xlink:href="#DejaVuSans-46"/>
      <use transform="translate(95.410156 0.234375)" xlink:href="#DejaVuSans-53"/>
      <use transform="translate(159.033203 0.234375)" xlink:href="#DejaVuSans-Oblique-103"/>
      <use transform="translate(222.509766 0.234375)" xlink:href="#DejaVuSans-40"/>
      <use transform="translate(261.523438 0.234375)" xlink:href="#DejaVuSans-Oblique-952"/>
      <use transform="translate(322.705078 0.234375)" xlink:href="#DejaVuSans-41"/>
     </g>
    </g>
    <g id="line2d_26">
     <path d="M 315.6 92.16 
L 335.6 92.16 
" style="fill:none;stroke:#d62728;stroke-linecap:square;stroke-width:1.5;"/>
    </g>
    <g id="line2d_27"/>
    <g id="text_19">
     <!-- $2.0g(\theta)$ -->
     <g transform="translate(343.6 95.66)scale(0.1 -0.1)">
      <use transform="translate(0 0.234375)" xlink:href="#DejaVuSans-50"/>
      <use transform="translate(63.623047 0.234375)" xlink:href="#DejaVuSans-46"/>
      <use transform="translate(95.410156 0.234375)" xlink:href="#DejaVuSans-48"/>
      <use transform="translate(159.033203 0.234375)" xlink:href="#DejaVuSans-Oblique-103"/>
      <use transform="translate(222.509766 0.234375)" xlink:href="#DejaVuSans-40"/>
      <use transform="translate(261.523438 0.234375)" xlink:href="#DejaVuSans-Oblique-952"/>
      <use transform="translate(322.705078 0.234375)" xlink:href="#DejaVuSans-41"/>
     </g>
    </g>
    <g id="line2d_28">
     <path d="M 315.6 106.96 
L 335.6 106.96 
" style="fill:none;stroke:#9467bd;stroke-linecap:square;stroke-width:1.5;"/>
    </g>
    <g id="line2d_29"/>
    <g id="text_20">
     <!-- $2.5g(\theta)$ -->
     <g transform="translate(343.6 110.46)scale(0.1 -0.1)">
      <use transform="translate(0 0.234375)" xlink:href="#DejaVuSans-50"/>
      <use transform="translate(63.623047 0.234375)" xlink:href="#DejaVuSans-46"/>
      <use transform="translate(95.410156 0.234375)" xlink:href="#DejaVuSans-53"/>
      <use transform="translate(159.033203 0.234375)" xlink:href="#DejaVuSans-Oblique-103"/>
      <use transform="translate(222.509766 0.234375)" xlink:href="#DejaVuSans-40"/>
      <use transform="translate(261.523438 0.234375)" xlink:href="#DejaVuSans-Oblique-952"/>
      <use transform="translate(322.705078 0.234375)" xlink:href="#DejaVuSans-41"/>
     </g>
    </g>
    <g id="line2d_30">
     <path d="M 315.6 121.76 
L 335.6 121.76 
" style="fill:none;stroke:#8c564b;stroke-linecap:square;stroke-width:1.5;"/>
    </g>
    <g id="line2d_31"/>
    <g id="text_21">
     <!-- $3.0g(\theta)$ -->
     <g transform="translate(343.6 125.26)scale(0.1 -0.1)">
      <use transform="translate(0 0.234375)" xlink:href="#DejaVuSans-51"/>
      <use transform="translate(63.623047 0.234375)" xlink:href="#DejaVuSans-46"/>
      <use transform="translate(95.410156 0.234375)" xlink:href="#DejaVuSans-48"/>
      <use transform="translate(159.033203 0.234375)" xlink:href="#DejaVuSans-Oblique-103"/>
      <use transform="translate(222.509766 0.234375)" xlink:href="#DejaVuSans-40"/>
      <use transform="translate(261.523438 0.234375)" xlink:href="#DejaVuSans-Oblique-952"/>
      <use transform="translate(322.705078 0.234375)" xlink:href="#DejaVuSans-41"/>
     </g>
    </g>
   </g>
  </g>
 </g>
 <defs>
  <clipPath id="p22a34d819f">
   <rect height="217.44" width="334.8" x="54" y="34.56"/>
  </clipPath>
 </defs>
</svg>
