<?xml version="1.0" encoding="utf-8" standalone="no"?>
<!DOCTYPE svg PUBLIC "-//W3C//DTD SVG 1.1//EN"
  "http://www.w3.org/Graphics/SVG/1.1/DTD/svg11.dtd">
<!-- Created with matplotlib (https://matplotlib.org/) -->
<svg height="369.62pt" version="1.1" viewBox="0 0 491.210938 369.62" width="491.210938pt" xmlns="http://www.w3.org/2000/svg" xmlns:xlink="http://www.w3.org/1999/xlink">
 <defs>
  <style type="text/css">
*{stroke-linecap:butt;stroke-linejoin:round;}
  </style>
 </defs>
 <g id="figure_1">
  <g id="patch_1">
   <path d="M 0 369.62
L 491.210938 369.62
L 491.210938 0
L 0 0
z
" style="fill:#ffffff;"/>
  </g>
  <g id="axes_1">
   <g id="patch_2">
    <path d="M 56.805937 121.663306
L 178.382221 121.663306
L 178.382221 46.8
L 56.805937 46.8
z
" style="fill:#ffffff;"/>
   </g>
   <g id="matplotlib.axis_1">
    <g id="xtick_1">
     <g id="line2d_1">
      <defs>
       <path d="M 0 0
L 0 6
" id="m96a5203407" style="stroke:#262626;stroke-width:1.25;"/>
      </defs>
      <g>
       <use style="fill:#262626;stroke:#262626;stroke-width:1.25;" x="111.453863" xlink:href="#m96a5203407" y="121.663306"/>
      </g>
     </g>
    </g>
    <g id="xtick_2">
     <g id="line2d_2">
      <g>
       <use style="fill:#262626;stroke:#262626;stroke-width:1.25;" x="172.856026" xlink:href="#m96a5203407" y="121.663306"/>
      </g>
     </g>
    </g>
   </g>
   <g id="matplotlib.axis_2">
    <g id="ytick_1">
     <g id="line2d_3">
      <defs>
       <path d="M 0 0
L -6 0
" id="m33a4be048b" style="stroke:#262626;stroke-width:1.25;"/>
      </defs>
      <g>
       <use style="fill:#262626;stroke:#262626;stroke-width:1.25;" x="56.805937" xlink:href="#m33a4be048b" y="88.582158"/>
      </g>
     </g>
     <g id="text_1">
      <!-- 1 -->
      <defs>
       <path d="M 12.40625 8.296875
L 28.515625 8.296875
L 28.515625 63.921875
L 10.984375 60.40625
L 10.984375 69.390625
L 28.421875 72.90625
L 38.28125 72.90625
L 38.28125 8.296875
L 54.390625 8.296875
L 54.390625 0
L 12.40625 0
z
" id="DejaVuSans-49"/>
      </defs>
      <g style="fill:#262626;" transform="translate(40.307187 92.761299)scale(0.11 -0.11)">
       <use xlink:href="#DejaVuSans-49"/>
      </g>
     </g>
    </g>
    <g id="ytick_2">
     <g id="line2d_4">
      <g>
       <use style="fill:#262626;stroke:#262626;stroke-width:1.25;" x="56.805937" xlink:href="#m33a4be048b" y="54.816152"/>
      </g>
     </g>
     <g id="text_2">
      <!-- 2 -->
      <defs>
       <path d="M 19.1875 8.296875
L 53.609375 8.296875
L 53.609375 0
L 7.328125 0
L 7.328125 8.296875
Q 12.9375 14.109375 22.625 23.890625
Q 32.328125 33.6875 34.8125 36.53125
Q 39.546875 41.84375 41.421875 45.53125
Q 43.3125 49.21875 43.3125 52.78125
Q 43.3125 58.59375 39.234375 62.25
Q 35.15625 65.921875 28.609375 65.921875
Q 23.96875 65.921875 18.8125 64.3125
Q 13.671875 62.703125 7.8125 59.421875
L 7.8125 69.390625
Q 13.765625 71.78125 18.9375 73
Q 24.125 74.21875 28.421875 74.21875
Q 39.75 74.21875 46.484375 68.546875
Q 53.21875 62.890625 53.21875 53.421875
Q 53.21875 48.921875 51.53125 44.890625
Q 49.859375 40.875 45.40625 35.40625
Q 44.1875 33.984375 37.640625 27.21875
Q 31.109375 20.453125 19.1875 8.296875
z
" id="DejaVuSans-50"/>
      </defs>
      <g style="fill:#262626;" transform="translate(40.307187 58.995293)scale(0.11 -0.11)">
       <use xlink:href="#DejaVuSans-50"/>
      </g>
     </g>
    </g>
    <g id="text_3">
     <!-- Time (s) -->
     <defs>
      <path d="M -0.296875 72.90625
L 61.375 72.90625
L 61.375 64.59375
L 35.5 64.59375
L 35.5 0
L 25.59375 0
L 25.59375 64.59375
L -0.296875 64.59375
z
" id="DejaVuSans-84"/>
      <path d="M 9.421875 54.6875
L 18.40625 54.6875
L 18.40625 0
L 9.421875 0
z
M 9.421875 75.984375
L 18.40625 75.984375
L 18.40625 64.59375
L 9.421875 64.59375
z
" id="DejaVuSans-105"/>
      <path d="M 52 44.1875
Q 55.375 50.25 60.0625 53.125
Q 64.75 56 71.09375 56
Q 79.640625 56 84.28125 50.015625
Q 88.921875 44.046875 88.921875 33.015625
L 88.921875 0
L 79.890625 0
L 79.890625 32.71875
Q 79.890625 40.578125 77.09375 44.375
Q 74.3125 48.1875 68.609375 48.1875
Q 61.625 48.1875 57.5625 43.546875
Q 53.515625 38.921875 53.515625 30.90625
L 53.515625 0
L 44.484375 0
L 44.484375 32.71875
Q 44.484375 40.625 41.703125 44.40625
Q 38.921875 48.1875 33.109375 48.1875
Q 26.21875 48.1875 22.15625 43.53125
Q 18.109375 38.875 18.109375 30.90625
L 18.109375 0
L 9.078125 0
L 9.078125 54.6875
L 18.109375 54.6875
L 18.109375 46.1875
Q 21.1875 51.21875 25.484375 53.609375
Q 29.78125 56 35.6875 56
Q 41.65625 56 45.828125 52.96875
Q 50 49.953125 52 44.1875
z
" id="DejaVuSans-109"/>
      <path d="M 56.203125 29.59375
L 56.203125 25.203125
L 14.890625 25.203125
Q 15.484375 15.921875 20.484375 11.0625
Q 25.484375 6.203125 34.421875 6.203125
Q 39.59375 6.203125 44.453125 7.46875
Q 49.3125 8.734375 54.109375 11.28125
L 54.109375 2.78125
Q 49.265625 0.734375 44.1875 -0.34375
Q 39.109375 -1.421875 33.890625 -1.421875
Q 20.796875 -1.421875 13.15625 6.1875
Q 5.515625 13.8125 5.515625 26.8125
Q 5.515625 40.234375 12.765625 48.109375
Q 20.015625 56 32.328125 56
Q 43.359375 56 49.78125 48.890625
Q 56.203125 41.796875 56.203125 29.59375
z
M 47.21875 32.234375
Q 47.125 39.59375 43.09375 43.984375
Q 39.0625 48.390625 32.421875 48.390625
Q 24.90625 48.390625 20.390625 44.140625
Q 15.875 39.890625 15.1875 32.171875
z
" id="DejaVuSans-101"/>
      <path id="DejaVuSans-32"/>
      <path d="M 31 75.875
Q 24.46875 64.65625 21.28125 53.65625
Q 18.109375 42.671875 18.109375 31.390625
Q 18.109375 20.125 21.3125 9.0625
Q 24.515625 -2 31 -13.1875
L 23.1875 -13.1875
Q 15.875 -1.703125 12.234375 9.375
Q 8.59375 20.453125 8.59375 31.390625
Q 8.59375 42.28125 12.203125 53.3125
Q 15.828125 64.359375 23.1875 75.875
z
" id="DejaVuSans-40"/>
      <path d="M 44.28125 53.078125
L 44.28125 44.578125
Q 40.484375 46.53125 36.375 47.5
Q 32.28125 48.484375 27.875 48.484375
Q 21.1875 48.484375 17.84375 46.4375
Q 14.5 44.390625 14.5 40.28125
Q 14.5 37.15625 16.890625 35.375
Q 19.28125 33.59375 26.515625 31.984375
L 29.59375 31.296875
Q 39.15625 29.25 43.1875 25.515625
Q 47.21875 21.78125 47.21875 15.09375
Q 47.21875 7.46875 41.1875 3.015625
Q 35.15625 -1.421875 24.609375 -1.421875
Q 20.21875 -1.421875 15.453125 -0.5625
Q 10.6875 0.296875 5.421875 2
L 5.421875 11.28125
Q 10.40625 8.6875 15.234375 7.390625
Q 20.0625 6.109375 24.8125 6.109375
Q 31.15625 6.109375 34.5625 8.28125
Q 37.984375 10.453125 37.984375 14.40625
Q 37.984375 18.0625 35.515625 20.015625
Q 33.0625 21.96875 24.703125 23.78125
L 21.578125 24.515625
Q 13.234375 26.265625 9.515625 29.90625
Q 5.8125 33.546875 5.8125 39.890625
Q 5.8125 47.609375 11.28125 51.796875
Q 16.75 56 26.8125 56
Q 31.78125 56 36.171875 55.265625
Q 40.578125 54.546875 44.28125 53.078125
z
" id="DejaVuSans-115"/>
      <path d="M 8.015625 75.875
L 15.828125 75.875
Q 23.140625 64.359375 26.78125 53.3125
Q 30.421875 42.28125 30.421875 31.390625
Q 30.421875 20.453125 26.78125 9.375
Q 23.140625 -1.703125 15.828125 -13.1875
L 8.015625 -13.1875
Q 14.5 -2 17.703125 9.0625
Q 20.90625 20.125 20.90625 31.390625
Q 20.90625 42.671875 17.703125 53.65625
Q 14.5 64.65625 8.015625 75.875
z
" id="DejaVuSans-41"/>
     </defs>
     <g style="fill:#262626;" transform="translate(33.811562 108.62634)rotate(-90)scale(0.12 -0.12)">
      <use xlink:href="#DejaVuSans-84"/>
      <use x="57.958984" xlink:href="#DejaVuSans-105"/>
      <use x="85.742188" xlink:href="#DejaVuSans-109"/>
      <use x="183.154297" xlink:href="#DejaVuSans-101"/>
      <use x="244.677734" xlink:href="#DejaVuSans-32"/>
      <use x="276.464844" xlink:href="#DejaVuSans-40"/>
      <use x="315.478516" xlink:href="#DejaVuSans-115"/>
      <use x="367.578125" xlink:href="#DejaVuSans-41"/>
     </g>
    </g>
   </g>
   <g id="PolyCollection_1">
    <defs>
     <path d="M 62.332132 -255.289351
L 62.332132 -254.000921
L 74.612565 -260.731858
L 86.892998 -267.568057
L 99.17343 -273.958752
L 111.453863 -281.935436
L 123.734296 -288.173975
L 136.014728 -294.48618
L 148.295161 -301.807489
L 160.575594 -308.622954
L 172.856026 -315.695698
L 172.856026 -319.417122
L 172.856026 -319.417122
L 160.575594 -311.325454
L 148.295161 -304.062103
L 136.014728 -297.231044
L 123.734296 -290.285527
L 111.453863 -283.260173
L 99.17343 -275.481212
L 86.892998 -268.999286
L 74.612565 -262.652766
L 62.332132 -255.289351
z
" id="m88133b24e0" style="stroke:#0173b2;stroke-opacity:0.2;"/>
    </defs>
    <g clip-path="url(#pebf7768f3c)">
     <use style="fill:#0173b2;fill-opacity:0.2;stroke:#0173b2;stroke-opacity:0.2;" x="0" xlink:href="#m88133b24e0" y="369.62"/>
    </g>
   </g>
   <g id="line2d_5">
    <path clip-path="url(#pebf7768f3c)" d="M 62.332132 115.011955
L 74.612565 107.972776
L 86.892998 101.354696
L 99.17343 94.898398
L 111.453863 87.041135
L 123.734296 80.340518
L 136.014728 73.710822
L 148.295161 66.692806
L 160.575594 59.673294
L 172.856026 52.093944
" style="fill:none;stroke:#0173b2;stroke-linecap:round;stroke-width:1.5;"/>
    <defs>
     <path d="M 0 3
C 0.795609 3 1.55874 2.683901 2.12132 2.12132
C 2.683901 1.55874 3 0.795609 3 0
C 3 -0.795609 2.683901 -1.55874 2.12132 -2.12132
C 1.55874 -2.683901 0.795609 -3 0 -3
C -0.795609 -3 -1.55874 -2.683901 -2.12132 -2.12132
C -2.683901 -1.55874 -3 -0.795609 -3 0
C -3 0.795609 -2.683901 1.55874 -2.12132 2.12132
C -1.55874 2.683901 -0.795609 3 0 3
z
" id="meff612009f" style="stroke:#ffffff;stroke-width:0.75;"/>
    </defs>
    <g clip-path="url(#pebf7768f3c)">
     <use style="fill:#0173b2;stroke:#ffffff;stroke-width:0.75;" x="62.332132" xlink:href="#meff612009f" y="115.011955"/>
     <use style="fill:#0173b2;stroke:#ffffff;stroke-width:0.75;" x="74.612565" xlink:href="#meff612009f" y="107.972776"/>
     <use style="fill:#0173b2;stroke:#ffffff;stroke-width:0.75;" x="86.892998" xlink:href="#meff612009f" y="101.354696"/>
     <use style="fill:#0173b2;stroke:#ffffff;stroke-width:0.75;" x="99.17343" xlink:href="#meff612009f" y="94.898398"/>
     <use style="fill:#0173b2;stroke:#ffffff;stroke-width:0.75;" x="111.453863" xlink:href="#meff612009f" y="87.041135"/>
     <use style="fill:#0173b2;stroke:#ffffff;stroke-width:0.75;" x="123.734296" xlink:href="#meff612009f" y="80.340518"/>
     <use style="fill:#0173b2;stroke:#ffffff;stroke-width:0.75;" x="136.014728" xlink:href="#meff612009f" y="73.710822"/>
     <use style="fill:#0173b2;stroke:#ffffff;stroke-width:0.75;" x="148.295161" xlink:href="#meff612009f" y="66.692806"/>
     <use style="fill:#0173b2;stroke:#ffffff;stroke-width:0.75;" x="160.575594" xlink:href="#meff612009f" y="59.673294"/>
     <use style="fill:#0173b2;stroke:#ffffff;stroke-width:0.75;" x="172.856026" xlink:href="#meff612009f" y="52.093944"/>
    </g>
   </g>
   <g id="patch_3">
    <path d="M 56.805937 121.663306
L 56.805937 46.8
" style="fill:none;stroke:#262626;stroke-linecap:square;stroke-linejoin:miter;stroke-width:1.25;"/>
   </g>
   <g id="patch_4">
    <path d="M 56.805937 121.663306
L 178.382221 121.663306
" style="fill:none;stroke:#262626;stroke-linecap:square;stroke-linejoin:miter;stroke-width:1.25;"/>
   </g>
   <g id="text_4">
    <!-- k=26, d=26 -->
    <defs>
     <path d="M 9.078125 75.984375
L 18.109375 75.984375
L 18.109375 31.109375
L 44.921875 54.6875
L 56.390625 54.6875
L 27.390625 29.109375
L 57.625 0
L 45.90625 0
L 18.109375 26.703125
L 18.109375 0
L 9.078125 0
z
" id="DejaVuSans-107"/>
     <path d="M 10.59375 45.40625
L 73.1875 45.40625
L 73.1875 37.203125
L 10.59375 37.203125
z
M 10.59375 25.484375
L 73.1875 25.484375
L 73.1875 17.1875
L 10.59375 17.1875
z
" id="DejaVuSans-61"/>
     <path d="M 33.015625 40.375
Q 26.375 40.375 22.484375 35.828125
Q 18.609375 31.296875 18.609375 23.390625
Q 18.609375 15.53125 22.484375 10.953125
Q 26.375 6.390625 33.015625 6.390625
Q 39.65625 6.390625 43.53125 10.953125
Q 47.40625 15.53125 47.40625 23.390625
Q 47.40625 31.296875 43.53125 35.828125
Q 39.65625 40.375 33.015625 40.375
z
M 52.59375 71.296875
L 52.59375 62.3125
Q 48.875 64.0625 45.09375 64.984375
Q 41.3125 65.921875 37.59375 65.921875
Q 27.828125 65.921875 22.671875 59.328125
Q 17.53125 52.734375 16.796875 39.40625
Q 19.671875 43.65625 24.015625 45.921875
Q 28.375 48.1875 33.59375 48.1875
Q 44.578125 48.1875 50.953125 41.515625
Q 57.328125 34.859375 57.328125 23.390625
Q 57.328125 12.15625 50.6875 5.359375
Q 44.046875 -1.421875 33.015625 -1.421875
Q 20.359375 -1.421875 13.671875 8.265625
Q 6.984375 17.96875 6.984375 36.375
Q 6.984375 53.65625 15.1875 63.9375
Q 23.390625 74.21875 37.203125 74.21875
Q 40.921875 74.21875 44.703125 73.484375
Q 48.484375 72.75 52.59375 71.296875
z
" id="DejaVuSans-54"/>
     <path d="M 11.71875 12.40625
L 22.015625 12.40625
L 22.015625 4
L 14.015625 -11.625
L 7.71875 -11.625
L 11.71875 4
z
" id="DejaVuSans-44"/>
     <path d="M 45.40625 46.390625
L 45.40625 75.984375
L 54.390625 75.984375
L 54.390625 0
L 45.40625 0
L 45.40625 8.203125
Q 42.578125 3.328125 38.25 0.953125
Q 33.9375 -1.421875 27.875 -1.421875
Q 17.96875 -1.421875 11.734375 6.484375
Q 5.515625 14.40625 5.515625 27.296875
Q 5.515625 40.1875 11.734375 48.09375
Q 17.96875 56 27.875 56
Q 33.9375 56 38.25 53.625
Q 42.578125 51.265625 45.40625 46.390625
z
M 14.796875 27.296875
Q 14.796875 17.390625 18.875 11.75
Q 22.953125 6.109375 30.078125 6.109375
Q 37.203125 6.109375 41.296875 11.75
Q 45.40625 17.390625 45.40625 27.296875
Q 45.40625 37.203125 41.296875 42.84375
Q 37.203125 48.484375 30.078125 48.484375
Q 22.953125 48.484375 18.875 42.84375
Q 14.796875 37.203125 14.796875 27.296875
z
" id="DejaVuSans-100"/>
    </defs>
    <g style="fill:#262626;" transform="translate(81.171267 40.8)scale(0.12 -0.12)">
     <use xlink:href="#DejaVuSans-107"/>
     <use x="57.910156" xlink:href="#DejaVuSans-61"/>
     <use x="141.699219" xlink:href="#DejaVuSans-50"/>
     <use x="205.322266" xlink:href="#DejaVuSans-54"/>
     <use x="268.945312" xlink:href="#DejaVuSans-44"/>
     <use x="300.732422" xlink:href="#DejaVuSans-32"/>
     <use x="332.519531" xlink:href="#DejaVuSans-100"/>
     <use x="395.996094" xlink:href="#DejaVuSans-61"/>
     <use x="479.785156" xlink:href="#DejaVuSans-50"/>
     <use x="543.408203" xlink:href="#DejaVuSans-54"/>
    </g>
   </g>
  </g>
  <g id="axes_2">
   <g id="patch_5">
    <path d="M 209.620296 121.663306
L 331.196579 121.663306
L 331.196579 46.8
L 209.620296 46.8
z
" style="fill:#ffffff;"/>
   </g>
   <g id="matplotlib.axis_3">
    <g id="xtick_3">
     <g id="line2d_6">
      <g>
       <use style="fill:#262626;stroke:#262626;stroke-width:1.25;" x="210.541328" xlink:href="#m96a5203407" y="121.663306"/>
      </g>
     </g>
    </g>
    <g id="xtick_4">
     <g id="line2d_7">
      <g>
       <use style="fill:#262626;stroke:#262626;stroke-width:1.25;" x="256.592951" xlink:href="#m96a5203407" y="121.663306"/>
      </g>
     </g>
    </g>
    <g id="xtick_5">
     <g id="line2d_8">
      <g>
       <use style="fill:#262626;stroke:#262626;stroke-width:1.25;" x="302.644573" xlink:href="#m96a5203407" y="121.663306"/>
      </g>
     </g>
    </g>
   </g>
   <g id="matplotlib.axis_4">
    <g id="ytick_3">
     <g id="line2d_9">
      <g>
       <use style="fill:#262626;stroke:#262626;stroke-width:1.25;" x="209.620296" xlink:href="#m33a4be048b" y="88.582158"/>
      </g>
     </g>
    </g>
    <g id="ytick_4">
     <g id="line2d_10">
      <g>
       <use style="fill:#262626;stroke:#262626;stroke-width:1.25;" x="209.620296" xlink:href="#m33a4be048b" y="54.816152"/>
      </g>
     </g>
    </g>
   </g>
   <g id="PolyCollection_2">
    <defs>
     <path d="M 215.14649 -279.2745
L 215.14649 -277.428678
L 233.567139 -278.785071
L 251.987788 -280.406628
L 270.408437 -281.957533
L 288.829087 -281.915805
L 307.249736 -282.275143
L 325.670385 -283.113719
L 325.670385 -285.341772
L 325.670385 -285.341772
L 307.249736 -284.489263
L 288.829087 -283.89976
L 270.408437 -283.247459
L 251.987788 -282.710031
L 233.567139 -279.932233
L 215.14649 -279.2745
z
" id="m20f0c827ba" style="stroke:#0173b2;stroke-opacity:0.2;"/>
    </defs>
    <g clip-path="url(#pd3f733ce8d)">
     <use style="fill:#0173b2;fill-opacity:0.2;stroke:#0173b2;stroke-opacity:0.2;" x="0" xlink:href="#m20f0c827ba" y="369.62"/>
    </g>
   </g>
   <g id="line2d_11">
    <path clip-path="url(#pd3f733ce8d)" d="M 215.14649 91.29699
L 233.567139 90.278017
L 251.987788 88.156281
L 270.408437 87.041135
L 288.829087 86.771152
L 307.249736 86.395276
L 325.670385 85.396882
" style="fill:none;stroke:#0173b2;stroke-linecap:round;stroke-width:1.5;"/>
    <g clip-path="url(#pd3f733ce8d)">
     <use style="fill:#0173b2;stroke:#ffffff;stroke-width:0.75;" x="215.14649" xlink:href="#meff612009f" y="91.29699"/>
     <use style="fill:#0173b2;stroke:#ffffff;stroke-width:0.75;" x="233.567139" xlink:href="#meff612009f" y="90.278017"/>
     <use style="fill:#0173b2;stroke:#ffffff;stroke-width:0.75;" x="251.987788" xlink:href="#meff612009f" y="88.156281"/>
     <use style="fill:#0173b2;stroke:#ffffff;stroke-width:0.75;" x="270.408437" xlink:href="#meff612009f" y="87.041135"/>
     <use style="fill:#0173b2;stroke:#ffffff;stroke-width:0.75;" x="288.829087" xlink:href="#meff612009f" y="86.771152"/>
     <use style="fill:#0173b2;stroke:#ffffff;stroke-width:0.75;" x="307.249736" xlink:href="#meff612009f" y="86.395276"/>
     <use style="fill:#0173b2;stroke:#ffffff;stroke-width:0.75;" x="325.670385" xlink:href="#meff612009f" y="85.396882"/>
    </g>
   </g>
   <g id="patch_6">
    <path d="M 209.620296 121.663306
L 209.620296 46.8
" style="fill:none;stroke:#262626;stroke-linecap:square;stroke-linejoin:miter;stroke-width:1.25;"/>
   </g>
   <g id="patch_7">
    <path d="M 209.620296 121.663306
L 331.196579 121.663306
" style="fill:none;stroke:#262626;stroke-linecap:square;stroke-linejoin:miter;stroke-width:1.25;"/>
   </g>
   <g id="text_5">
    <!-- n=5000, k=26 -->
    <defs>
     <path d="M 54.890625 33.015625
L 54.890625 0
L 45.90625 0
L 45.90625 32.71875
Q 45.90625 40.484375 42.875 44.328125
Q 39.84375 48.1875 33.796875 48.1875
Q 26.515625 48.1875 22.3125 43.546875
Q 18.109375 38.921875 18.109375 30.90625
L 18.109375 0
L 9.078125 0
L 9.078125 54.6875
L 18.109375 54.6875
L 18.109375 46.1875
Q 21.34375 51.125 25.703125 53.5625
Q 30.078125 56 35.796875 56
Q 45.21875 56 50.046875 50.171875
Q 54.890625 44.34375 54.890625 33.015625
z
" id="DejaVuSans-110"/>
     <path d="M 10.796875 72.90625
L 49.515625 72.90625
L 49.515625 64.59375
L 19.828125 64.59375
L 19.828125 46.734375
Q 21.96875 47.46875 24.109375 47.828125
Q 26.265625 48.1875 28.421875 48.1875
Q 40.625 48.1875 47.75 41.5
Q 54.890625 34.8125 54.890625 23.390625
Q 54.890625 11.625 47.5625 5.09375
Q 40.234375 -1.421875 26.90625 -1.421875
Q 22.3125 -1.421875 17.546875 -0.640625
Q 12.796875 0.140625 7.71875 1.703125
L 7.71875 11.625
Q 12.109375 9.234375 16.796875 8.0625
Q 21.484375 6.890625 26.703125 6.890625
Q 35.15625 6.890625 40.078125 11.328125
Q 45.015625 15.765625 45.015625 23.390625
Q 45.015625 31 40.078125 35.4375
Q 35.15625 39.890625 26.703125 39.890625
Q 22.75 39.890625 18.8125 39.015625
Q 14.890625 38.140625 10.796875 36.28125
z
" id="DejaVuSans-53"/>
     <path d="M 31.78125 66.40625
Q 24.171875 66.40625 20.328125 58.90625
Q 16.5 51.421875 16.5 36.375
Q 16.5 21.390625 20.328125 13.890625
Q 24.171875 6.390625 31.78125 6.390625
Q 39.453125 6.390625 43.28125 13.890625
Q 47.125 21.390625 47.125 36.375
Q 47.125 51.421875 43.28125 58.90625
Q 39.453125 66.40625 31.78125 66.40625
z
M 31.78125 74.21875
Q 44.046875 74.21875 50.515625 64.515625
Q 56.984375 54.828125 56.984375 36.375
Q 56.984375 17.96875 50.515625 8.265625
Q 44.046875 -1.421875 31.78125 -1.421875
Q 19.53125 -1.421875 13.0625 8.265625
Q 6.59375 17.96875 6.59375 36.375
Q 6.59375 54.828125 13.0625 64.515625
Q 19.53125 74.21875 31.78125 74.21875
z
" id="DejaVuSans-48"/>
    </defs>
    <g style="fill:#262626;" transform="translate(226.357188 40.8)scale(0.12 -0.12)">
     <use xlink:href="#DejaVuSans-110"/>
     <use x="63.378906" xlink:href="#DejaVuSans-61"/>
     <use x="147.167969" xlink:href="#DejaVuSans-53"/>
     <use x="210.791016" xlink:href="#DejaVuSans-48"/>
     <use x="274.414062" xlink:href="#DejaVuSans-48"/>
     <use x="338.037109" xlink:href="#DejaVuSans-48"/>
     <use x="401.660156" xlink:href="#DejaVuSans-44"/>
     <use x="433.447266" xlink:href="#DejaVuSans-32"/>
     <use x="465.234375" xlink:href="#DejaVuSans-107"/>
     <use x="523.144531" xlink:href="#DejaVuSans-61"/>
     <use x="606.933594" xlink:href="#DejaVuSans-50"/>
     <use x="670.556641" xlink:href="#DejaVuSans-54"/>
    </g>
   </g>
  </g>
  <g id="axes_3">
   <g id="patch_8">
    <path d="M 362.434654 121.663306
L 484.010938 121.663306
L 484.010938 46.8
L 362.434654 46.8
z
" style="fill:#ffffff;"/>
   </g>
   <g id="matplotlib.axis_5">
    <g id="xtick_6">
     <g id="line2d_12">
      <g>
       <use style="fill:#262626;stroke:#262626;stroke-width:1.25;" x="363.355687" xlink:href="#m96a5203407" y="121.663306"/>
      </g>
     </g>
    </g>
    <g id="xtick_7">
     <g id="line2d_13">
      <g>
       <use style="fill:#262626;stroke:#262626;stroke-width:1.25;" x="409.407309" xlink:href="#m96a5203407" y="121.663306"/>
      </g>
     </g>
    </g>
    <g id="xtick_8">
     <g id="line2d_14">
      <g>
       <use style="fill:#262626;stroke:#262626;stroke-width:1.25;" x="455.458932" xlink:href="#m96a5203407" y="121.663306"/>
      </g>
     </g>
    </g>
   </g>
   <g id="matplotlib.axis_6">
    <g id="ytick_5">
     <g id="line2d_15">
      <g>
       <use style="fill:#262626;stroke:#262626;stroke-width:1.25;" x="362.434654" xlink:href="#m33a4be048b" y="88.582158"/>
      </g>
     </g>
    </g>
    <g id="ytick_6">
     <g id="line2d_16">
      <g>
       <use style="fill:#262626;stroke:#262626;stroke-width:1.25;" x="362.434654" xlink:href="#m33a4be048b" y="54.816152"/>
      </g>
     </g>
    </g>
   </g>
   <g id="PolyCollection_3">
    <defs>
     <path d="M 367.960849 -252.146025
L 367.960849 -251.359572
L 386.381498 -261.717783
L 404.802147 -272.041778
L 423.222796 -281.92259
L 441.643445 -292.412169
L 460.064094 -301.975366
L 478.484743 -309.475701
L 478.484743 -311.606529
L 478.484743 -311.606529
L 460.064094 -303.812945
L 441.643445 -294.836727
L 423.222796 -283.236941
L 404.802147 -273.528032
L 386.381498 -264.124315
L 367.960849 -252.146025
z
" id="mea2e5893f6" style="stroke:#0173b2;stroke-opacity:0.2;"/>
    </defs>
    <g clip-path="url(#p3b1d400328)">
     <use style="fill:#0173b2;fill-opacity:0.2;stroke:#0173b2;stroke-opacity:0.2;" x="0" xlink:href="#mea2e5893f6" y="369.62"/>
    </g>
   </g>
   <g id="line2d_17">
    <path clip-path="url(#p3b1d400328)" d="M 367.960849 117.914531
L 386.381498 106.83849
L 404.802147 96.861453
L 423.222796 87.041135
L 441.643445 75.989371
L 460.064094 66.661871
L 478.484743 59.09752
" style="fill:none;stroke:#0173b2;stroke-linecap:round;stroke-width:1.5;"/>
    <g clip-path="url(#p3b1d400328)">
     <use style="fill:#0173b2;stroke:#ffffff;stroke-width:0.75;" x="367.960849" xlink:href="#meff612009f" y="117.914531"/>
     <use style="fill:#0173b2;stroke:#ffffff;stroke-width:0.75;" x="386.381498" xlink:href="#meff612009f" y="106.83849"/>
     <use style="fill:#0173b2;stroke:#ffffff;stroke-width:0.75;" x="404.802147" xlink:href="#meff612009f" y="96.861453"/>
     <use style="fill:#0173b2;stroke:#ffffff;stroke-width:0.75;" x="423.222796" xlink:href="#meff612009f" y="87.041135"/>
     <use style="fill:#0173b2;stroke:#ffffff;stroke-width:0.75;" x="441.643445" xlink:href="#meff612009f" y="75.989371"/>
     <use style="fill:#0173b2;stroke:#ffffff;stroke-width:0.75;" x="460.064094" xlink:href="#meff612009f" y="66.661871"/>
     <use style="fill:#0173b2;stroke:#ffffff;stroke-width:0.75;" x="478.484743" xlink:href="#meff612009f" y="59.09752"/>
    </g>
   </g>
   <g id="patch_9">
    <path d="M 362.434654 121.663306
L 362.434654 46.8
" style="fill:none;stroke:#262626;stroke-linecap:square;stroke-linejoin:miter;stroke-width:1.25;"/>
   </g>
   <g id="patch_10">
    <path d="M 362.434654 121.663306
L 484.010938 121.663306
" style="fill:none;stroke:#262626;stroke-linecap:square;stroke-linejoin:miter;stroke-width:1.25;"/>
   </g>
   <g id="text_6">
    <!-- n=5000, d=26 -->
    <g style="fill:#262626;" transform="translate(378.836858 40.8)scale(0.12 -0.12)">
     <use xlink:href="#DejaVuSans-110"/>
     <use x="63.378906" xlink:href="#DejaVuSans-61"/>
     <use x="147.167969" xlink:href="#DejaVuSans-53"/>
     <use x="210.791016" xlink:href="#DejaVuSans-48"/>
     <use x="274.414062" xlink:href="#DejaVuSans-48"/>
     <use x="338.037109" xlink:href="#DejaVuSans-48"/>
     <use x="401.660156" xlink:href="#DejaVuSans-44"/>
     <use x="433.447266" xlink:href="#DejaVuSans-32"/>
     <use x="465.234375" xlink:href="#DejaVuSans-100"/>
     <use x="528.710938" xlink:href="#DejaVuSans-61"/>
     <use x="612.5" xlink:href="#DejaVuSans-50"/>
     <use x="676.123047" xlink:href="#DejaVuSans-54"/>
    </g>
   </g>
  </g>
  <g id="axes_4">
   <g id="patch_11">
    <path d="M 56.805937 217.431653
L 178.382221 217.431653
L 178.382221 142.568347
L 56.805937 142.568347
z
" style="fill:#ffffff;"/>
   </g>
   <g id="matplotlib.axis_7">
    <g id="xtick_9">
     <g id="line2d_18">
      <g>
       <use style="fill:#262626;stroke:#262626;stroke-width:1.25;" x="111.453863" xlink:href="#m96a5203407" y="217.431653"/>
      </g>
     </g>
    </g>
    <g id="xtick_10">
     <g id="line2d_19">
      <g>
       <use style="fill:#262626;stroke:#262626;stroke-width:1.25;" x="172.856026" xlink:href="#m96a5203407" y="217.431653"/>
      </g>
     </g>
    </g>
   </g>
   <g id="matplotlib.axis_8">
    <g id="ytick_7">
     <g id="line2d_20">
      <g>
       <use style="fill:#262626;stroke:#262626;stroke-width:1.25;" x="56.805937" xlink:href="#m33a4be048b" y="195.960849"/>
      </g>
     </g>
     <g id="text_7">
      <!-- 0.05 -->
      <defs>
       <path d="M 10.6875 12.40625
L 21 12.40625
L 21 0
L 10.6875 0
z
" id="DejaVuSans-46"/>
      </defs>
      <g style="fill:#262626;" transform="translate(22.81375 200.13999)scale(0.11 -0.11)">
       <use xlink:href="#DejaVuSans-48"/>
       <use x="63.623047" xlink:href="#DejaVuSans-46"/>
       <use x="95.410156" xlink:href="#DejaVuSans-48"/>
       <use x="159.033203" xlink:href="#DejaVuSans-53"/>
      </g>
     </g>
    </g>
    <g id="ytick_8">
     <g id="line2d_21">
      <g>
       <use style="fill:#262626;stroke:#262626;stroke-width:1.25;" x="56.805937" xlink:href="#m33a4be048b" y="170.295185"/>
      </g>
     </g>
     <g id="text_8">
      <!-- 0.10 -->
      <g style="fill:#262626;" transform="translate(22.81375 174.474325)scale(0.11 -0.11)">
       <use xlink:href="#DejaVuSans-48"/>
       <use x="63.623047" xlink:href="#DejaVuSans-46"/>
       <use x="95.410156" xlink:href="#DejaVuSans-49"/>
       <use x="159.033203" xlink:href="#DejaVuSans-48"/>
      </g>
     </g>
    </g>
    <g id="ytick_9">
     <g id="line2d_22">
      <g>
       <use style="fill:#262626;stroke:#262626;stroke-width:1.25;" x="56.805937" xlink:href="#m33a4be048b" y="144.62952"/>
      </g>
     </g>
     <g id="text_9">
      <!-- 0.15 -->
      <g style="fill:#262626;" transform="translate(22.81375 148.808661)scale(0.11 -0.11)">
       <use xlink:href="#DejaVuSans-48"/>
       <use x="63.623047" xlink:href="#DejaVuSans-46"/>
       <use x="95.410156" xlink:href="#DejaVuSans-49"/>
       <use x="159.033203" xlink:href="#DejaVuSans-53"/>
      </g>
     </g>
    </g>
    <g id="text_10">
     <!-- Time (s) -->
     <g style="fill:#262626;" transform="translate(16.318125 204.394687)rotate(-90)scale(0.12 -0.12)">
      <use xlink:href="#DejaVuSans-84"/>
      <use x="57.958984" xlink:href="#DejaVuSans-105"/>
      <use x="85.742188" xlink:href="#DejaVuSans-109"/>
      <use x="183.154297" xlink:href="#DejaVuSans-101"/>
      <use x="244.677734" xlink:href="#DejaVuSans-32"/>
      <use x="276.464844" xlink:href="#DejaVuSans-40"/>
      <use x="315.478516" xlink:href="#DejaVuSans-115"/>
      <use x="367.578125" xlink:href="#DejaVuSans-41"/>
     </g>
    </g>
   </g>
   <g id="PolyCollection_4">
    <defs>
     <path d="M 62.332132 -156.060457
L 62.332132 -155.591225
L 74.612565 -162.491317
L 86.892998 -170.175475
L 99.17343 -177.360417
L 111.453863 -185.883993
L 123.734296 -192.026358
L 136.014728 -199.858932
L 148.295161 -207.300416
L 160.575594 -214.283017
L 172.856026 -221.37061
L 172.856026 -223.648775
L 172.856026 -223.648775
L 160.575594 -217.157835
L 148.295161 -208.957748
L 136.014728 -203.727817
L 123.734296 -193.354879
L 111.453863 -187.622946
L 99.17343 -178.819093
L 86.892998 -171.080315
L 74.612565 -162.929712
L 62.332132 -156.060457
z
" id="m27de6507a2" style="stroke:#de8f05;stroke-opacity:0.2;"/>
    </defs>
    <g clip-path="url(#p98a856f563)">
     <use style="fill:#de8f05;fill-opacity:0.2;stroke:#de8f05;stroke-opacity:0.2;" x="0" xlink:href="#m27de6507a2" y="369.62"/>
    </g>
   </g>
   <g id="line2d_23">
    <path clip-path="url(#p98a856f563)" d="M 62.332132 213.807234
L 74.612565 206.938229
L 86.892998 199.054046
L 99.17343 191.613687
L 111.453863 183.018872
L 123.734296 176.985722
L 136.014728 167.925082
L 148.295161 161.543718
L 160.575594 154.097996
L 172.856026 147.206989
" style="fill:none;stroke:#de8f05;stroke-linecap:round;stroke-width:1.5;"/>
    <defs>
     <path d="M 0 3
C 0.795609 3 1.55874 2.683901 2.12132 2.12132
C 2.683901 1.55874 3 0.795609 3 0
C 3 -0.795609 2.683901 -1.55874 2.12132 -2.12132
C 1.55874 -2.683901 0.795609 -3 0 -3
C -0.795609 -3 -1.55874 -2.683901 -2.12132 -2.12132
C -2.683901 -1.55874 -3 -0.795609 -3 0
C -3 0.795609 -2.683901 1.55874 -2.12132 2.12132
C -1.55874 2.683901 -0.795609 3 0 3
z
" id="m7c54127e3d" style="stroke:#ffffff;stroke-width:0.75;"/>
    </defs>
    <g clip-path="url(#p98a856f563)">
     <use style="fill:#de8f05;stroke:#ffffff;stroke-width:0.75;" x="62.332132" xlink:href="#m7c54127e3d" y="213.807234"/>
     <use style="fill:#de8f05;stroke:#ffffff;stroke-width:0.75;" x="74.612565" xlink:href="#m7c54127e3d" y="206.938229"/>
     <use style="fill:#de8f05;stroke:#ffffff;stroke-width:0.75;" x="86.892998" xlink:href="#m7c54127e3d" y="199.054046"/>
     <use style="fill:#de8f05;stroke:#ffffff;stroke-width:0.75;" x="99.17343" xlink:href="#m7c54127e3d" y="191.613687"/>
     <use style="fill:#de8f05;stroke:#ffffff;stroke-width:0.75;" x="111.453863" xlink:href="#m7c54127e3d" y="183.018872"/>
     <use style="fill:#de8f05;stroke:#ffffff;stroke-width:0.75;" x="123.734296" xlink:href="#m7c54127e3d" y="176.985722"/>
     <use style="fill:#de8f05;stroke:#ffffff;stroke-width:0.75;" x="136.014728" xlink:href="#m7c54127e3d" y="167.925082"/>
     <use style="fill:#de8f05;stroke:#ffffff;stroke-width:0.75;" x="148.295161" xlink:href="#m7c54127e3d" y="161.543718"/>
     <use style="fill:#de8f05;stroke:#ffffff;stroke-width:0.75;" x="160.575594" xlink:href="#m7c54127e3d" y="154.097996"/>
     <use style="fill:#de8f05;stroke:#ffffff;stroke-width:0.75;" x="172.856026" xlink:href="#m7c54127e3d" y="147.206989"/>
    </g>
   </g>
   <g id="patch_12">
    <path d="M 56.805937 217.431653
L 56.805937 142.568347
" style="fill:none;stroke:#262626;stroke-linecap:square;stroke-linejoin:miter;stroke-width:1.25;"/>
   </g>
   <g id="patch_13">
    <path d="M 56.805937 217.431653
L 178.382221 217.431653
" style="fill:none;stroke:#262626;stroke-linecap:square;stroke-linejoin:miter;stroke-width:1.25;"/>
   </g>
  </g>
  <g id="axes_5">
   <g id="patch_14">
    <path d="M 209.620296 217.431653
L 331.196579 217.431653
L 331.196579 142.568347
L 209.620296 142.568347
z
" style="fill:#ffffff;"/>
   </g>
   <g id="matplotlib.axis_9">
    <g id="xtick_11">
     <g id="line2d_24">
      <g>
       <use style="fill:#262626;stroke:#262626;stroke-width:1.25;" x="210.541328" xlink:href="#m96a5203407" y="217.431653"/>
      </g>
     </g>
    </g>
    <g id="xtick_12">
     <g id="line2d_25">
      <g>
       <use style="fill:#262626;stroke:#262626;stroke-width:1.25;" x="256.592951" xlink:href="#m96a5203407" y="217.431653"/>
      </g>
     </g>
    </g>
    <g id="xtick_13">
     <g id="line2d_26">
      <g>
       <use style="fill:#262626;stroke:#262626;stroke-width:1.25;" x="302.644573" xlink:href="#m96a5203407" y="217.431653"/>
      </g>
     </g>
    </g>
   </g>
   <g id="matplotlib.axis_10">
    <g id="ytick_10">
     <g id="line2d_27">
      <g>
       <use style="fill:#262626;stroke:#262626;stroke-width:1.25;" x="209.620296" xlink:href="#m33a4be048b" y="195.960849"/>
      </g>
     </g>
    </g>
    <g id="ytick_11">
     <g id="line2d_28">
      <g>
       <use style="fill:#262626;stroke:#262626;stroke-width:1.25;" x="209.620296" xlink:href="#m33a4be048b" y="170.295185"/>
      </g>
     </g>
    </g>
    <g id="ytick_12">
     <g id="line2d_29">
      <g>
       <use style="fill:#262626;stroke:#262626;stroke-width:1.25;" x="209.620296" xlink:href="#m33a4be048b" y="144.62952"/>
      </g>
     </g>
    </g>
   </g>
   <g id="PolyCollection_5">
    <defs>
     <path d="M 215.14649 -194.971281
L 215.14649 -186.142957
L 233.567139 -188.01782
L 251.987788 -189.380211
L 270.408437 -185.845032
L 288.829087 -186.030402
L 307.249736 -188.109083
L 325.670385 -187.163101
L 325.670385 -188.504011
L 325.670385 -188.504011
L 307.249736 -192.620102
L 288.829087 -187.5833
L 270.408437 -187.520443
L 251.987788 -201.576131
L 233.567139 -196.156632
L 215.14649 -194.971281
z
" id="m3830b760a0" style="stroke:#de8f05;stroke-opacity:0.2;"/>
    </defs>
    <g clip-path="url(#p4bc16b7c38)">
     <use style="fill:#de8f05;fill-opacity:0.2;stroke:#de8f05;stroke-opacity:0.2;" x="0" xlink:href="#m3830b760a0" y="369.62"/>
    </g>
   </g>
   <g id="line2d_30">
    <path clip-path="url(#p4bc16b7c38)" d="M 215.14649 179.241759
L 233.567139 177.529119
L 251.987788 174.535895
L 270.408437 183.018872
L 288.829087 182.804128
L 307.249736 179.432239
L 325.670385 181.836361
" style="fill:none;stroke:#de8f05;stroke-linecap:round;stroke-width:1.5;"/>
    <g clip-path="url(#p4bc16b7c38)">
     <use style="fill:#de8f05;stroke:#ffffff;stroke-width:0.75;" x="215.14649" xlink:href="#m7c54127e3d" y="179.241759"/>
     <use style="fill:#de8f05;stroke:#ffffff;stroke-width:0.75;" x="233.567139" xlink:href="#m7c54127e3d" y="177.529119"/>
     <use style="fill:#de8f05;stroke:#ffffff;stroke-width:0.75;" x="251.987788" xlink:href="#m7c54127e3d" y="174.535895"/>
     <use style="fill:#de8f05;stroke:#ffffff;stroke-width:0.75;" x="270.408437" xlink:href="#m7c54127e3d" y="183.018872"/>
     <use style="fill:#de8f05;stroke:#ffffff;stroke-width:0.75;" x="288.829087" xlink:href="#m7c54127e3d" y="182.804128"/>
     <use style="fill:#de8f05;stroke:#ffffff;stroke-width:0.75;" x="307.249736" xlink:href="#m7c54127e3d" y="179.432239"/>
     <use style="fill:#de8f05;stroke:#ffffff;stroke-width:0.75;" x="325.670385" xlink:href="#m7c54127e3d" y="181.836361"/>
    </g>
   </g>
   <g id="patch_15">
    <path d="M 209.620296 217.431653
L 209.620296 142.568347
" style="fill:none;stroke:#262626;stroke-linecap:square;stroke-linejoin:miter;stroke-width:1.25;"/>
   </g>
   <g id="patch_16">
    <path d="M 209.620296 217.431653
L 331.196579 217.431653
" style="fill:none;stroke:#262626;stroke-linecap:square;stroke-linejoin:miter;stroke-width:1.25;"/>
   </g>
  </g>
  <g id="axes_6">
   <g id="patch_17">
    <path d="M 362.434654 217.431653
L 484.010938 217.431653
L 484.010938 142.568347
L 362.434654 142.568347
z
" style="fill:#ffffff;"/>
   </g>
   <g id="matplotlib.axis_11">
    <g id="xtick_14">
     <g id="line2d_31">
      <g>
       <use style="fill:#262626;stroke:#262626;stroke-width:1.25;" x="363.355687" xlink:href="#m96a5203407" y="217.431653"/>
      </g>
     </g>
    </g>
    <g id="xtick_15">
     <g id="line2d_32">
      <g>
       <use style="fill:#262626;stroke:#262626;stroke-width:1.25;" x="409.407309" xlink:href="#m96a5203407" y="217.431653"/>
      </g>
     </g>
    </g>
    <g id="xtick_16">
     <g id="line2d_33">
      <g>
       <use style="fill:#262626;stroke:#262626;stroke-width:1.25;" x="455.458932" xlink:href="#m96a5203407" y="217.431653"/>
      </g>
     </g>
    </g>
   </g>
   <g id="matplotlib.axis_12">
    <g id="ytick_13">
     <g id="line2d_34">
      <g>
       <use style="fill:#262626;stroke:#262626;stroke-width:1.25;" x="362.434654" xlink:href="#m33a4be048b" y="195.960849"/>
      </g>
     </g>
    </g>
    <g id="ytick_14">
     <g id="line2d_35">
      <g>
       <use style="fill:#262626;stroke:#262626;stroke-width:1.25;" x="362.434654" xlink:href="#m33a4be048b" y="170.295185"/>
      </g>
     </g>
    </g>
    <g id="ytick_15">
     <g id="line2d_36">
      <g>
       <use style="fill:#262626;stroke:#262626;stroke-width:1.25;" x="362.434654" xlink:href="#m33a4be048b" y="144.62952"/>
      </g>
     </g>
    </g>
   </g>
   <g id="PolyCollection_6">
    <defs>
     <path d="M 367.960849 -188.556519
L 367.960849 -180.66033
L 386.381498 -185.051476
L 404.802147 -188.676085
L 423.222796 -185.84392
L 441.643445 -186.240548
L 460.064094 -187.505957
L 478.484743 -189.207352
L 478.484743 -191.776717
L 478.484743 -191.776717
L 460.064094 -189.351087
L 441.643445 -187.713935
L 423.222796 -187.557168
L 404.802147 -197.205537
L 386.381498 -195.218924
L 367.960849 -188.556519
z
" id="m46cde7fc32" style="stroke:#de8f05;stroke-opacity:0.2;"/>
    </defs>
    <g clip-path="url(#paba6a45a35)">
     <use style="fill:#de8f05;fill-opacity:0.2;stroke:#de8f05;stroke-opacity:0.2;" x="0" xlink:href="#m46cde7fc32" y="369.62"/>
    </g>
   </g>
   <g id="line2d_37">
    <path clip-path="url(#paba6a45a35)" d="M 367.960849 185.760266
L 386.381498 179.677607
L 404.802147 176.718999
L 423.222796 183.018872
L 441.643445 182.692139
L 460.064094 181.281993
L 478.484743 179.316085
" style="fill:none;stroke:#de8f05;stroke-linecap:round;stroke-width:1.5;"/>
    <g clip-path="url(#paba6a45a35)">
     <use style="fill:#de8f05;stroke:#ffffff;stroke-width:0.75;" x="367.960849" xlink:href="#m7c54127e3d" y="185.760266"/>
     <use style="fill:#de8f05;stroke:#ffffff;stroke-width:0.75;" x="386.381498" xlink:href="#m7c54127e3d" y="179.677607"/>
     <use style="fill:#de8f05;stroke:#ffffff;stroke-width:0.75;" x="404.802147" xlink:href="#m7c54127e3d" y="176.718999"/>
     <use style="fill:#de8f05;stroke:#ffffff;stroke-width:0.75;" x="423.222796" xlink:href="#m7c54127e3d" y="183.018872"/>
     <use style="fill:#de8f05;stroke:#ffffff;stroke-width:0.75;" x="441.643445" xlink:href="#m7c54127e3d" y="182.692139"/>
     <use style="fill:#de8f05;stroke:#ffffff;stroke-width:0.75;" x="460.064094" xlink:href="#m7c54127e3d" y="181.281993"/>
     <use style="fill:#de8f05;stroke:#ffffff;stroke-width:0.75;" x="478.484743" xlink:href="#m7c54127e3d" y="179.316085"/>
    </g>
   </g>
   <g id="patch_18">
    <path d="M 362.434654 217.431653
L 362.434654 142.568347
" style="fill:none;stroke:#262626;stroke-linecap:square;stroke-linejoin:miter;stroke-width:1.25;"/>
   </g>
   <g id="patch_19">
    <path d="M 362.434654 217.431653
L 484.010938 217.431653
" style="fill:none;stroke:#262626;stroke-linecap:square;stroke-linejoin:miter;stroke-width:1.25;"/>
   </g>
  </g>
  <g id="axes_7">
   <g id="patch_20">
    <path d="M 56.805937 313.2
L 178.382221 313.2
L 178.382221 238.336694
L 56.805937 238.336694
z
" style="fill:#ffffff;"/>
   </g>
   <g id="matplotlib.axis_13">
    <g id="xtick_17">
     <g id="line2d_38">
      <g>
       <use style="fill:#262626;stroke:#262626;stroke-width:1.25;" x="111.453863" xlink:href="#m96a5203407" y="313.2"/>
      </g>
     </g>
     <g id="text_11">
      <!-- 5000 -->
      <g style="fill:#262626;" transform="translate(97.456363 331.058281)scale(0.11 -0.11)">
       <use xlink:href="#DejaVuSans-53"/>
       <use x="63.623047" xlink:href="#DejaVuSans-48"/>
       <use x="127.246094" xlink:href="#DejaVuSans-48"/>
       <use x="190.869141" xlink:href="#DejaVuSans-48"/>
      </g>
     </g>
    </g>
    <g id="xtick_18">
     <g id="line2d_39">
      <g>
       <use style="fill:#262626;stroke:#262626;stroke-width:1.25;" x="172.856026" xlink:href="#m96a5203407" y="313.2"/>
      </g>
     </g>
     <g id="text_12">
      <!-- 10000 -->
      <g style="fill:#262626;" transform="translate(155.359151 331.058281)scale(0.11 -0.11)">
       <use xlink:href="#DejaVuSans-49"/>
       <use x="63.623047" xlink:href="#DejaVuSans-48"/>
       <use x="127.246094" xlink:href="#DejaVuSans-48"/>
       <use x="190.869141" xlink:href="#DejaVuSans-48"/>
       <use x="254.492188" xlink:href="#DejaVuSans-48"/>
      </g>
     </g>
    </g>
    <g id="text_13">
     <!-- n -->
     <g style="fill:#262626;" transform="translate(113.791579 346.464062)scale(0.12 -0.12)">
      <use xlink:href="#DejaVuSans-110"/>
     </g>
    </g>
   </g>
   <g id="matplotlib.axis_14">
    <g id="ytick_16">
     <g id="line2d_40">
      <g>
       <use style="fill:#262626;stroke:#262626;stroke-width:1.25;" x="56.805937" xlink:href="#m33a4be048b" y="311.282467"/>
      </g>
     </g>
     <g id="text_14">
      <!-- 0.00 -->
      <g style="fill:#262626;" transform="translate(22.81375 315.461608)scale(0.11 -0.11)">
       <use xlink:href="#DejaVuSans-48"/>
       <use x="63.623047" xlink:href="#DejaVuSans-46"/>
       <use x="95.410156" xlink:href="#DejaVuSans-48"/>
       <use x="159.033203" xlink:href="#DejaVuSans-48"/>
      </g>
     </g>
    </g>
    <g id="ytick_17">
     <g id="line2d_41">
      <g>
       <use style="fill:#262626;stroke:#262626;stroke-width:1.25;" x="56.805937" xlink:href="#m33a4be048b" y="275.214022"/>
      </g>
     </g>
     <g id="text_15">
      <!-- 0.02 -->
      <g style="fill:#262626;" transform="translate(22.81375 279.393163)scale(0.11 -0.11)">
       <use xlink:href="#DejaVuSans-48"/>
       <use x="63.623047" xlink:href="#DejaVuSans-46"/>
       <use x="95.410156" xlink:href="#DejaVuSans-48"/>
       <use x="159.033203" xlink:href="#DejaVuSans-50"/>
      </g>
     </g>
    </g>
    <g id="ytick_18">
     <g id="line2d_42">
      <g>
       <use style="fill:#262626;stroke:#262626;stroke-width:1.25;" x="56.805937" xlink:href="#m33a4be048b" y="239.145577"/>
      </g>
     </g>
     <g id="text_16">
      <!-- 0.04 -->
      <defs>
       <path d="M 37.796875 64.3125
L 12.890625 25.390625
L 37.796875 25.390625
z
M 35.203125 72.90625
L 47.609375 72.90625
L 47.609375 25.390625
L 58.015625 25.390625
L 58.015625 17.1875
L 47.609375 17.1875
L 47.609375 0
L 37.796875 0
L 37.796875 17.1875
L 4.890625 17.1875
L 4.890625 26.703125
z
" id="DejaVuSans-52"/>
      </defs>
      <g style="fill:#262626;" transform="translate(22.81375 243.324717)scale(0.11 -0.11)">
       <use xlink:href="#DejaVuSans-48"/>
       <use x="63.623047" xlink:href="#DejaVuSans-46"/>
       <use x="95.410156" xlink:href="#DejaVuSans-48"/>
       <use x="159.033203" xlink:href="#DejaVuSans-52"/>
      </g>
     </g>
    </g>
    <g id="text_17">
     <!-- Time (s) -->
     <g style="fill:#262626;" transform="translate(16.318125 300.163035)rotate(-90)scale(0.12 -0.12)">
      <use xlink:href="#DejaVuSans-84"/>
      <use x="57.958984" xlink:href="#DejaVuSans-105"/>
      <use x="85.742188" xlink:href="#DejaVuSans-109"/>
      <use x="183.154297" xlink:href="#DejaVuSans-101"/>
      <use x="244.677734" xlink:href="#DejaVuSans-32"/>
      <use x="276.464844" xlink:href="#DejaVuSans-40"/>
      <use x="315.478516" xlink:href="#DejaVuSans-115"/>
      <use x="367.578125" xlink:href="#DejaVuSans-41"/>
     </g>
    </g>
   </g>
   <g id="PolyCollection_7">
    <defs>
     <path d="M 62.332132 -65.406659
L 62.332132 -65.231333
L 74.612565 -72.33328
L 86.892998 -78.823115
L 99.17343 -86.328234
L 111.453863 -91.717694
L 123.734296 -97.657529
L 136.014728 -104.341923
L 148.295161 -111.75928
L 160.575594 -118.59619
L 172.856026 -126.276783
L 172.856026 -127.880428
L 172.856026 -127.880428
L 160.575594 -119.822982
L 148.295161 -113.751349
L 136.014728 -106.097806
L 123.734296 -99.653576
L 111.453863 -92.360732
L 99.17343 -86.707521
L 86.892998 -79.298657
L 74.612565 -73.152893
L 62.332132 -65.406659
z
" id="m757650a58d" style="stroke:#029e73;stroke-opacity:0.2;"/>
    </defs>
    <g clip-path="url(#p217ca5c149)">
     <use style="fill:#029e73;fill-opacity:0.2;stroke:#029e73;stroke-opacity:0.2;" x="0" xlink:href="#m757650a58d" y="369.62"/>
    </g>
   </g>
   <g id="PolyCollection_8">
    <defs>
     <path d="M 62.332132 -65.008571
L 62.332132 -64.745042
L 74.612565 -72.016126
L 86.892998 -78.463129
L 99.17343 -85.823535
L 111.453863 -90.709957
L 123.734296 -96.811836
L 136.014728 -103.503583
L 148.295161 -110.714916
L 160.575594 -118.021716
L 172.856026 -124.652189
L 172.856026 -125.882878
L 172.856026 -125.882878
L 160.575594 -118.825469
L 148.295161 -111.152344
L 136.014728 -104.242208
L 123.734296 -97.14122
L 111.453863 -91.111815
L 99.17343 -86.082477
L 86.892998 -79.013893
L 74.612565 -72.157746
L 62.332132 -65.008571
z
" id="me655037752" style="stroke:#d55e00;stroke-opacity:0.2;"/>
    </defs>
    <g clip-path="url(#p217ca5c149)">
     <use style="fill:#d55e00;fill-opacity:0.2;stroke:#d55e00;stroke-opacity:0.2;" x="0" xlink:href="#me655037752" y="369.62"/>
    </g>
   </g>
   <g id="PolyCollection_9">
    <defs>
     <path d="M 62.332132 -62.107194
L 62.332132 -61.778333
L 74.612565 -65.808432
L 86.892998 -69.563717
L 99.17343 -74.376067
L 111.453863 -76.210558
L 123.734296 -80.426391
L 136.014728 -83.339738
L 148.295161 -87.971802
L 160.575594 -91.322947
L 172.856026 -94.983374
L 172.856026 -95.513666
L 172.856026 -95.513666
L 160.575594 -92.171151
L 148.295161 -89.252875
L 136.014728 -84.087372
L 123.734296 -81.862494
L 111.453863 -76.448224
L 99.17343 -75.159283
L 86.892998 -69.808641
L 74.612565 -66.402174
L 62.332132 -62.107194
z
" id="m38724f273e" style="stroke:#cc78bc;stroke-opacity:0.2;"/>
    </defs>
    <g clip-path="url(#p217ca5c149)">
     <use style="fill:#cc78bc;fill-opacity:0.2;stroke:#cc78bc;stroke-opacity:0.2;" x="0" xlink:href="#m38724f273e" y="369.62"/>
    </g>
   </g>
   <g id="line2d_43">
    <path clip-path="url(#p217ca5c149)" d="M 62.332132 304.306608
L 74.612565 296.934831
L 86.892998 290.570718
L 99.17343 283.134592
L 111.453863 277.605968
L 123.734296 271.240923
L 136.014728 264.50662
L 148.295161 256.938371
L 160.575594 250.54913
L 172.856026 242.653674
" style="fill:none;stroke:#029e73;stroke-linecap:round;stroke-width:1.5;"/>
    <defs>
     <path d="M 0 3
C 0.795609 3 1.55874 2.683901 2.12132 2.12132
C 2.683901 1.55874 3 0.795609 3 0
C 3 -0.795609 2.683901 -1.55874 2.12132 -2.12132
C 1.55874 -2.683901 0.795609 -3 0 -3
C -0.795609 -3 -1.55874 -2.683901 -2.12132 -2.12132
C -2.683901 -1.55874 -3 -0.795609 -3 0
C -3 0.795609 -2.683901 1.55874 -2.12132 2.12132
C -1.55874 2.683901 -0.795609 3 0 3
z
" id="m2400822fcc" style="stroke:#ffffff;stroke-width:0.75;"/>
    </defs>
    <g clip-path="url(#p217ca5c149)">
     <use style="fill:#029e73;stroke:#ffffff;stroke-width:0.75;" x="62.332132" xlink:href="#m2400822fcc" y="304.306608"/>
     <use style="fill:#029e73;stroke:#ffffff;stroke-width:0.75;" x="74.612565" xlink:href="#m2400822fcc" y="296.934831"/>
     <use style="fill:#029e73;stroke:#ffffff;stroke-width:0.75;" x="86.892998" xlink:href="#m2400822fcc" y="290.570718"/>
     <use style="fill:#029e73;stroke:#ffffff;stroke-width:0.75;" x="99.17343" xlink:href="#m2400822fcc" y="283.134592"/>
     <use style="fill:#029e73;stroke:#ffffff;stroke-width:0.75;" x="111.453863" xlink:href="#m2400822fcc" y="277.605968"/>
     <use style="fill:#029e73;stroke:#ffffff;stroke-width:0.75;" x="123.734296" xlink:href="#m2400822fcc" y="271.240923"/>
     <use style="fill:#029e73;stroke:#ffffff;stroke-width:0.75;" x="136.014728" xlink:href="#m2400822fcc" y="264.50662"/>
     <use style="fill:#029e73;stroke:#ffffff;stroke-width:0.75;" x="148.295161" xlink:href="#m2400822fcc" y="256.938371"/>
     <use style="fill:#029e73;stroke:#ffffff;stroke-width:0.75;" x="160.575594" xlink:href="#m2400822fcc" y="250.54913"/>
     <use style="fill:#029e73;stroke:#ffffff;stroke-width:0.75;" x="172.856026" xlink:href="#m2400822fcc" y="242.653674"/>
    </g>
   </g>
   <g id="line2d_44">
    <path clip-path="url(#p217ca5c149)" d="M 62.332132 304.749474
L 74.612565 297.531661
L 86.892998 290.906065
L 99.17343 283.677639
L 111.453863 278.725599
L 123.734296 272.659773
L 136.014728 265.76682
L 148.295161 258.686039
L 160.575594 251.208235
L 172.856026 244.389922
" style="fill:none;stroke:#d55e00;stroke-linecap:round;stroke-width:1.5;"/>
    <defs>
     <path d="M 0 3
C 0.795609 3 1.55874 2.683901 2.12132 2.12132
C 2.683901 1.55874 3 0.795609 3 0
C 3 -0.795609 2.683901 -1.55874 2.12132 -2.12132
C 1.55874 -2.683901 0.795609 -3 0 -3
C -0.795609 -3 -1.55874 -2.683901 -2.12132 -2.12132
C -2.683901 -1.55874 -3 -0.795609 -3 0
C -3 0.795609 -2.683901 1.55874 -2.12132 2.12132
C -1.55874 2.683901 -0.795609 3 0 3
z
" id="mf4843443e1" style="stroke:#ffffff;stroke-width:0.75;"/>
    </defs>
    <g clip-path="url(#p217ca5c149)">
     <use style="fill:#d55e00;stroke:#ffffff;stroke-width:0.75;" x="62.332132" xlink:href="#mf4843443e1" y="304.749474"/>
     <use style="fill:#d55e00;stroke:#ffffff;stroke-width:0.75;" x="74.612565" xlink:href="#mf4843443e1" y="297.531661"/>
     <use style="fill:#d55e00;stroke:#ffffff;stroke-width:0.75;" x="86.892998" xlink:href="#mf4843443e1" y="290.906065"/>
     <use style="fill:#d55e00;stroke:#ffffff;stroke-width:0.75;" x="99.17343" xlink:href="#mf4843443e1" y="283.677639"/>
     <use style="fill:#d55e00;stroke:#ffffff;stroke-width:0.75;" x="111.453863" xlink:href="#mf4843443e1" y="278.725599"/>
     <use style="fill:#d55e00;stroke:#ffffff;stroke-width:0.75;" x="123.734296" xlink:href="#mf4843443e1" y="272.659773"/>
     <use style="fill:#d55e00;stroke:#ffffff;stroke-width:0.75;" x="136.014728" xlink:href="#mf4843443e1" y="265.76682"/>
     <use style="fill:#d55e00;stroke:#ffffff;stroke-width:0.75;" x="148.295161" xlink:href="#mf4843443e1" y="258.686039"/>
     <use style="fill:#d55e00;stroke:#ffffff;stroke-width:0.75;" x="160.575594" xlink:href="#mf4843443e1" y="251.208235"/>
     <use style="fill:#d55e00;stroke:#ffffff;stroke-width:0.75;" x="172.856026" xlink:href="#mf4843443e1" y="244.389922"/>
    </g>
   </g>
   <g id="line2d_45">
    <path clip-path="url(#p217ca5c149)" d="M 62.332132 307.706233
L 74.612565 303.54635
L 86.892998 299.941007
L 99.17343 294.904078
L 111.453863 293.286593
L 123.734296 288.597481
L 136.014728 285.957826
L 148.295161 281.099382
L 160.575594 277.979463
L 172.856026 274.397319
" style="fill:none;stroke:#cc78bc;stroke-linecap:round;stroke-width:1.5;"/>
    <defs>
     <path d="M 0 3
C 0.795609 3 1.55874 2.683901 2.12132 2.12132
C 2.683901 1.55874 3 0.795609 3 0
C 3 -0.795609 2.683901 -1.55874 2.12132 -2.12132
C 1.55874 -2.683901 0.795609 -3 0 -3
C -0.795609 -3 -1.55874 -2.683901 -2.12132 -2.12132
C -2.683901 -1.55874 -3 -0.795609 -3 0
C -3 0.795609 -2.683901 1.55874 -2.12132 2.12132
C -1.55874 2.683901 -0.795609 3 0 3
z
" id="m8411d0084c" style="stroke:#ffffff;stroke-width:0.75;"/>
    </defs>
    <g clip-path="url(#p217ca5c149)">
     <use style="fill:#cc78bc;stroke:#ffffff;stroke-width:0.75;" x="62.332132" xlink:href="#m8411d0084c" y="307.706233"/>
     <use style="fill:#cc78bc;stroke:#ffffff;stroke-width:0.75;" x="74.612565" xlink:href="#m8411d0084c" y="303.54635"/>
     <use style="fill:#cc78bc;stroke:#ffffff;stroke-width:0.75;" x="86.892998" xlink:href="#m8411d0084c" y="299.941007"/>
     <use style="fill:#cc78bc;stroke:#ffffff;stroke-width:0.75;" x="99.17343" xlink:href="#m8411d0084c" y="294.904078"/>
     <use style="fill:#cc78bc;stroke:#ffffff;stroke-width:0.75;" x="111.453863" xlink:href="#m8411d0084c" y="293.286593"/>
     <use style="fill:#cc78bc;stroke:#ffffff;stroke-width:0.75;" x="123.734296" xlink:href="#m8411d0084c" y="288.597481"/>
     <use style="fill:#cc78bc;stroke:#ffffff;stroke-width:0.75;" x="136.014728" xlink:href="#m8411d0084c" y="285.957826"/>
     <use style="fill:#cc78bc;stroke:#ffffff;stroke-width:0.75;" x="148.295161" xlink:href="#m8411d0084c" y="281.099382"/>
     <use style="fill:#cc78bc;stroke:#ffffff;stroke-width:0.75;" x="160.575594" xlink:href="#m8411d0084c" y="277.979463"/>
     <use style="fill:#cc78bc;stroke:#ffffff;stroke-width:0.75;" x="172.856026" xlink:href="#m8411d0084c" y="274.397319"/>
    </g>
   </g>
   <g id="patch_21">
    <path d="M 56.805937 313.2
L 56.805937 238.336694
" style="fill:none;stroke:#262626;stroke-linecap:square;stroke-linejoin:miter;stroke-width:1.25;"/>
   </g>
   <g id="patch_22">
    <path d="M 56.805937 313.2
L 178.382221 313.2
" style="fill:none;stroke:#262626;stroke-linecap:square;stroke-linejoin:miter;stroke-width:1.25;"/>
   </g>
  </g>
  <g id="axes_8">
   <g id="patch_23">
    <path d="M 209.620296 313.2
L 331.196579 313.2
L 331.196579 238.336694
L 209.620296 238.336694
z
" style="fill:#ffffff;"/>
   </g>
   <g id="matplotlib.axis_15">
    <g id="xtick_19">
     <g id="line2d_46">
      <g>
       <use style="fill:#262626;stroke:#262626;stroke-width:1.25;" x="210.541328" xlink:href="#m96a5203407" y="313.2"/>
      </g>
     </g>
     <g id="text_18">
      <!-- 0 -->
      <g style="fill:#262626;" transform="translate(207.041953 331.058281)scale(0.11 -0.11)">
       <use xlink:href="#DejaVuSans-48"/>
      </g>
     </g>
    </g>
    <g id="xtick_20">
     <g id="line2d_47">
      <g>
       <use style="fill:#262626;stroke:#262626;stroke-width:1.25;" x="256.592951" xlink:href="#m96a5203407" y="313.2"/>
      </g>
     </g>
     <g id="text_19">
      <!-- 20 -->
      <g style="fill:#262626;" transform="translate(249.594201 331.058281)scale(0.11 -0.11)">
       <use xlink:href="#DejaVuSans-50"/>
       <use x="63.623047" xlink:href="#DejaVuSans-48"/>
      </g>
     </g>
    </g>
    <g id="xtick_21">
     <g id="line2d_48">
      <g>
       <use style="fill:#262626;stroke:#262626;stroke-width:1.25;" x="302.644573" xlink:href="#m96a5203407" y="313.2"/>
      </g>
     </g>
     <g id="text_20">
      <!-- 40 -->
      <g style="fill:#262626;" transform="translate(295.645823 331.058281)scale(0.11 -0.11)">
       <use xlink:href="#DejaVuSans-52"/>
       <use x="63.623047" xlink:href="#DejaVuSans-48"/>
      </g>
     </g>
    </g>
    <g id="text_21">
     <!-- d -->
     <g style="fill:#262626;" transform="translate(266.599375 346.464062)scale(0.12 -0.12)">
      <use xlink:href="#DejaVuSans-100"/>
     </g>
    </g>
   </g>
   <g id="matplotlib.axis_16">
    <g id="ytick_19">
     <g id="line2d_49">
      <g>
       <use style="fill:#262626;stroke:#262626;stroke-width:1.25;" x="209.620296" xlink:href="#m33a4be048b" y="311.282467"/>
      </g>
     </g>
    </g>
    <g id="ytick_20">
     <g id="line2d_50">
      <g>
       <use style="fill:#262626;stroke:#262626;stroke-width:1.25;" x="209.620296" xlink:href="#m33a4be048b" y="275.214022"/>
      </g>
     </g>
    </g>
    <g id="ytick_21">
     <g id="line2d_51">
      <g>
       <use style="fill:#262626;stroke:#262626;stroke-width:1.25;" x="209.620296" xlink:href="#m33a4be048b" y="239.145577"/>
      </g>
     </g>
    </g>
   </g>
   <g id="PolyCollection_10">
    <defs>
     <path d="M 215.14649 -70.446392
L 215.14649 -69.271366
L 233.567139 -78.270866
L 251.987788 -85.166174
L 270.408437 -91.696854
L 288.829087 -99.593992
L 307.249736 -107.488567
L 325.670385 -115.133415
L 325.670385 -116.117205
L 325.670385 -116.117205
L 307.249736 -108.624428
L 288.829087 -100.494443
L 270.408437 -92.386996
L 251.987788 -85.44961
L 233.567139 -78.755196
L 215.14649 -70.446392
z
" id="m869d052f97" style="stroke:#029e73;stroke-opacity:0.2;"/>
    </defs>
    <g clip-path="url(#p59a5693ab5)">
     <use style="fill:#029e73;fill-opacity:0.2;stroke:#029e73;stroke-opacity:0.2;" x="0" xlink:href="#m869d052f97" y="369.62"/>
    </g>
   </g>
   <g id="PolyCollection_11">
    <defs>
     <path d="M 215.14649 -68.783498
L 215.14649 -68.654763
L 233.567139 -77.247217
L 251.987788 -84.969954
L 270.408437 -90.708458
L 288.829087 -99.192215
L 307.249736 -106.720285
L 325.670385 -114.324087
L 325.670385 -115.450784
L 325.670385 -115.450784
L 307.249736 -107.801118
L 288.829087 -100.180494
L 270.408437 -91.112187
L 251.987788 -86.31517
L 233.567139 -77.521264
L 215.14649 -68.783498
z
" id="m6dbd258446" style="stroke:#d55e00;stroke-opacity:0.2;"/>
    </defs>
    <g clip-path="url(#p59a5693ab5)">
     <use style="fill:#d55e00;fill-opacity:0.2;stroke:#d55e00;stroke-opacity:0.2;" x="0" xlink:href="#m6dbd258446" y="369.62"/>
    </g>
   </g>
   <g id="PolyCollection_12">
    <defs>
     <path d="M 215.14649 -64.41188
L 215.14649 -64.324548
L 233.567139 -68.686681
L 251.987788 -73.730291
L 270.408437 -76.213229
L 288.829087 -80.918279
L 307.249736 -86.228209
L 325.670385 -90.77222
L 325.670385 -91.135515
L 325.670385 -91.135515
L 307.249736 -86.582778
L 288.829087 -81.891406
L 270.408437 -76.448238
L 251.987788 -74.062401
L 233.567139 -68.815302
L 215.14649 -64.41188
z
" id="m469c7604bb" style="stroke:#cc78bc;stroke-opacity:0.2;"/>
    </defs>
    <g clip-path="url(#p59a5693ab5)">
     <use style="fill:#cc78bc;fill-opacity:0.2;stroke:#cc78bc;stroke-opacity:0.2;" x="0" xlink:href="#m469c7604bb" y="369.62"/>
    </g>
   </g>
   <g id="line2d_52">
    <path clip-path="url(#p59a5693ab5)" d="M 215.14649 299.93923
L 233.567139 291.150799
L 251.987788 284.321958
L 270.408437 277.605968
L 288.829087 269.619359
L 307.249736 261.66332
L 325.670385 254.04532
" style="fill:none;stroke:#029e73;stroke-linecap:round;stroke-width:1.5;"/>
    <g clip-path="url(#p59a5693ab5)">
     <use style="fill:#029e73;stroke:#ffffff;stroke-width:0.75;" x="215.14649" xlink:href="#m2400822fcc" y="299.93923"/>
     <use style="fill:#029e73;stroke:#ffffff;stroke-width:0.75;" x="233.567139" xlink:href="#m2400822fcc" y="291.150799"/>
     <use style="fill:#029e73;stroke:#ffffff;stroke-width:0.75;" x="251.987788" xlink:href="#m2400822fcc" y="284.321958"/>
     <use style="fill:#029e73;stroke:#ffffff;stroke-width:0.75;" x="270.408437" xlink:href="#m2400822fcc" y="277.605968"/>
     <use style="fill:#029e73;stroke:#ffffff;stroke-width:0.75;" x="288.829087" xlink:href="#m2400822fcc" y="269.619359"/>
     <use style="fill:#029e73;stroke:#ffffff;stroke-width:0.75;" x="307.249736" xlink:href="#m2400822fcc" y="261.66332"/>
     <use style="fill:#029e73;stroke:#ffffff;stroke-width:0.75;" x="325.670385" xlink:href="#m2400822fcc" y="254.04532"/>
    </g>
   </g>
   <g id="line2d_53">
    <path clip-path="url(#p59a5693ab5)" d="M 215.14649 300.904248
L 233.567139 292.23973
L 251.987788 284.033645
L 270.408437 278.725599
L 288.829087 270.037253
L 307.249736 262.45394
L 325.670385 254.801624
" style="fill:none;stroke:#d55e00;stroke-linecap:round;stroke-width:1.5;"/>
    <g clip-path="url(#p59a5693ab5)">
     <use style="fill:#d55e00;stroke:#ffffff;stroke-width:0.75;" x="215.14649" xlink:href="#mf4843443e1" y="300.904248"/>
     <use style="fill:#d55e00;stroke:#ffffff;stroke-width:0.75;" x="233.567139" xlink:href="#mf4843443e1" y="292.23973"/>
     <use style="fill:#d55e00;stroke:#ffffff;stroke-width:0.75;" x="251.987788" xlink:href="#mf4843443e1" y="284.033645"/>
     <use style="fill:#d55e00;stroke:#ffffff;stroke-width:0.75;" x="270.408437" xlink:href="#mf4843443e1" y="278.725599"/>
     <use style="fill:#d55e00;stroke:#ffffff;stroke-width:0.75;" x="288.829087" xlink:href="#mf4843443e1" y="270.037253"/>
     <use style="fill:#d55e00;stroke:#ffffff;stroke-width:0.75;" x="307.249736" xlink:href="#mf4843443e1" y="262.45394"/>
     <use style="fill:#d55e00;stroke:#ffffff;stroke-width:0.75;" x="325.670385" xlink:href="#mf4843443e1" y="254.801624"/>
    </g>
   </g>
   <g id="line2d_54">
    <path clip-path="url(#p59a5693ab5)" d="M 215.14649 305.2505
L 233.567139 300.873611
L 251.987788 295.74302
L 270.408437 293.286593
L 288.829087 288.287451
L 307.249736 283.21744
L 325.670385 278.666462
" style="fill:none;stroke:#cc78bc;stroke-linecap:round;stroke-width:1.5;"/>
    <g clip-path="url(#p59a5693ab5)">
     <use style="fill:#cc78bc;stroke:#ffffff;stroke-width:0.75;" x="215.14649" xlink:href="#m8411d0084c" y="305.2505"/>
     <use style="fill:#cc78bc;stroke:#ffffff;stroke-width:0.75;" x="233.567139" xlink:href="#m8411d0084c" y="300.873611"/>
     <use style="fill:#cc78bc;stroke:#ffffff;stroke-width:0.75;" x="251.987788" xlink:href="#m8411d0084c" y="295.74302"/>
     <use style="fill:#cc78bc;stroke:#ffffff;stroke-width:0.75;" x="270.408437" xlink:href="#m8411d0084c" y="293.286593"/>
     <use style="fill:#cc78bc;stroke:#ffffff;stroke-width:0.75;" x="288.829087" xlink:href="#m8411d0084c" y="288.287451"/>
     <use style="fill:#cc78bc;stroke:#ffffff;stroke-width:0.75;" x="307.249736" xlink:href="#m8411d0084c" y="283.21744"/>
     <use style="fill:#cc78bc;stroke:#ffffff;stroke-width:0.75;" x="325.670385" xlink:href="#m8411d0084c" y="278.666462"/>
    </g>
   </g>
   <g id="patch_24">
    <path d="M 209.620296 313.2
L 209.620296 238.336694
" style="fill:none;stroke:#262626;stroke-linecap:square;stroke-linejoin:miter;stroke-width:1.25;"/>
   </g>
   <g id="patch_25">
    <path d="M 209.620296 313.2
L 331.196579 313.2
" style="fill:none;stroke:#262626;stroke-linecap:square;stroke-linejoin:miter;stroke-width:1.25;"/>
   </g>
  </g>
  <g id="axes_9">
   <g id="patch_26">
    <path d="M 362.434654 313.2
L 484.010938 313.2
L 484.010938 238.336694
L 362.434654 238.336694
z
" style="fill:#ffffff;"/>
   </g>
   <g id="matplotlib.axis_17">
    <g id="xtick_22">
     <g id="line2d_55">
      <g>
       <use style="fill:#262626;stroke:#262626;stroke-width:1.25;" x="363.355687" xlink:href="#m96a5203407" y="313.2"/>
      </g>
     </g>
     <g id="text_22">
      <!-- 0 -->
      <g style="fill:#262626;" transform="translate(359.856312 331.058281)scale(0.11 -0.11)">
       <use xlink:href="#DejaVuSans-48"/>
      </g>
     </g>
    </g>
    <g id="xtick_23">
     <g id="line2d_56">
      <g>
       <use style="fill:#262626;stroke:#262626;stroke-width:1.25;" x="409.407309" xlink:href="#m96a5203407" y="313.2"/>
      </g>
     </g>
     <g id="text_23">
      <!-- 20 -->
      <g style="fill:#262626;" transform="translate(402.408559 331.058281)scale(0.11 -0.11)">
       <use xlink:href="#DejaVuSans-50"/>
       <use x="63.623047" xlink:href="#DejaVuSans-48"/>
      </g>
     </g>
    </g>
    <g id="xtick_24">
     <g id="line2d_57">
      <g>
       <use style="fill:#262626;stroke:#262626;stroke-width:1.25;" x="455.458932" xlink:href="#m96a5203407" y="313.2"/>
      </g>
     </g>
     <g id="text_24">
      <!-- 40 -->
      <g style="fill:#262626;" transform="translate(448.460182 331.058281)scale(0.11 -0.11)">
       <use xlink:href="#DejaVuSans-52"/>
       <use x="63.623047" xlink:href="#DejaVuSans-48"/>
      </g>
     </g>
    </g>
    <g id="text_25">
     <!-- k -->
     <g style="fill:#262626;" transform="translate(419.748421 346.464062)scale(0.12 -0.12)">
      <use xlink:href="#DejaVuSans-107"/>
     </g>
    </g>
   </g>
   <g id="matplotlib.axis_18">
    <g id="ytick_22">
     <g id="line2d_58">
      <g>
       <use style="fill:#262626;stroke:#262626;stroke-width:1.25;" x="362.434654" xlink:href="#m33a4be048b" y="311.282467"/>
      </g>
     </g>
    </g>
    <g id="ytick_23">
     <g id="line2d_59">
      <g>
       <use style="fill:#262626;stroke:#262626;stroke-width:1.25;" x="362.434654" xlink:href="#m33a4be048b" y="275.214022"/>
      </g>
     </g>
    </g>
    <g id="ytick_24">
     <g id="line2d_60">
      <g>
       <use style="fill:#262626;stroke:#262626;stroke-width:1.25;" x="362.434654" xlink:href="#m33a4be048b" y="239.145577"/>
      </g>
     </g>
    </g>
   </g>
   <g id="PolyCollection_13">
    <defs>
     <path d="M 367.960849 -61.151809
L 367.960849 -60.97411
L 386.381498 -72.820639
L 404.802147 -83.279654
L 423.222796 -91.714341
L 441.643445 -103.034192
L 460.064094 -113.800776
L 478.484743 -123.847229
L 478.484743 -124.750624
L 478.484743 -124.750624
L 460.064094 -114.666844
L 441.643445 -103.389882
L 423.222796 -92.3816
L 404.802147 -83.542137
L 386.381498 -72.989418
L 367.960849 -61.151809
z
" id="m8d3df73f78" style="stroke:#029e73;stroke-opacity:0.2;"/>
    </defs>
    <g clip-path="url(#p3a71efa7a9)">
     <use style="fill:#029e73;fill-opacity:0.2;stroke:#029e73;stroke-opacity:0.2;" x="0" xlink:href="#m8d3df73f78" y="369.62"/>
    </g>
   </g>
   <g id="PolyCollection_14">
    <defs>
     <path d="M 367.960849 -61.65901
L 367.960849 -61.083178
L 386.381498 -72.427576
L 404.802147 -82.925791
L 423.222796 -90.705975
L 441.643445 -102.18286
L 460.064094 -112.593136
L 478.484743 -122.609022
L 478.484743 -124.438341
L 478.484743 -124.438341
L 460.064094 -113.472728
L 441.643445 -103.929868
L 423.222796 -91.102387
L 404.802147 -83.960296
L 386.381498 -73.127218
L 367.960849 -61.65901
z
" id="m66ed0b2515" style="stroke:#d55e00;stroke-opacity:0.2;"/>
    </defs>
    <g clip-path="url(#p3a71efa7a9)">
     <use style="fill:#d55e00;fill-opacity:0.2;stroke:#d55e00;stroke-opacity:0.2;" x="0" xlink:href="#m66ed0b2515" y="369.62"/>
    </g>
   </g>
   <g id="PolyCollection_15">
    <defs>
     <path d="M 367.960849 -59.860393
L 367.960849 -59.822878
L 386.381498 -66.360611
L 404.802147 -72.484726
L 423.222796 -76.215442
L 441.643445 -82.685525
L 460.064094 -88.522654
L 478.484743 -94.27668
L 478.484743 -94.841194
L 478.484743 -94.841194
L 460.064094 -89.55167
L 441.643445 -83.138789
L 423.222796 -76.459952
L 404.802147 -72.638865
L 386.381498 -67.232777
L 367.960849 -59.860393
z
" id="m29871ae92f" style="stroke:#cc78bc;stroke-opacity:0.2;"/>
    </defs>
    <g clip-path="url(#p3a71efa7a9)">
     <use style="fill:#cc78bc;fill-opacity:0.2;stroke:#cc78bc;stroke-opacity:0.2;" x="0" xlink:href="#m29871ae92f" y="369.62"/>
    </g>
   </g>
   <g id="line2d_61">
    <path clip-path="url(#p3a71efa7a9)" d="M 367.960849 308.569217
L 386.381498 296.721539
L 404.802147 286.222878
L 423.222796 277.605968
L 441.643445 266.415659
L 460.064094 255.394691
L 478.484743 245.378227
" style="fill:none;stroke:#029e73;stroke-linecap:round;stroke-width:1.5;"/>
    <g clip-path="url(#p3a71efa7a9)">
     <use style="fill:#029e73;stroke:#ffffff;stroke-width:0.75;" x="367.960849" xlink:href="#m2400822fcc" y="308.569217"/>
     <use style="fill:#029e73;stroke:#ffffff;stroke-width:0.75;" x="386.381498" xlink:href="#m2400822fcc" y="296.721539"/>
     <use style="fill:#029e73;stroke:#ffffff;stroke-width:0.75;" x="404.802147" xlink:href="#m2400822fcc" y="286.222878"/>
     <use style="fill:#029e73;stroke:#ffffff;stroke-width:0.75;" x="423.222796" xlink:href="#m2400822fcc" y="277.605968"/>
     <use style="fill:#029e73;stroke:#ffffff;stroke-width:0.75;" x="441.643445" xlink:href="#m2400822fcc" y="266.415659"/>
     <use style="fill:#029e73;stroke:#ffffff;stroke-width:0.75;" x="460.064094" xlink:href="#m2400822fcc" y="255.394691"/>
     <use style="fill:#029e73;stroke:#ffffff;stroke-width:0.75;" x="478.484743" xlink:href="#m2400822fcc" y="245.378227"/>
    </g>
   </g>
   <g id="line2d_62">
    <path clip-path="url(#p3a71efa7a9)" d="M 367.960849 308.260342
L 386.381498 296.917603
L 404.802147 286.247535
L 423.222796 278.725599
L 441.643445 266.81992
L 460.064094 256.612313
L 478.484743 246.235749
" style="fill:none;stroke:#d55e00;stroke-linecap:round;stroke-width:1.5;"/>
    <g clip-path="url(#p3a71efa7a9)">
     <use style="fill:#d55e00;stroke:#ffffff;stroke-width:0.75;" x="367.960849" xlink:href="#mf4843443e1" y="308.260342"/>
     <use style="fill:#d55e00;stroke:#ffffff;stroke-width:0.75;" x="386.381498" xlink:href="#mf4843443e1" y="296.917603"/>
     <use style="fill:#d55e00;stroke:#ffffff;stroke-width:0.75;" x="404.802147" xlink:href="#mf4843443e1" y="286.247535"/>
     <use style="fill:#d55e00;stroke:#ffffff;stroke-width:0.75;" x="423.222796" xlink:href="#mf4843443e1" y="278.725599"/>
     <use style="fill:#d55e00;stroke:#ffffff;stroke-width:0.75;" x="441.643445" xlink:href="#mf4843443e1" y="266.81992"/>
     <use style="fill:#d55e00;stroke:#ffffff;stroke-width:0.75;" x="460.064094" xlink:href="#mf4843443e1" y="256.612313"/>
     <use style="fill:#d55e00;stroke:#ffffff;stroke-width:0.75;" x="478.484743" xlink:href="#mf4843443e1" y="246.235749"/>
    </g>
   </g>
   <g id="line2d_63">
    <path clip-path="url(#p3a71efa7a9)" d="M 367.960849 309.781209
L 386.381498 302.891641
L 404.802147 297.059176
L 423.222796 293.286593
L 441.643445 286.720324
L 460.064094 280.662061
L 478.484743 275.073456
" style="fill:none;stroke:#cc78bc;stroke-linecap:round;stroke-width:1.5;"/>
    <g clip-path="url(#p3a71efa7a9)">
     <use style="fill:#cc78bc;stroke:#ffffff;stroke-width:0.75;" x="367.960849" xlink:href="#m8411d0084c" y="309.781209"/>
     <use style="fill:#cc78bc;stroke:#ffffff;stroke-width:0.75;" x="386.381498" xlink:href="#m8411d0084c" y="302.891641"/>
     <use style="fill:#cc78bc;stroke:#ffffff;stroke-width:0.75;" x="404.802147" xlink:href="#m8411d0084c" y="297.059176"/>
     <use style="fill:#cc78bc;stroke:#ffffff;stroke-width:0.75;" x="423.222796" xlink:href="#m8411d0084c" y="293.286593"/>
     <use style="fill:#cc78bc;stroke:#ffffff;stroke-width:0.75;" x="441.643445" xlink:href="#m8411d0084c" y="286.720324"/>
     <use style="fill:#cc78bc;stroke:#ffffff;stroke-width:0.75;" x="460.064094" xlink:href="#m8411d0084c" y="280.662061"/>
     <use style="fill:#cc78bc;stroke:#ffffff;stroke-width:0.75;" x="478.484743" xlink:href="#m8411d0084c" y="275.073456"/>
    </g>
   </g>
   <g id="patch_27">
    <path d="M 362.434654 313.2
L 362.434654 238.336694
" style="fill:none;stroke:#262626;stroke-linecap:square;stroke-linejoin:miter;stroke-width:1.25;"/>
   </g>
   <g id="patch_28">
    <path d="M 362.434654 313.2
L 484.010938 313.2
" style="fill:none;stroke:#262626;stroke-linecap:square;stroke-linejoin:miter;stroke-width:1.25;"/>
   </g>
  </g>
  <g id="text_26">
   <!-- Comparison of Assignment Functions -->
   <defs>
    <path d="M 64.40625 67.28125
L 64.40625 56.890625
Q 59.421875 61.53125 53.78125 63.8125
Q 48.140625 66.109375 41.796875 66.109375
Q 29.296875 66.109375 22.65625 58.46875
Q 16.015625 50.828125 16.015625 36.375
Q 16.015625 21.96875 22.65625 14.328125
Q 29.296875 6.6875 41.796875 6.6875
Q 48.140625 6.6875 53.78125 8.984375
Q 59.421875 11.28125 64.40625 15.921875
L 64.40625 5.609375
Q 59.234375 2.09375 53.4375 0.328125
Q 47.65625 -1.421875 41.21875 -1.421875
Q 24.65625 -1.421875 15.125 8.703125
Q 5.609375 18.84375 5.609375 36.375
Q 5.609375 53.953125 15.125 64.078125
Q 24.65625 74.21875 41.21875 74.21875
Q 47.75 74.21875 53.53125 72.484375
Q 59.328125 70.75 64.40625 67.28125
z
" id="DejaVuSans-67"/>
    <path d="M 30.609375 48.390625
Q 23.390625 48.390625 19.1875 42.75
Q 14.984375 37.109375 14.984375 27.296875
Q 14.984375 17.484375 19.15625 11.84375
Q 23.34375 6.203125 30.609375 6.203125
Q 37.796875 6.203125 41.984375 11.859375
Q 46.1875 17.53125 46.1875 27.296875
Q 46.1875 37.015625 41.984375 42.703125
Q 37.796875 48.390625 30.609375 48.390625
z
M 30.609375 56
Q 42.328125 56 49.015625 48.375
Q 55.71875 40.765625 55.71875 27.296875
Q 55.71875 13.875 49.015625 6.21875
Q 42.328125 -1.421875 30.609375 -1.421875
Q 18.84375 -1.421875 12.171875 6.21875
Q 5.515625 13.875 5.515625 27.296875
Q 5.515625 40.765625 12.171875 48.375
Q 18.84375 56 30.609375 56
z
" id="DejaVuSans-111"/>
    <path d="M 18.109375 8.203125
L 18.109375 -20.796875
L 9.078125 -20.796875
L 9.078125 54.6875
L 18.109375 54.6875
L 18.109375 46.390625
Q 20.953125 51.265625 25.265625 53.625
Q 29.59375 56 35.59375 56
Q 45.5625 56 51.78125 48.09375
Q 58.015625 40.1875 58.015625 27.296875
Q 58.015625 14.40625 51.78125 6.484375
Q 45.5625 -1.421875 35.59375 -1.421875
Q 29.59375 -1.421875 25.265625 0.953125
Q 20.953125 3.328125 18.109375 8.203125
z
M 48.6875 27.296875
Q 48.6875 37.203125 44.609375 42.84375
Q 40.53125 48.484375 33.40625 48.484375
Q 26.265625 48.484375 22.1875 42.84375
Q 18.109375 37.203125 18.109375 27.296875
Q 18.109375 17.390625 22.1875 11.75
Q 26.265625 6.109375 33.40625 6.109375
Q 40.53125 6.109375 44.609375 11.75
Q 48.6875 17.390625 48.6875 27.296875
z
" id="DejaVuSans-112"/>
    <path d="M 34.28125 27.484375
Q 23.390625 27.484375 19.1875 25
Q 14.984375 22.515625 14.984375 16.5
Q 14.984375 11.71875 18.140625 8.90625
Q 21.296875 6.109375 26.703125 6.109375
Q 34.1875 6.109375 38.703125 11.40625
Q 43.21875 16.703125 43.21875 25.484375
L 43.21875 27.484375
z
M 52.203125 31.203125
L 52.203125 0
L 43.21875 0
L 43.21875 8.296875
Q 40.140625 3.328125 35.546875 0.953125
Q 30.953125 -1.421875 24.3125 -1.421875
Q 15.921875 -1.421875 10.953125 3.296875
Q 6 8.015625 6 15.921875
Q 6 25.140625 12.171875 29.828125
Q 18.359375 34.515625 30.609375 34.515625
L 43.21875 34.515625
L 43.21875 35.40625
Q 43.21875 41.609375 39.140625 45
Q 35.0625 48.390625 27.6875 48.390625
Q 23 48.390625 18.546875 47.265625
Q 14.109375 46.140625 10.015625 43.890625
L 10.015625 52.203125
Q 14.9375 54.109375 19.578125 55.046875
Q 24.21875 56 28.609375 56
Q 40.484375 56 46.34375 49.84375
Q 52.203125 43.703125 52.203125 31.203125
z
" id="DejaVuSans-97"/>
    <path d="M 41.109375 46.296875
Q 39.59375 47.171875 37.8125 47.578125
Q 36.03125 48 33.890625 48
Q 26.265625 48 22.1875 43.046875
Q 18.109375 38.09375 18.109375 28.8125
L 18.109375 0
L 9.078125 0
L 9.078125 54.6875
L 18.109375 54.6875
L 18.109375 46.1875
Q 20.953125 51.171875 25.484375 53.578125
Q 30.03125 56 36.53125 56
Q 37.453125 56 38.578125 55.875
Q 39.703125 55.765625 41.0625 55.515625
z
" id="DejaVuSans-114"/>
    <path d="M 37.109375 75.984375
L 37.109375 68.5
L 28.515625 68.5
Q 23.6875 68.5 21.796875 66.546875
Q 19.921875 64.59375 19.921875 59.515625
L 19.921875 54.6875
L 34.71875 54.6875
L 34.71875 47.703125
L 19.921875 47.703125
L 19.921875 0
L 10.890625 0
L 10.890625 47.703125
L 2.296875 47.703125
L 2.296875 54.6875
L 10.890625 54.6875
L 10.890625 58.5
Q 10.890625 67.625 15.140625 71.796875
Q 19.390625 75.984375 28.609375 75.984375
z
" id="DejaVuSans-102"/>
    <path d="M 34.1875 63.1875
L 20.796875 26.90625
L 47.609375 26.90625
z
M 28.609375 72.90625
L 39.796875 72.90625
L 67.578125 0
L 57.328125 0
L 50.6875 18.703125
L 17.828125 18.703125
L 11.1875 0
L 0.78125 0
z
" id="DejaVuSans-65"/>
    <path d="M 45.40625 27.984375
Q 45.40625 37.75 41.375 43.109375
Q 37.359375 48.484375 30.078125 48.484375
Q 22.859375 48.484375 18.828125 43.109375
Q 14.796875 37.75 14.796875 27.984375
Q 14.796875 18.265625 18.828125 12.890625
Q 22.859375 7.515625 30.078125 7.515625
Q 37.359375 7.515625 41.375 12.890625
Q 45.40625 18.265625 45.40625 27.984375
z
M 54.390625 6.78125
Q 54.390625 -7.171875 48.1875 -13.984375
Q 42 -20.796875 29.203125 -20.796875
Q 24.46875 -20.796875 20.265625 -20.09375
Q 16.0625 -19.390625 12.109375 -17.921875
L 12.109375 -9.1875
Q 16.0625 -11.328125 19.921875 -12.34375
Q 23.78125 -13.375 27.78125 -13.375
Q 36.625 -13.375 41.015625 -8.765625
Q 45.40625 -4.15625 45.40625 5.171875
L 45.40625 9.625
Q 42.625 4.78125 38.28125 2.390625
Q 33.9375 0 27.875 0
Q 17.828125 0 11.671875 7.65625
Q 5.515625 15.328125 5.515625 27.984375
Q 5.515625 40.671875 11.671875 48.328125
Q 17.828125 56 27.875 56
Q 33.9375 56 38.28125 53.609375
Q 42.625 51.21875 45.40625 46.390625
L 45.40625 54.6875
L 54.390625 54.6875
z
" id="DejaVuSans-103"/>
    <path d="M 18.3125 70.21875
L 18.3125 54.6875
L 36.8125 54.6875
L 36.8125 47.703125
L 18.3125 47.703125
L 18.3125 18.015625
Q 18.3125 11.328125 20.140625 9.421875
Q 21.96875 7.515625 27.59375 7.515625
L 36.8125 7.515625
L 36.8125 0
L 27.59375 0
Q 17.1875 0 13.234375 3.875
Q 9.28125 7.765625 9.28125 18.015625
L 9.28125 47.703125
L 2.6875 47.703125
L 2.6875 54.6875
L 9.28125 54.6875
L 9.28125 70.21875
z
" id="DejaVuSans-116"/>
    <path d="M 9.8125 72.90625
L 51.703125 72.90625
L 51.703125 64.59375
L 19.671875 64.59375
L 19.671875 43.109375
L 48.578125 43.109375
L 48.578125 34.8125
L 19.671875 34.8125
L 19.671875 0
L 9.8125 0
z
" id="DejaVuSans-70"/>
    <path d="M 8.5 21.578125
L 8.5 54.6875
L 17.484375 54.6875
L 17.484375 21.921875
Q 17.484375 14.15625 20.5 10.265625
Q 23.53125 6.390625 29.59375 6.390625
Q 36.859375 6.390625 41.078125 11.03125
Q 45.3125 15.671875 45.3125 23.6875
L 45.3125 54.6875
L 54.296875 54.6875
L 54.296875 0
L 45.3125 0
L 45.3125 8.40625
Q 42.046875 3.421875 37.71875 1
Q 33.40625 -1.421875 27.6875 -1.421875
Q 18.265625 -1.421875 13.375 4.4375
Q 8.5 10.296875 8.5 21.578125
z
M 31.109375 56
z
" id="DejaVuSans-117"/>
    <path d="M 48.78125 52.59375
L 48.78125 44.1875
Q 44.96875 46.296875 41.140625 47.34375
Q 37.3125 48.390625 33.40625 48.390625
Q 24.65625 48.390625 19.8125 42.84375
Q 14.984375 37.3125 14.984375 27.296875
Q 14.984375 17.28125 19.8125 11.734375
Q 24.65625 6.203125 33.40625 6.203125
Q 37.3125 6.203125 41.140625 7.25
Q 44.96875 8.296875 48.78125 10.40625
L 48.78125 2.09375
Q 45.015625 0.34375 40.984375 -0.53125
Q 36.96875 -1.421875 32.421875 -1.421875
Q 20.0625 -1.421875 12.78125 6.34375
Q 5.515625 14.109375 5.515625 27.296875
Q 5.515625 40.671875 12.859375 48.328125
Q 20.21875 56 33.015625 56
Q 37.15625 56 41.109375 55.140625
Q 45.0625 54.296875 48.78125 52.59375
z
" id="DejaVuSans-99"/>
   </defs>
   <g style="fill:#262626;" transform="translate(111.295063 18.14175)scale(0.144 -0.144)">
    <use xlink:href="#DejaVuSans-67"/>
    <use x="69.824219" xlink:href="#DejaVuSans-111"/>
    <use x="131.005859" xlink:href="#DejaVuSans-109"/>
    <use x="228.417969" xlink:href="#DejaVuSans-112"/>
    <use x="291.894531" xlink:href="#DejaVuSans-97"/>
    <use x="353.173828" xlink:href="#DejaVuSans-114"/>
    <use x="394.287109" xlink:href="#DejaVuSans-105"/>
    <use x="422.070312" xlink:href="#DejaVuSans-115"/>
    <use x="474.169922" xlink:href="#DejaVuSans-111"/>
    <use x="535.351562" xlink:href="#DejaVuSans-110"/>
    <use x="598.730469" xlink:href="#DejaVuSans-32"/>
    <use x="630.517578" xlink:href="#DejaVuSans-111"/>
    <use x="691.699219" xlink:href="#DejaVuSans-102"/>
    <use x="726.904297" xlink:href="#DejaVuSans-32"/>
    <use x="758.691406" xlink:href="#DejaVuSans-65"/>
    <use x="827.099609" xlink:href="#DejaVuSans-115"/>
    <use x="879.199219" xlink:href="#DejaVuSans-115"/>
    <use x="931.298828" xlink:href="#DejaVuSans-105"/>
    <use x="959.082031" xlink:href="#DejaVuSans-103"/>
    <use x="1022.558594" xlink:href="#DejaVuSans-110"/>
    <use x="1085.9375" xlink:href="#DejaVuSans-109"/>
    <use x="1183.349609" xlink:href="#DejaVuSans-101"/>
    <use x="1244.873047" xlink:href="#DejaVuSans-110"/>
    <use x="1308.251953" xlink:href="#DejaVuSans-116"/>
    <use x="1347.460938" xlink:href="#DejaVuSans-32"/>
    <use x="1379.248047" xlink:href="#DejaVuSans-70"/>
    <use x="1431.267578" xlink:href="#DejaVuSans-117"/>
    <use x="1494.646484" xlink:href="#DejaVuSans-110"/>
    <use x="1558.025391" xlink:href="#DejaVuSans-99"/>
    <use x="1613.005859" xlink:href="#DejaVuSans-116"/>
    <use x="1652.214844" xlink:href="#DejaVuSans-105"/>
    <use x="1679.998047" xlink:href="#DejaVuSans-111"/>
    <use x="1741.179688" xlink:href="#DejaVuSans-110"/>
    <use x="1804.558594" xlink:href="#DejaVuSans-115"/>
   </g>
  </g>
  <g id="legend_1">
   <g id="patch_29">
    <path d="M 110.7 365.352344
L 132.7 365.352344
L 132.7 357.652344
L 110.7 357.652344
z
" style="fill:#0173b2;stroke:#ffffff;stroke-linejoin:miter;"/>
   </g>
   <g id="text_27">
    <!-- v1 -->
    <defs>
     <path d="M 2.984375 54.6875
L 12.5 54.6875
L 29.59375 8.796875
L 46.6875 54.6875
L 56.203125 54.6875
L 35.6875 0
L 23.484375 0
z
" id="DejaVuSans-118"/>
    </defs>
    <g style="fill:#262626;" transform="translate(141.5 365.352344)scale(0.11 -0.11)">
     <use xlink:href="#DejaVuSans-118"/>
     <use x="59.179688" xlink:href="#DejaVuSans-49"/>
    </g>
   </g>
   <g id="patch_30">
    <path d="M 177.009375 365.352344
L 199.009375 365.352344
L 199.009375 357.652344
L 177.009375 357.652344
z
" style="fill:#de8f05;stroke:#ffffff;stroke-linejoin:miter;"/>
   </g>
   <g id="text_28">
    <!-- v2 -->
    <g style="fill:#262626;" transform="translate(207.809375 365.352344)scale(0.11 -0.11)">
     <use xlink:href="#DejaVuSans-118"/>
     <use x="59.179688" xlink:href="#DejaVuSans-50"/>
    </g>
   </g>
   <g id="patch_31">
    <path d="M 243.31875 365.352344
L 265.31875 365.352344
L 265.31875 357.652344
L 243.31875 357.652344
z
" style="fill:#029e73;stroke:#ffffff;stroke-linejoin:miter;"/>
   </g>
   <g id="text_29">
    <!-- v3 -->
    <defs>
     <path d="M 40.578125 39.3125
Q 47.65625 37.796875 51.625 33
Q 55.609375 28.21875 55.609375 21.1875
Q 55.609375 10.40625 48.1875 4.484375
Q 40.765625 -1.421875 27.09375 -1.421875
Q 22.515625 -1.421875 17.65625 -0.515625
Q 12.796875 0.390625 7.625 2.203125
L 7.625 11.71875
Q 11.71875 9.328125 16.59375 8.109375
Q 21.484375 6.890625 26.8125 6.890625
Q 36.078125 6.890625 40.9375 10.546875
Q 45.796875 14.203125 45.796875 21.1875
Q 45.796875 27.640625 41.28125 31.265625
Q 36.765625 34.90625 28.71875 34.90625
L 20.21875 34.90625
L 20.21875 43.015625
L 29.109375 43.015625
Q 36.375 43.015625 40.234375 45.921875
Q 44.09375 48.828125 44.09375 54.296875
Q 44.09375 59.90625 40.109375 62.90625
Q 36.140625 65.921875 28.71875 65.921875
Q 24.65625 65.921875 20.015625 65.03125
Q 15.375 64.15625 9.8125 62.3125
L 9.8125 71.09375
Q 15.4375 72.65625 20.34375 73.4375
Q 25.25 74.21875 29.59375 74.21875
Q 40.828125 74.21875 47.359375 69.109375
Q 53.90625 64.015625 53.90625 55.328125
Q 53.90625 49.265625 50.4375 45.09375
Q 46.96875 40.921875 40.578125 39.3125
z
" id="DejaVuSans-51"/>
    </defs>
    <g style="fill:#262626;" transform="translate(274.11875 365.352344)scale(0.11 -0.11)">
     <use xlink:href="#DejaVuSans-118"/>
     <use x="59.179688" xlink:href="#DejaVuSans-51"/>
    </g>
   </g>
   <g id="patch_32">
    <path d="M 309.628125 365.352344
L 331.628125 365.352344
L 331.628125 357.652344
L 309.628125 357.652344
z
" style="fill:#d55e00;stroke:#ffffff;stroke-linejoin:miter;"/>
   </g>
   <g id="text_30">
    <!-- v4 -->
    <g style="fill:#262626;" transform="translate(340.428125 365.352344)scale(0.11 -0.11)">
     <use xlink:href="#DejaVuSans-118"/>
     <use x="59.179688" xlink:href="#DejaVuSans-52"/>
    </g>
   </g>
   <g id="patch_33">
    <path d="M 375.9375 365.352344
L 397.9375 365.352344
L 397.9375 357.652344
L 375.9375 357.652344
z
" style="fill:#cc78bc;stroke:#ffffff;stroke-linejoin:miter;"/>
   </g>
   <g id="text_31">
    <!-- v5 -->
    <g style="fill:#262626;" transform="translate(406.7375 365.352344)scale(0.11 -0.11)">
     <use xlink:href="#DejaVuSans-118"/>
     <use x="59.179688" xlink:href="#DejaVuSans-53"/>
    </g>
   </g>
  </g>
 </g>
 <defs>
  <clipPath id="pebf7768f3c">
   <rect height="74.863306" width="121.576283" x="56.805937" y="46.8"/>
  </clipPath>
  <clipPath id="pd3f733ce8d">
   <rect height="74.863306" width="121.576283" x="209.620296" y="46.8"/>
  </clipPath>
  <clipPath id="p3b1d400328">
   <rect height="74.863306" width="121.576283" x="362.434654" y="46.8"/>
  </clipPath>
  <clipPath id="p98a856f563">
   <rect height="74.863306" width="121.576283" x="56.805937" y="142.568347"/>
  </clipPath>
  <clipPath id="p4bc16b7c38">
   <rect height="74.863306" width="121.576283" x="209.620296" y="142.568347"/>
  </clipPath>
  <clipPath id="paba6a45a35">
   <rect height="74.863306" width="121.576283" x="362.434654" y="142.568347"/>
  </clipPath>
  <clipPath id="p217ca5c149">
   <rect height="74.863306" width="121.576283" x="56.805937" y="238.336694"/>
  </clipPath>
  <clipPath id="p59a5693ab5">
   <rect height="74.863306" width="121.576283" x="209.620296" y="238.336694"/>
  </clipPath>
  <clipPath id="p3a71efa7a9">
   <rect height="74.863306" width="121.576283" x="362.434654" y="238.336694"/>
  </clipPath>
 </defs>
</svg>
